<svg xmlns="http://www.w3.org/2000/svg" viewBox="0 0 75.06 98.54"><defs><style>.cls-1{fill:#104b39;}</style></defs><g id="Capa_2" data-name="Capa 2"><g id="Capa_1-2" data-name="Capa 1"><path class="cls-1" d="M22.26,40.35a37.26,37.26,0,0,1,1.81-17.46A36.9,36.9,0,0,1,45.72.43c3.14-1.28,5.62.4,5.66,3.76.18,14,4.94,26.12,14.67,36.16C76.22,50.84,77.19,62.86,71.9,75.71A37.11,37.11,0,0,1,35.68,98.5a37.6,37.6,0,0,1-35.12-31A44,44,0,0,1,4.28,41.75c.61-1.34,1.21-2.69,1.87-4a3.73,3.73,0,0,1,5.25-2C14.7,37.14,18,38.56,21.27,40ZM52.22,87a28.17,28.17,0,0,0,9.62-8.63,28.69,28.69,0,0,0,5.42-19.41c-.44-5.46-3.22-9.75-7-13.64a57.88,57.88,0,0,1-15-27.9c-.57-2.48-.92-5-1.38-7.52a.72.72,0,0,0-.26,0,2.79,2.79,0,0,0-.33.19A29.47,29.47,0,0,0,29.64,32.4c-.5,4.43.37,8.72,1.33,13A3.88,3.88,0,0,1,25.38,50c-3.46-1.52-6.94-3-10.42-4.49l-3.33-1.39C3.44,60.36,8,78.69,22.58,86.83a3.15,3.15,0,0,0,0-.62,14.62,14.62,0,0,1,1.29-9.09A90.09,90.09,0,0,1,34.6,59.47a3.64,3.64,0,0,1,6,.36c2.9,4.33,5.81,8.67,8.43,13.18C51.51,77.22,53.55,81.65,52.22,87ZM37.47,68.44C34.7,72.69,32,76.71,30.41,81.3a7.84,7.84,0,0,0-.19,4,7.48,7.48,0,0,0,9.56,5.24,7.29,7.29,0,0,0,4.68-9.67A66.61,66.61,0,0,0,37.47,68.44Z"/></g></g></svg>