<svg xmlns="http://www.w3.org/2000/svg" viewBox="0 0 100.56 115.58"><defs><style>.cls-1{fill:#104b39;}</style></defs><g id="Capa_2" data-name="Capa 2"><g id="Capa_1-2" data-name="Capa 1"><path class="cls-1" d="M100.51,47.49c0,13.84.13,27.67,0,41.51a27,27,0,0,1-26.19,26.49c-6,.18-11.91.05-17.87.05H5.53c-4.09,0-5.5-1.41-5.5-5.53Q0,70.57,0,31.15A6.63,6.63,0,0,1,2.12,26C10.37,17.88,18.54,9.63,26.83,1.5A5.5,5.5,0,0,1,30.33.07Q63.18-.06,96,0c2.93,0,4.5,1.76,4.51,4.88q0,21.3,0,42.59ZM8.66,34.27v72.57c.61,0,1.09.06,1.57.06H73a19.53,19.53,0,0,0,3.59-.26C86,104.82,92,97.34,92,87.42q0-38.43,0-76.87V8.74H34.29v2c0,6,0,12,0,18,0,3.91-1.57,5.46-5.48,5.47H8.66Zm6.63-8.77H25.56V15.2C22.11,18.66,18.7,22.07,15.29,25.5Z"/><path class="cls-1" d="M40.6,72.84l18.89-19L75.81,37.56a4.4,4.4,0,0,1,4.6-1.33,4.08,4.08,0,0,1,3,3.32c.38,1.87-.6,3.21-1.83,4.45Q69.72,55.79,57.94,67.59,51.24,74.28,44.55,81c-2.7,2.68-4.89,2.69-7.58,0q-7.78-7.78-15.56-15.56a4.41,4.41,0,0,1-1.35-4.59A4.06,4.06,0,0,1,23.4,57.9a4.51,4.51,0,0,1,4.19,1.57c3.91,3.92,7.83,7.82,11.72,11.75A16.93,16.93,0,0,1,40.6,72.84Z"/></g></g></svg>