<svg xmlns="http://www.w3.org/2000/svg" viewBox="0 0 64.75 115.1"><defs><style>.cls-1{fill:#104b39;}</style></defs><g id="Capa_2" data-name="Capa 2"><g id="Capa_1-2" data-name="Capa 1"><path class="cls-1" d="M64.75,56.65q0,22.4,0,44.77c0,8.46-5.21,13.67-13.66,13.67H13.51C5.3,115.09,0,109.82,0,101.62Q0,56.68,0,11.73C0,4.45,4.47,0,11.78,0h41c7.64,0,12,4.37,12,12.07Zm-61-42.17V89.82H61V14.48ZM61,10.71a7,7,0,0,0-7.27-7.08c-6.59,0-13.18,0-19.77,0-7.67,0-15.34,0-23,0a6.93,6.93,0,0,0-7.24,7.09ZM30.3,104.28c-2-1.31-3.31-3-3.31-5.42s1.43-4,3.69-5.23H3.73c-.54,6,3.09,10.51,8.62,10.62C18.33,104.37,24.32,104.28,30.3,104.28ZM61.07,93.65h-27c2.32,1.23,3.68,2.85,3.67,5.33s-1.49,4-3.83,5.31H51.26C57.72,104.28,61.42,100.31,61.07,93.65ZM4,104.48a8.77,8.77,0,0,0,9,7q14.19,0,28.39,0c3.65,0,7.31,0,11,0s8-3,8.27-6.81C57.5,107.39,53.89,108,50,107.93q-17.61-.12-35.22,0C10.87,108,7.26,107.39,4,104.48Zm27.89-3.56.76,0c.5-.63,1.29-1.19,1.45-1.89a1.44,1.44,0,0,0-1.6-1.84,2.45,2.45,0,0,0-1.74,1.52C30.65,99.41,31.45,100.19,31.86,100.92Z"/><path class="cls-1" d="M16.09,25.07c.22-1.47-.28-3.48,2-3.41,2.08.07,1.64,2,1.77,3.41H23.3c.2-1.42-.31-3.44,1.91-3.41s1.68,1.92,1.84,3.4h3.41c.29-1.33-.33-3.4,1.89-3.4s1.73,2,1.89,3.43h3.4c.32-1.35-.34-3.53,2-3.43,2.09.09,1.57,2,1.8,3.42h3.41c.19-1.46-.3-3.46,1.93-3.42s1.65,1.94,1.81,3.27c.13.08.22.19.33.2,5.36.36,6.8,1.89,6.8,7.25V77.86c0,2.7-.38,3.08-3.13,3.08H12c-2.59,0-3-.41-3-3Q9,55.25,9,32.6C9,27,10.34,25.51,16.09,25.07ZM12.65,66.4H52V37.92H12.65ZM27.06,28.87c-.19,1.45.32,3.45-1.91,3.43s-1.58-2.08-1.89-3.4h-3.4c-.16,1.43.3,3.23-1.66,3.39-2.52.21-1.73-2.15-2.19-3.44-3.08-.46-4,.51-3.12,5.22H52c.59-4.68,0-5.61-3.37-5.08-.15,1.31.33,3.22-1.73,3.31-2.35.11-1.77-2-2-3.38H41.43c-.14,1.5.27,3.38-1.85,3.38s-1.69-2-1.89-3.41H34.26c-.2,1.44.3,3.34-1.81,3.42-2.37.08-1.65-2.14-2-3.44Zm25,46.79H12.58l.16,1.59H52.06Zm0-5.38H12.69v1.56H52.07Z"/><path class="cls-1" d="M26.89,50.28V46.86A4.69,4.69,0,0,1,25,46.69c-.65-.37-1.55-1.12-1.5-1.63A2.49,2.49,0,0,1,25,43.27a8.61,8.61,0,0,1,3.91,0,2.72,2.72,0,0,1,1.58,1.94,61.26,61.26,0,0,1,.07,6.64c0,2.37-1.86,2-3.48,2.16v3.44c.62,0,1.33-.12,1.75.15.67.43,1.59,1.15,1.59,1.74a2.44,2.44,0,0,1-1.58,1.7,8.1,8.1,0,0,1-3.73,0,2.75,2.75,0,0,1-1.66-1.87,64.57,64.57,0,0,1-.07-6.82,1.85,1.85,0,0,1,2-2C25.88,50.34,26.34,50.31,26.89,50.28Z"/><path class="cls-1" d="M37.68,57.47V54.08c-1.33-.34-3.53.36-3.44-2,.09-2.06,2-1.64,3.42-1.75V46.83c-.65,0-1.36.14-1.79-.14-.66-.42-1.48-1.11-1.56-1.77s.83-1.53,1.43-1.65a10.43,10.43,0,0,1,4.09,0,2.51,2.51,0,0,1,1.47,1.87c.12,4.67.07,9.34.06,14a2.41,2.41,0,0,1,0,.54A1.9,1.9,0,0,1,39,61.13c-1.6-.25-3.69.95-4.63-1.25-.52-1.22.26-2.07,1.54-2.3A17.12,17.12,0,0,1,37.68,57.47Z"/><circle class="cls-1" cx="26.95" cy="7.22" r="1.78"/><rect class="cls-1" x="30.04" y="5.99" width="11.08" height="2.69" rx="1.35"/></g></g></svg>