<svg xmlns="http://www.w3.org/2000/svg" viewBox="0 0 119.81 125.71"><defs><style>.cls-1{fill:#104b39;}</style></defs><g id="Capa_2" data-name="Capa 2"><g id="Capa_1-2" data-name="Capa 1"><path class="cls-1" d="M110.05,94.38c2.36,5.9,4.63,11.63,7,17.33.69,1.69,1.21,3.36-.06,4.94s-2.88,1.38-4.61,1c-2.69-.58-5.39-1.11-8.1-1.49a2.77,2.77,0,0,0-2.15.78c-2,2.22-3.71,4.59-5.58,6.87-2.39,2.92-5.46,2.42-6.72-1.15-1.79-5.06-3.46-10.15-5.18-15.22A4.08,4.08,0,0,0,79.79,105c-.13,0-.24.11-.37.14a7.32,7.32,0,0,0-6,6.1,112.1,112.1,0,0,1-3.71,11.25c-1.27,3.67-4.34,4.25-6.83,1.26-1.85-2.21-3.64-4.47-5.4-6.76a2,2,0,0,0-2.35-.91c-2.81.65-5.66,1.07-8.49,1.64-1.61.33-3.1.26-4.22-1.1s-.88-2.84-.25-4.36c1.06-2.59,2.07-5.2,3.19-8.06H42.94q-17.1,0-34.22,0C3,104.21,0,101.2,0,95.55v-87C0,3.17,3.06,0,8.44,0Q41.56,0,74.68,0C80,0,83,3.17,83,8.43c0,7.31,0,14.63.06,22a3.58,3.58,0,0,0,1.14,2.19,83.72,83.72,0,0,0,6.49,5.72,6.72,6.72,0,0,0,3.55,1.31c2.47.12,5-.19,7.44-.22A6.21,6.21,0,0,1,108.39,45c.42,2.58.65,5.2,1.17,7.75a5.09,5.09,0,0,0,1.5,2.63c2,1.73,4.11,3.24,6.15,4.88a6.31,6.31,0,0,1,1.54,8.62C117.52,71,116.27,73,114.89,75a4.79,4.79,0,0,0-.74,4.18q.76,3.23,1.4,6.48C116.38,90,115,92.39,111,94,110.71,94.1,110.47,94.21,110.05,94.38ZM52.33,49.76c.25-1.52.48-2.9.69-4.28.64-4.2,3-6.2,7.28-6.1,2.35,0,4.7.34,7,.23a6.39,6.39,0,0,0,3.37-1.26A81.72,81.72,0,0,0,77,32.74a3.6,3.6,0,0,0,1.14-2.25c.08-7.38.06-14.77,0-22.15,0-2.47-1-3.55-3.56-3.55q-33.14,0-66.26,0c-2.51,0-3.58,1.11-3.58,3.55q0,43.82,0,87.63c0,2.36,1,3.4,3.44,3.43,2.75,0,5.5,0,8.25,0,9.74,0,19.47,0,29.21,0a2.51,2.51,0,0,0,1.91-.83,40.8,40.8,0,0,0,1.87-4.49c-1.65-2.29-3.8-2.31-6.08-2.29-8.86.07-17.72,0-26.58,0-.61,0-1.36.2-1.78-.08-.81-.54-1.93-1.32-2-2.09s.85-1.81,1.61-2.36A4.3,4.3,0,0,1,17,87c8.93,0,17.86,0,26.79-.06.69,0,1.85-.47,2-1a69.53,69.53,0,0,0,1.74-8,4.36,4.36,0,0,0-4.34-4.72H16.81a10.77,10.77,0,0,1-1.61,0A2.34,2.34,0,0,1,13,70.77a2.24,2.24,0,0,1,2.26-2.35c.53,0,1.07,0,1.61,0H42.31c-1.52-4.15,0-6.94,3.26-9.17C47.46,57.92,49.2,56.39,51,55l-.16-.44h-34c-.73,0-1.66.18-2.15-.19C14,53.75,13,52.75,13.05,52s1.13-1.6,1.93-2.13c.48-.31,1.31-.09,2-.09H52.33Zm12.16-5.3v-.25c-1.41,0-2.83.09-4.23,0-1.73-.14-2.42.66-2.59,2.28-.23,2.27-.6,4.52-.86,6.79a8,8,0,0,1-3.49,6.05c-1.93,1.33-3.68,2.92-5.58,4.3-1.38,1-1.51,2-.57,3.39,1.38,2,2.58,4.23,4,6.28a7.37,7.37,0,0,1,1.08,6c-.52,2.5-1,5-1.64,7.47-.38,1.47,0,2.28,1.47,2.72,2.44.74,4.83,1.63,7.27,2.35a7.53,7.53,0,0,1,4.88,4.15c1.1,2.23,2.37,4.37,3.48,6.59.68,1.37,1.57,1.63,2.94,1a59.37,59.37,0,0,1,7.48-2.92,10.76,10.76,0,0,1,5.23,0,49.08,49.08,0,0,1,7.28,2.86c1.65.73,2.6.32,3.37-1.28,1.09-2.3,2.38-4.51,3.56-6.77a6.78,6.78,0,0,1,4.19-3.5c2.56-.79,5.08-1.7,7.64-2.49,1.33-.41,1.86-1.09,1.51-2.53-.58-2.4-1-4.86-1.53-7.27a8,8,0,0,1,1.19-6.7c1.38-2,2.57-4.09,3.86-6.13a2,2,0,0,0-.56-3.12c-2-1.52-4-3.16-6-4.67a7.56,7.56,0,0,1-3.08-5.64c-.26-2.4-.64-4.78-1-7.18a2,2,0,0,0-2.42-2c-2.48.16-5,.11-7.44.27a7.54,7.54,0,0,1-6-2.18c-1.59-1.54-3.28-3-4.92-4.46-2.13-1.91-2.24-1.91-4.3-.07-1.8,1.61-3.62,3.21-5.4,4.84a6.85,6.85,0,0,1-5.14,1.88C66.91,44.42,65.7,44.46,64.49,44.46Zm4.8,64.35c-3.38-.34-5.16-2.35-6.39-5.07-.61-1.34-1.54-2.55-2-3.92-1.11-3.15-3.62-4-6.7-4.45-2.29,5.7-4.57,11.4-7,17.41,3.08-.61,5.72-1,8.3-1.68a4,4,0,0,1,4.85,1.73c1.56,2.22,3.37,4.26,5.33,6.71ZM105.51,96a4.59,4.59,0,0,0-4.38,2.89C100.18,101,99,103,97.87,105.1a6.37,6.37,0,0,1-4.63,3.52,19.23,19.23,0,0,1-3.16,0c1.26,3.7,2.41,7.13,3.69,10.9,1.87-2.35,3.57-4.25,5-6.34s3.17-2.72,5.67-2,4.94,1,7.78,1.52Z"/><path class="cls-1" d="M40,35.79c-8.11,0-16.23.05-24.34-.07a3.75,3.75,0,0,1-2.56-1.67c-.3-.47.23-1.88.8-2.37A4.37,4.37,0,0,1,16.55,31C22,31,27.42,31,32.85,31h30c.54,0,1.08,0,1.61,0,1.61.11,2.79.83,2.71,2.57s-1.21,2.22-2.77,2.21Q52.19,35.77,40,35.79Z"/><path class="cls-1" d="M25.5,17.21c-3.21,0-6.42,0-9.63,0-1.64,0-2.76-.64-2.94-2.34-.15-1.44,1.11-2.48,3-2.49,6.42,0,12.84,0,19.26,0,1.62,0,2.76.67,2.94,2.37.15,1.46-1.08,2.44-3,2.45C31.92,17.23,28.71,17.21,25.5,17.21Z"/><path class="cls-1" d="M101.29,70.2A20.56,20.56,0,1,1,80.74,49.58,20.54,20.54,0,0,1,101.29,70.2ZM65,70.16A15.78,15.78,0,1,0,80.69,54.38,15.9,15.9,0,0,0,65,70.16Z"/><path class="cls-1" d="M77.67,71.85c3-2.93,5.74-5.64,8.48-8.38,1.14-1.14,2.41-1.63,3.7-.48a2.25,2.25,0,0,1,0,3.55Q84.66,71.85,79.4,77.1c-1.3,1.29-2.63,1.17-3.81-.21-1.39-1.63-2.77-3.27-4.08-5-.94-1.21-1-2.55.28-3.54s2.51-.6,3.51.61Z"/></g></g></svg>