<svg xmlns="http://www.w3.org/2000/svg" viewBox="0 0 76.41 109.93"><defs><style>.cls-1{fill:#104b39;}</style></defs><g id="Capa_2" data-name="Capa 2"><g id="Capa_1-2" data-name="Capa 1"><path class="cls-1" d="M76.28,71.13a11.52,11.52,0,0,0-5.75-6.65,6.68,6.68,0,0,0-5-.29c0-.24,0-.48.08-.73.09-.81.18-1.64.23-2.49a4.12,4.12,0,0,0-2-4.14,3.22,3.22,0,0,0-3.76.66l-.29.22a3.53,3.53,0,0,1-3.66,0c-1-.86-1.94-1.79-2.87-2.7-.39-.37-.77-.75-1.2-1.15A5.46,5.46,0,0,0,52.25,51a12.06,12.06,0,0,0-4.11-6.53L48,44.27l.12-.16.72-.9A28.46,28.46,0,0,1,50.66,41a7.15,7.15,0,0,0,2.05-5.91,3,3,0,0,1,.37-1.81c1.74-2.55,3.67-4,6.05-4.39a18.82,18.82,0,0,0,4.44-1.48,5,5,0,0,0,3.06-4.81,2.67,2.67,0,0,1,.73-2.05,6.26,6.26,0,0,0,.78-1.14,4,4,0,0,0,.42-3.81,3.85,3.85,0,0,0-3.19-2c-.8-.12-1.6-.19-2.37-.26s-1.67-.14-2.49-.28c-2.46-.43-5-.87-7.68.09-.34.13-.46.06-.61-.16-2.29-3.16-4.06-5.55-5.76-7.75A37.38,37.38,0,0,0,43.52,2,6.64,6.64,0,0,0,38.47,0a3.46,3.46,0,0,0-3,1.28,3.51,3.51,0,0,0-.17,3.33,1.86,1.86,0,0,1,.1,1c-.81,1.94-1.78,3.85-2.53,5.3a6,6,0,0,1-4.94,3.39c-4.14.53-7.41,2.85-9.71,6.91l-.46.81a29.91,29.91,0,0,1-1.88,3.09,17.06,17.06,0,0,1-2.33,2.52c-.43-.27-.86-.6-1.33-1s-.87-.66-1.34-1a1.11,1.11,0,0,1-.63-1.32,7.73,7.73,0,0,0-.08-2.74A3.33,3.33,0,0,0,8.3,19.05a3.36,3.36,0,0,0-3.17.41A11.7,11.7,0,0,0,3.19,21C-.46,24.48-1,28.6,1.65,32.9a3.67,3.67,0,0,1,.56,1.77,6.34,6.34,0,0,0,2.63,5.15l.4.31a13.44,13.44,0,0,0,2.26,1.5,8.46,8.46,0,0,1,3.24,3.17,49.09,49.09,0,0,1,6.55,12.6A11.58,11.58,0,0,0,19,60.66a40,40,0,0,1,5.51,10.67,9.25,9.25,0,0,0,4.43,5.6l.38.23.43.27a1.79,1.79,0,0,1,1,2.24,8.22,8.22,0,0,0,2.86,8.44,25.89,25.89,0,0,1,3.31,3.42,12.94,12.94,0,0,0,6.73,4.76c4.29,1.25,8.1,3.72,11.8,6.12l.31.2a3.78,3.78,0,0,1,1.65,2,7.55,7.55,0,0,0,2.91,3.83,7.36,7.36,0,0,0,4,1.53h0a4.07,4.07,0,0,0,1-.12c1.46-.36,2.64-1.46,3.72-3.48.28-.53.56-1.06.83-1.59a27.34,27.34,0,0,1,3.31-5.38c1.62-1.91,1.55-3.86-.22-6-.47-.55-1-1.08-1.43-1.55a10.11,10.11,0,0,0,1-1.28,14.75,14.75,0,0,0,2.6-10c-.07-.64-.1-1.31-.13-2,0-.51-.05-1-.09-1.55a3.71,3.71,0,0,1,.61-2.14A5.24,5.24,0,0,0,76.28,71.13ZM15.55,32.06a18.87,18.87,0,0,0,3.68-3.37,32.54,32.54,0,0,0,2.55-4l.6-1.06C24,20.79,26,19.38,28.76,19a10.12,10.12,0,0,0,8.08-5.42l.25-.47a57.23,57.23,0,0,0,2.59-5.2,11,11,0,0,0,.62-2.47l.18.2c1,1.13,2,2.3,2.86,3.46,1.55,2,3.08,4.14,4.57,6.16l.49.67A4.94,4.94,0,0,0,54,17.81a10.66,10.66,0,0,1,5.11-.1,24.18,24.18,0,0,0,2.89.34l1.1.1c0,.1-.1.19-.14.29l-.17.38a8.8,8.8,0,0,0-.93,3.12c0,.89-.31,1.16-.82,1.35a22.15,22.15,0,0,1-3.35,1c-3.77.79-6.74,3.12-9.1,7.14a7.61,7.61,0,0,0-.72,4.09,2.69,2.69,0,0,1-.78,2.19c-1,1-1.86,2.15-2.61,3.1a9.09,9.09,0,0,0-.9,1.49l-.12.22a3.85,3.85,0,0,0,.76,4.9l.56.54a8.67,8.67,0,0,1,2.63,3.54c.16.53.12.58,0,.68a3,3,0,0,0,.31,4.12L49,57.49a60.86,60.86,0,0,0,4.58,4.32c1.83,1.5,5,1.58,7.3.74,0,.18,0,.35-.07.53-.06.49-.14,1-.16,1.61a4.09,4.09,0,0,0,5.48,4.45,4.33,4.33,0,0,1,5.44,3c-1.87,2.51-1.57,5.29-1.31,7.75l.07.62A10.16,10.16,0,0,1,69,87a8.37,8.37,0,0,1-1.52,1.73,3.34,3.34,0,0,0-.24,5.64c.67.7,1.36,1.42,2.07,2.11a23.52,23.52,0,0,0-3.72,5.93c-.28.57-.57,1.15-.87,1.72a3.32,3.32,0,0,1-.56.87,3.18,3.18,0,0,1-.89-.52A4.19,4.19,0,0,1,62,102.91a9.51,9.51,0,0,0-3.76-4.42l-.39-.26c-3.95-2.55-8-5.2-12.82-6.55a8.57,8.57,0,0,1-4.44-3.27A25.45,25.45,0,0,0,37,84.7a3.94,3.94,0,0,1-1.53-4.15,6.22,6.22,0,0,0-3.29-7.26c-2-1.05-2.77-2.78-3.55-4.76a59,59,0,0,0-3.49-7c-.47-.83-.95-1.7-1.4-2.56-.26-.48-.55-.94-.85-1.41a9.34,9.34,0,0,1-1.11-2.07,55.08,55.08,0,0,0-6.89-13.27,12.1,12.1,0,0,0-5.28-5,4.26,4.26,0,0,1-.7-.45c-.19-.14-.38-.28-.57-.4A2.56,2.56,0,0,1,7,34.15a8.43,8.43,0,0,0-1.31-3.87A4.54,4.54,0,0,1,5,26.78a3.67,3.67,0,0,1,.37-1A4,4,0,0,0,7,28.75l.8.61c1.17.9,2.37,1.82,3.58,2.7A3.38,3.38,0,0,0,15.55,32.06Z"/></g></g></svg>