<svg xmlns="http://www.w3.org/2000/svg" viewBox="0 0 152.86 115.35"><defs><style>.cls-1{fill:#104b39;}</style></defs><g id="Capa_2" data-name="Capa 2"><g id="Capa_1-2" data-name="Capa 1"><path class="cls-1" d="M132,101.26H20.89A20.92,20.92,0,0,1,0,80.37V20.89A20.91,20.91,0,0,1,20.89,0H132a20.91,20.91,0,0,1,20.89,20.89V80.37A20.92,20.92,0,0,1,132,101.26ZM20.89,9.42A11.49,11.49,0,0,0,9.42,20.89V80.37A11.49,11.49,0,0,0,20.89,91.84H132a11.49,11.49,0,0,0,11.47-11.47V20.89A11.49,11.49,0,0,0,132,9.42Z"/><rect class="cls-1" x="52.75" y="105.73" width="47.35" height="9.62"/><path class="cls-1" d="M85.09,32.76,80.44,57.59H72.33L67.77,33.1V19.16H85.09Zm0,46.54H67.77V62H85.09Z"/></g></g></svg>