<svg xmlns="http://www.w3.org/2000/svg" viewBox="0 0 58.69 89.3"><defs><style>.cls-1{fill:#104b39;}</style></defs><g id="Capa_2" data-name="Capa 2"><g id="Capa_1-2" data-name="Capa 1"><path class="cls-1" d="M47.32,89.3h-36A11.38,11.38,0,0,1,0,77.94V11.36A11.38,11.38,0,0,1,11.36,0h36A11.38,11.38,0,0,1,58.69,11.36V77.94A11.38,11.38,0,0,1,47.32,89.3Zm-36-84.53a6.6,6.6,0,0,0-6.59,6.59V77.94a6.6,6.6,0,0,0,6.59,6.59h36a6.6,6.6,0,0,0,6.59-6.59V11.36a6.6,6.6,0,0,0-6.59-6.59Z"/><circle class="cls-1" cx="29.34" cy="74.93" r="5.08"/><path class="cls-1" d="M45.06,66.57H13.63a4.77,4.77,0,0,1-4.76-4.76V14.31a4.76,4.76,0,0,1,4.76-4.76H45.06a4.76,4.76,0,0,1,4.76,4.76v47.5A4.77,4.77,0,0,1,45.06,66.57ZM13.63,12.2a2.11,2.11,0,0,0-2.1,2.11v47.5a2.1,2.1,0,0,0,2.1,2.1H45.06a2.1,2.1,0,0,0,2.1-2.1V14.31a2.11,2.11,0,0,0-2.1-2.11Z"/></g></g></svg>