<svg xmlns="http://www.w3.org/2000/svg" viewBox="0 0 66.26 43.81"><defs><style>.cls-1{fill:#f8f8f8;}</style></defs><g id="Capa_2" data-name="Capa 2"><g id="Capa_2-2" data-name="Capa 2"><path class="cls-1" d="M23.46,0A21.78,21.78,0,0,0,4.27,32.08l-4,8.48a2.27,2.27,0,0,0,2.05,3.25,2.56,2.56,0,0,0,.47,0L14,41.39A21.78,21.78,0,1,0,23.46,0ZM43.22,20l-9.77,0A41.68,41.68,0,0,0,28.61,2.63,19.86,19.86,0,0,1,43.22,20ZM26,2.11a.76.76,0,0,0,.08.21A38.52,38.52,0,0,1,31.46,20l-16.58.07A34.27,34.27,0,0,1,20.61,2.16h0a20.41,20.41,0,0,1,2.84-.22A20.08,20.08,0,0,1,26,2.11Zm-8.13.62A37.89,37.89,0,0,0,13,20.1l-9.29,0A19.87,19.87,0,0,1,17.91,2.73Zm-2.44,37.2c-.42-.18-.83-.38-1.23-.59s-.67-.46-1.13-.37a15.28,15.28,0,0,0-1.58.51c-1.65.53-3.21,1-5,1.44-1.37.31-2.56.54-3.84.81l-.39.08a.26.26,0,0,1-.27-.1.25.25,0,0,1,0-.28l2.86-6c.52-1,1.05-2,1.55-3.07a.9.9,0,0,0,.08-.23.69.69,0,0,0-.15-.41A4.18,4.18,0,0,1,6,31c-.22-.39-.42-.79-.61-1.2a18,18,0,0,1-1-2.56,19.3,19.3,0,0,1-.77-5.13l9.36,0a35.53,35.53,0,0,0,6.46,19.12c-.49-.11-1-.23-1.47-.37A18.73,18.73,0,0,1,15.47,39.93Zm6.69,1.66C17,34.65,15.1,28,14.89,22.1L31.5,22a36.08,36.08,0,0,1-5.82,19.38.38.38,0,0,0,0,.1,19.82,19.82,0,0,1-2.19.12C23,41.63,22.59,41.62,22.16,41.59ZM28.24,41a37.76,37.76,0,0,0,5.25-19l9.81,0A19.86,19.86,0,0,1,28.24,41Z"/><polygon class="cls-1" points="60.43 29.42 66.25 19.34 54.61 19.34 60.43 29.42"/></g></g></svg>