<svg xmlns="http://www.w3.org/2000/svg" viewBox="0 0 22.94 22.94"><defs><style>.cls-1{fill:#4d9b83;}</style></defs><g id="Capa_2" data-name="Capa 2"><g id="Capa_1-2" data-name="Capa 1"><path class="cls-1" d="M17.54,4.1a1.35,1.35,0,0,0,0,2.69,1.35,1.35,0,1,0,0-2.69Z"/><path class="cls-1" d="M11.56,5.82a5.65,5.65,0,1,0,5.65,5.65A5.66,5.66,0,0,0,11.56,5.82Zm0,9.27a3.62,3.62,0,1,1,3.62-3.62A3.63,3.63,0,0,1,11.56,15.09Z"/><path class="cls-1" d="M16.05,22.94H6.89A6.9,6.9,0,0,1,0,16.05V6.89A6.9,6.9,0,0,1,6.89,0h9.16a6.9,6.9,0,0,1,6.89,6.89v9.16A6.9,6.9,0,0,1,16.05,22.94ZM6.89,2.16A4.73,4.73,0,0,0,2.16,6.89v9.16a4.73,4.73,0,0,0,4.73,4.73h9.16a4.73,4.73,0,0,0,4.73-4.73V6.89a4.73,4.73,0,0,0-4.73-4.73Z"/></g></g></svg>