<svg xmlns="http://www.w3.org/2000/svg" viewBox="0 0 11.23 11.2"><defs><style>.cls-1{fill:#104b39;}</style></defs><g id="Capa_2" data-name="Capa 2"><g id="Capa_1-2" data-name="Capa 1"><path class="cls-1" d="M7,5.09A.64.64,0,0,0,6.87,5h0l0,0L4.66,3.13A.48.48,0,0,0,4,3.2a.49.49,0,0,0,.07.68l1.21,1H.48a.48.48,0,1,0,0,1h5L4.32,7.12A.48.48,0,1,0,5,7.76L6.91,5.64A.49.49,0,0,0,7,5.09Z"/><path class="cls-1" d="M6,0a.58.58,0,0,0-.58.58v0A.59.59,0,0,0,6,1.21h4.15V10H6a.59.59,0,0,0-.59.59v0A.59.59,0,0,0,6,11.2h5.2V0H6Z"/></g></g></svg>