<svg xmlns="http://www.w3.org/2000/svg" viewBox="0 0 229.95 60.87"><defs><style>.cls-1{fill:#f8f8f8;}</style></defs><g id="Capa_2" data-name="Capa 2"><g id="Capa_1-2" data-name="Capa 1"><polygon class="cls-1" points="186.88 14.66 186.88 22.19 195.82 14.66 186.88 14.66"/><path class="cls-1" d="M64.88,14.66h-13V44.49H61V35.27h5.69a12.39,12.39,0,0,0,8.15-2.53c2.06-1.69,3.08-4.19,3.08-7.48Q77.91,14.66,64.88,14.66Zm.51,13.66H61V22h4.23c2.62,0,3.94,1.06,3.94,3.18S67.9,28.32,65.39,28.32Z"/><path class="cls-1" d="M95.85,13.86q-7,0-11.15,4.3T80.51,29.53q0,7.08,4.19,11.38A14.76,14.76,0,0,0,95.76,45.2a14.36,14.36,0,0,0,10.87-4.31q4.14-4.32,4.13-11.32t-4.1-11.37A14.22,14.22,0,0,0,95.85,13.86ZM100,35.59a4.84,4.84,0,0,1-4.28,2.2,5.09,5.09,0,0,1-4.4-2.2,10.65,10.65,0,0,1-1.55-6.18,10.25,10.25,0,0,1,1.57-6,5.07,5.07,0,0,1,4.34-2.18A5,5,0,0,1,100,23.31a9.81,9.81,0,0,1,1.53,5.84A11.71,11.71,0,0,1,100,35.59Z"/><polygon class="cls-1" points="123.92 14.66 114.74 14.66 114.74 44.49 137.16 44.49 137.16 36.7 123.92 36.7 123.92 14.66"/><rect class="cls-1" x="141.13" y="14.66" width="9.13" height="29.83"/><path class="cls-1" d="M169.29,37.49a4.9,4.9,0,0,1-4.21-2.13,9.93,9.93,0,0,1-1.53-5.87,13.45,13.45,0,0,1,.5-3.73,6.63,6.63,0,0,1,1.87-3,5.13,5.13,0,0,1,6.55-.19,5.19,5.19,0,0,1,1.64,3.1H183a11.78,11.78,0,0,0-4.21-8.4,13.71,13.71,0,0,0-9.32-3.38,14.33,14.33,0,0,0-10.92,4.47,15.55,15.55,0,0,0-4.21,11.12,16,16,0,0,0,4.11,11.23,14,14,0,0,0,10.85,4.48,14.32,14.32,0,0,0,9.57-3.27c2.59-2.17,4-5.25,4.26-9.21h-9C173.63,35.9,172,37.49,169.29,37.49Z"/><polygon class="cls-1" points="186.88 26.05 186.88 44.49 196.02 44.49 196.02 18.34 186.88 26.05"/><path class="cls-1" d="M218.06,14.66H209L198,44.49h9.26l1.46-4.23h9.6l1.47,4.23H229Zm-7.38,19.19q1-3,1.64-5.07c.39-1.26.81-2.78,1.25-4.57.4,1.82.77,3.32,1.14,4.53l1.59,5.11Z"/><polygon class="cls-1" points="167.21 56.63 169.49 56.63 168.38 53.48 167.21 56.63"/><path class="cls-1" d="M43.75,50.44v10.2H230V50.44ZM58.29,56.1a2.47,2.47,0,0,1-1.78.63H54.4V59.6H53.09V52.13h3.25a2.93,2.93,0,0,1,1.9.57,2.07,2.07,0,0,1,.7,1.71A2.25,2.25,0,0,1,58.29,56.1Zm28.22,3.5H81.06V52.13h5.39v1.1H82.36v2h3.79v1.06H82.36v2.21h4.15Zm27.09,0-.06-.1s0-.08-.05-.13l0-.12a1.37,1.37,0,0,0,0-.16,1.15,1.15,0,0,1,0-.16l0-.19,0-.19s0-.11,0-.22a2.13,2.13,0,0,1,0-.22,1.92,1.92,0,0,0-.39-1.25,1.72,1.72,0,0,0-1.25-.34H110V59.6h-1.3V52.13h3.53a3,3,0,0,1,1.82.5,1.8,1.8,0,0,1,.7,1.58,2.07,2.07,0,0,1-.32,1.15,1.83,1.83,0,0,1-.92.68,1.92,1.92,0,0,1,.48.19,1.71,1.71,0,0,1,.31.27,1.49,1.49,0,0,1,.18.38,3,3,0,0,1,.1.41c0,.11,0,.26,0,.45s0,.15,0,.29,0,.23,0,.27,0,.13,0,.24,0,.19,0,.24,0,.11,0,.2a1.93,1.93,0,0,0,.05.2s0,.09,0,.15a.52.52,0,0,0,.07.15.4.4,0,0,0,.1.12Zm29.55-2.9a2.7,2.7,0,0,1-3.05,3A2.69,2.69,0,0,1,137,56.68V52.13h1.31V57a1.56,1.56,0,0,0,1.79,1.72,2.28,2.28,0,0,0,.9-.15,1.05,1.05,0,0,0,.52-.45,2.07,2.07,0,0,0,.23-.66,5.22,5.22,0,0,0,.06-.87V52.13h1.32Zm27.4,2.9-.71-2h-3l-.74,2h-1.35l2.88-7.48h1.4L172,59.6Zm29.17,0h-1.36l-3.48-5.5v5.5h-1.24V52.13H195l3.44,5.51V52.13h1.26Zm27.41,0-.71-2h-3l-.73,2h-1.36l2.89-7.48h1.39l2.89,7.48Z"/><path class="cls-1" d="M112.94,53.4a1.6,1.6,0,0,0-.48-.16,3.3,3.3,0,0,0-.58,0H110v2.34h1.73a3.9,3.9,0,0,0,.64,0,2.63,2.63,0,0,0,.53-.15.82.82,0,0,0,.41-.37,1.52,1.52,0,0,0,0-1.23A.78.78,0,0,0,112.94,53.4Z"/><path class="cls-1" d="M56.11,53.22H54.4v2.45h1.83c1,0,1.43-.41,1.43-1.23S57.14,53.22,56.11,53.22Z"/><polygon class="cls-1" points="223.8 56.63 226.07 56.63 224.96 53.48 223.8 56.63"/><path class="cls-1" d="M43.75,60.64l-16.21,0-.06-.11a27.78,27.78,0,0,0,5.34-.87,29.21,29.21,0,0,0,4.79-2.49,4.4,4.4,0,0,0,.52-.37,2.51,2.51,0,0,0,2.1.43,3.82,3.82,0,0,0,1.71-1.34c.18-.34.06-.54-.07-.6a1.17,1.17,0,0,1-.49-.35c-.09-.15-.36-.81-.36-.81l2.27-2.85.57-.77,3.16,4Z"/><path class="cls-1" d="M12.71,49.85a.87.87,0,0,1,.2-.23c0-.11-.05-.2-.08-.3a4.32,4.32,0,0,0-.16-.51,1,1,0,0,0-.83-.67c-.13,0-.18-.06-.18-.18s0-.32,0-.49a2.82,2.82,0,0,1-.23.8l.52.15a.8.8,0,0,1,.55.59c.08.26.14.52.21.78A.11.11,0,0,1,12.71,49.85Z"/><path class="cls-1" d="M49.6,28.86c0-1-.11-2-.22-3A35.87,35.87,0,0,0,48.44,21a33.62,33.62,0,0,0-2.13-5.83,30.68,30.68,0,0,0-3.66-5.92.22.22,0,0,1,0-.3c.29-.45.56-.9.84-1.35.14-.24.13-.48,0-.58s-.35,0-.51.19l-.82,1c-.13.16-.17.16-.31,0s-.52-.61-.8-.89a28.74,28.74,0,0,0-2.76-2.53A24.78,24.78,0,0,0,34.16,2.2,21.08,21.08,0,0,0,30.31.73,19.78,19.78,0,0,0,25.24,0c-.79,0-1.59,0-2.39.1a18.88,18.88,0,0,0-4,.8,22.07,22.07,0,0,0-4.56,2A23.59,23.59,0,0,0,10.12,6C9.52,6.52,9,7.11,8.37,7.68L8,8.11c-.32-.41-.6-.79-.9-1.16-.16-.21-.38-.27-.51-.19s-.16.31,0,.54.36.62.54.93.29.35.28.51-.21.34-.33.5a31.34,31.34,0,0,0-2.9,4.41,32.07,32.07,0,0,0-2,4.6,35.33,35.33,0,0,0-1.57,6A36.48,36.48,0,0,0,0,29.44c0,1.11,0,2.22.07,3.32S.26,34.93.41,36a31.93,31.93,0,0,0,1.35,5.8,33.05,33.05,0,0,0,2.94,6.5,29,29,0,0,0,3.24,4.48.2.2,0,0,1,0,.27c-.14.22-.27.45-.4.68a.67.67,0,0,1-.54.43c-.24,0-.45.38-.36.54a6.48,6.48,0,0,0,.7,1,4.07,4.07,0,0,0,1.72,1,1.74,1.74,0,0,0,.5.12,2.6,2.6,0,0,0,1.82-.57c.1-.09.18-.06.27,0a23.06,23.06,0,0,0,3.9,2.42,21,21,0,0,0,3.68,1.4,19.87,19.87,0,0,0,4.66.74,21,21,0,0,0,4.27-.28A21.32,21.32,0,0,0,33.4,59a23.92,23.92,0,0,0,4.12-2.42.23.23,0,0,1,.21,0,2.5,2.5,0,0,0,2.56.32,3.71,3.71,0,0,0,2.06-1.75A.46.46,0,0,0,42,54.4a.59.59,0,0,1-.45-.36,5.7,5.7,0,0,0-.3-.54c-.12-.16-.07-.26,0-.39a25.94,25.94,0,0,0,2.33-2.9,32,32,0,0,0,2.88-5.06,34.64,34.64,0,0,0,1.94-5.51,36.73,36.73,0,0,0,.81-4,37.37,37.37,0,0,0,.35-4.1C49.65,30.62,49.64,29.73,49.6,28.86Zm-7.74-20c.4-.51.8-1,1.2-1.53a2.41,2.41,0,0,1,.24-.21l.06,0a1.29,1.29,0,0,1,0,.21L41.93,9.65l0,0C41.56,9.26,41.56,9.26,41.86,8.89ZM9.23,7.23a24.13,24.13,0,0,1,6.6-4.81A20.65,20.65,0,0,1,21.67.55,19.6,19.6,0,0,1,25.42.3,20.87,20.87,0,0,1,35.87,3.5a25.15,25.15,0,0,1,5.79,5s0,.06.08.11L41.42,9c-.51-.55-1-1.1-1.49-1.62a20.88,20.88,0,0,0-8.61-5.48,23.78,23.78,0,0,0-4.58-1,19.14,19.14,0,0,0-6,.38,20.37,20.37,0,0,0-10,5.22c-.68.65-1.31,1.36-2,2l-.2.23-.38-.49C8.55,8,8.88,7.58,9.23,7.23Zm-2.44.06A2.23,2.23,0,0,1,6.67,7l.06,0a1,1,0,0,1,.2.15L8.43,9l-.35.41-.56-.92ZM8.25,53.35a4.69,4.69,0,0,1,.86-.45c.48-.17,1-.3,1.46-.45l.13,0A3,3,0,0,1,8,53.69C8.06,53.57,8.13,53.42,8.25,53.35Zm1.38-1.53c.52-.19,1-.33,1.58-.5h.1c-.42.74-2,1.54-2.73,1.23a2.15,2.15,0,0,1,.31-.35A3.45,3.45,0,0,1,9.63,51.82Zm-.06-.37c.27-.36.52-.75.82-1.08s.59-.33,1,0l.28.24a1,1,0,0,1-.63.55l-1.38.34ZM7.73,54.27c.06-.11.18-.27.27-.26a3.88,3.88,0,0,0,1.36-.22h.08l.05.07c-.26.24-.51.51-.79.72a.66.66,0,0,1-.82,0C7.78,54.48,7.65,54.41,7.73,54.27Zm2.77,1.18a2.2,2.2,0,0,1-2.37-.53,1.5,1.5,0,0,0,1.2-.52Zm30.88-1c.07.18-.06.26-.19.34a.71.71,0,0,1-.73,0,2.24,2.24,0,0,1-.82-.85l.29,0c.36.05.71.12,1.07.16A.44.44,0,0,1,41.38,54.48ZM39.9,52.83a3.47,3.47,0,0,1-2-1.22.24.24,0,0,1,0-.09c1.2.16,2.55.81,2.7,1.32A3.39,3.39,0,0,1,39.9,52.83Zm1.1.83a1.4,1.4,0,0,1,.15.24,2.9,2.9,0,0,1-2.68-1.29l.49.16,1,.32A2.55,2.55,0,0,1,41,53.66Zm-2.9-2.35a1,1,0,0,1-.57-.56,5,5,0,0,1,.66-.4.52.52,0,0,1,.41.09,2.42,2.42,0,0,1,.5.51c.18.23.31.49.46.72C39.07,51.55,38.58,51.44,38.1,51.31ZM38.25,53l1.39,1.46-1.21,1.07a6.59,6.59,0,0,1-1.54-1.7A2.52,2.52,0,0,0,38.25,53Zm1.54,1.67c.53.44.52.47,1.14.55a2.14,2.14,0,0,1-2.3.47Zm9.53-23a35,35,0,0,1-3.68,14.66,29.88,29.88,0,0,1-4.43,6.5l-.15.16-1.18-1.6a2.19,2.19,0,0,1-.25-.2,4.52,4.52,0,0,1-.49-.74,4.31,4.31,0,0,1-.6-.82s0,0,0-.05l0,.09a.4.4,0,0,1-.11.2,2.45,2.45,0,0,1-1.44.74.71.71,0,0,0-.47.23c-.39.44-.79.88-1.2,1.31a1.62,1.62,0,0,1,.19.18l.1-.09c.09.18.18.34.27.51A10.58,10.58,0,0,0,38,55.48a2,2,0,0,0,2.37.38,3.42,3.42,0,0,0,1.42-1.13c.08-.11.16-.19.3-.09s.21.18.12.36a3.61,3.61,0,0,1-1.92,1.64,2.36,2.36,0,0,1-1.63.11,1.63,1.63,0,0,1-.89-.53l-.6-.77a1.32,1.32,0,0,1,0,.34l0,.09h0l.29.37A20.63,20.63,0,0,1,11.82,56l0-.06a.83.83,0,0,1-.36-.11l-.13.18a1.94,1.94,0,0,1-1.5.63,2.28,2.28,0,0,1-1.18-.3,3.25,3.25,0,0,1-1.75-1.59.33.33,0,0,1,0-.24c.14-.21.29-.2.43,0a3.36,3.36,0,0,0,2.37,1.38,1.34,1.34,0,0,0,.93-.26l.34-.24a1.15,1.15,0,0,1-.11-.29l-.22.19-1.09-1a.23.23,0,0,1,0-.2c.16-.19.34-.37.51-.55l.79-.8,0,0a.76.76,0,0,1,.35-.58v0c.06-.15.12-.31.19-.46a7.36,7.36,0,0,1,.57-.88.92.92,0,0,1,.54-.39.32.32,0,0,0-.16,0,2.34,2.34,0,0,1-1.52-.74.81.81,0,0,1-.09-.1,5.31,5.31,0,0,1-1.1,1.38,2.12,2.12,0,0,1-.81.4h.19l-.91,1.25c-.18-.21-.37-.42-.54-.63a31.62,31.62,0,0,1-6-11.57,31.59,31.59,0,0,1-1-5.1C.48,34.17.4,33,.34,31.9a31.74,31.74,0,0,1,.09-4.36,35.15,35.15,0,0,1,1.81-8.79h0a.88.88,0,0,1,.45-1.25A30.86,30.86,0,0,1,7.47,9.21l.07-.09,0,0c.34.48.35.48,0,.94a38.54,38.54,0,0,0-4.07,6.63,5,5,0,0,0-.29.76,1,1,0,0,1,.26.1c.12-.07.47.05.62,0-.28-.14-.52-.41-.35-.74A38,38,0,0,1,9.2,8.55a22.17,22.17,0,0,1,6.92-5.38,20.77,20.77,0,0,1,5.44-1.72,18.39,18.39,0,0,1,3.55-.32,21.2,21.2,0,0,1,4.95.71,19.94,19.94,0,0,1,8.77,4.88,31.48,31.48,0,0,1,5.94,7.75c.47.83.9,1.68,1.33,2.53.23.44.22.49-.21.68a1.47,1.47,0,0,1,.9.68c-.07-.29-.14-.58-.22-.87a15.36,15.36,0,0,0-1.43-2.94,35.21,35.21,0,0,0-2.9-4.47c-.11-.14-.14-.25,0-.39a1.83,1.83,0,0,0,.18-.29l.17.21a31.93,31.93,0,0,1,5.49,11.15,36.83,36.83,0,0,1,1.26,10.87Z"/><path class="cls-1" d="M18.88,21.73c.6.19,1.16.4,1.75.54a5.23,5.23,0,0,0,3,0,3.3,3.3,0,0,0,1.17-.69.37.37,0,0,1,.51,0,3.5,3.5,0,0,0,2.84.89,7.15,7.15,0,0,0,2.35-.69l.13-.05c.17.36.33.71.51,1.05a8.34,8.34,0,0,0,1.42,1.94.2.2,0,0,1,0,.31,6,6,0,0,0-.93,5.78c.27.78.57,1.56.82,2.35a4.55,4.55,0,0,1,.14,2.37,3,3,0,0,1-2.25,2.3,8.56,8.56,0,0,1-2.25.27,5.11,5.11,0,0,0-2.19.44,5.78,5.78,0,0,0-.73.42.2.2,0,0,1-.24,0,5,5,0,0,0-2.84-.85,19.23,19.23,0,0,1-2.4-.17,3.18,3.18,0,0,1-2.32-1.35,3.41,3.41,0,0,1-.52-2.26,10.51,10.51,0,0,1,.9-3.1,7.07,7.07,0,0,0,.47-2.95A5.91,5.91,0,0,0,17,25.09l-.15-.2s0,0,0-.07A9.06,9.06,0,0,0,18.88,21.73ZM24.78,30H18.89c-.16,0-.24,0-.3.2-.21.64-.46,1.26-.66,1.91a12.32,12.32,0,0,0-.48,1.78,2.87,2.87,0,0,0,2.8,3.51c.75.09,1.5.1,2.25.13a4.66,4.66,0,0,1,2.41.73.26.26,0,0,0,.3,0,7.12,7.12,0,0,1,.67-.36,6.21,6.21,0,0,1,2.49-.41,6,6,0,0,0,1.73-.25,2.63,2.63,0,0,0,1.95-2,3.72,3.72,0,0,0-.06-2c-.31-1-.69-2-1-3-.06-.2-.15-.23-.34-.23Zm.38-.47h5.68v-.13a11.83,11.83,0,0,1,0-1.46A5.51,5.51,0,0,1,32,25.25a.2.2,0,0,0,0-.31,8.92,8.92,0,0,1-1.59-2.44,1.1,1.1,0,0,0-.09-.14,6.62,6.62,0,0,1-2.61.66,3.56,3.56,0,0,1-2.5-.92ZM19.25,22.4a1.5,1.5,0,0,0-.09.18,8.7,8.7,0,0,1-1.48,2.27c-.22.26-.25.17,0,.49a5.76,5.76,0,0,1,1.07,4c0,.28,0,.28.27.28h5.67c.2,0,.26-.05.26-.25,0-2.31,0-4.62,0-6.94,0-.07,0-.14,0-.23-.24.15-.43.28-.64.39a4.85,4.85,0,0,1-3.31.31C20.39,22.75,19.83,22.56,19.25,22.4Z"/><path class="cls-1" d="M24.81,1.59A20.37,20.37,0,0,1,36.43,5.3a25.31,25.31,0,0,1,6.9,7.39,30.37,30.37,0,0,1,2.12,4c.15.35.09.53-.25.69L41.68,19c-.32.15-.48.08-.64-.25-.34-.72-.65-1.46-1-2.17A20.36,20.36,0,0,0,34.74,10a15.41,15.41,0,0,0-7.53-3.34,15.52,15.52,0,0,0-12,3A19.92,19.92,0,0,0,9.61,16.4c-.34.64-.64,1.31-.95,2l-.06.11c-.21.46-.36.51-.81.29L4.51,17.21l-.15-.08c-.29-.18-.35-.34-.2-.64.4-.81.78-1.62,1.22-2.4a26.9,26.9,0,0,1,5-6.56,20.88,20.88,0,0,1,9.93-5.42A19.52,19.52,0,0,1,24,1.63C24.26,1.63,24.54,1.61,24.81,1.59Zm0,.27h-.4a20.57,20.57,0,0,0-5.3.83A21.32,21.32,0,0,0,9.78,8.53a28.56,28.56,0,0,0-5.33,8c-.14.31-.14.32.18.48l3.12,1.49c.49.24.44.31.68-.25a23.78,23.78,0,0,1,2.83-4.88A17.59,17.59,0,0,1,18,7.75a15.79,15.79,0,0,1,12.14-.63,16.25,16.25,0,0,1,6.25,4,21.53,21.53,0,0,1,4.11,5.75c.29.58.55,1.18.81,1.77.09.18.18.23.37.13s.59-.27.88-.41L45,17.17c.33-.15.34-.16.19-.47-.33-.69-.65-1.39-1-2.06a26.19,26.19,0,0,0-7-8.45A20.06,20.06,0,0,0,24.79,1.86Z"/><path class="cls-1" d="M25.16,29.57V22.1a3.56,3.56,0,0,0,2.5.92,6.62,6.62,0,0,0,2.61-.66,1.1,1.1,0,0,1,.09.14A8.92,8.92,0,0,0,32,24.94a.2.2,0,0,1,0,.31A5.51,5.51,0,0,0,30.86,28a11.83,11.83,0,0,0,0,1.46v.13Zm1.55-4.74a1.54,1.54,0,0,1-.12.13l-.37.24.12.21.66-.29-.29-.29a2.31,2.31,0,0,0-.5-.4.83.83,0,0,1-.47-.52.72.72,0,0,1,0-.21,2,2,0,0,1,.47.29,1.64,1.64,0,0,1,.22.44l.11-.67a.62.62,0,0,1,.29.69c0,.19,0,.3.15.36l.1-.66a.7.7,0,0,1,.28.75c-.05.18,0,.21.11.27l.05-.69a.65.65,0,0,1,.32.75c0,.11,0,.23.1.28l0,0a5.65,5.65,0,0,1,0-.58.38.38,0,0,0-.22-.45.59.59,0,0,1-.26-.69l.44.31a.73.73,0,0,1-.12-.86c.26.26.44.51.31.88.1-.15.13-.32.23-.44a2.25,2.25,0,0,1,.47-.31.72.72,0,0,1-.41.72c-.14.07-.27.18-.19.38l.41-.33c.05.28,0,.53-.17.67s-.22.45-.19.74c.14-.09.24-.18.36-.25a.33.33,0,0,0,.19-.45.56.56,0,0,1,.31-.64l.08.63c.21-.12.21-.12.15-.36a.6.6,0,0,1,.3-.67l.1.64A1.52,1.52,0,0,1,30,24a2.24,2.24,0,0,1,.47-.29c.06.55-.45.64-.7.95.42-.19.59.13.86.33a.68.68,0,0,1-.81-.14c-.1-.09-.18-.12-.28,0s-.24.21-.32.29l.64.29.25-.36.17.69.45-.29-.1.16h.09c0,.54-.59.49-.9.74.55.06.59.08.86.42h-.64l.26.34a.72.72,0,0,1-.71-.21c-.22-.27-.27-.27-.57,0,.44,0,.58.26.73.57a.71.71,0,0,1-.71-.37c-.11-.21-.25-.21-.44,0,.4,0,.46.29.64.54a.71.71,0,0,1-.73-.35c0-.07-.13-.1-.2-.15a1.46,1.46,0,0,0-.05.2c0,.34,0,.67,0,1,0,.56,0,.56.58.62a2.53,2.53,0,0,1,1.2.35.93.93,0,0,0,.59.09,6,6,0,0,1,1.19-4.32,9.41,9.41,0,0,1-1.66-2.52,6.84,6.84,0,0,1-2.46.6,3.81,3.81,0,0,1-2.41-.72.89.89,0,0,0,0,.11v2.6a.7.7,0,0,0,.06.17.9.9,0,0,0-.06.22v3.63a2,2,0,0,0,0,.23h.39a1.5,1.5,0,0,0,.37-.05c.28-.09.55-.24.84-.31s.7-.1,1.05-.15a.76.76,0,0,0,0-.14V27.19c-.15-.1-.24,0-.3.1a.69.69,0,0,1-.74.36c.2-.25.26-.6.73-.53-.34-.22-.37-.22-.54.06a.64.64,0,0,1-.67.28c.14-.3.31-.57.73-.55l0-.05-.31-.18-.07-.07c-.06.09-.11.18-.16.27a.61.61,0,0,1-.61.25,2.35,2.35,0,0,1-.47-.15c.25-.46.7-.4,1.2-.36l-.55-.4,0,0,.22.26c-.52,0-.86-.28-.92-.66l.39.08-.37-.46.46.35,0-.53-.45-.07c.24-.16.37-.39.66-.38S26.54,24.83,26.71,24.83ZM27.37,26a2.36,2.36,0,0,1,.24.55c0,.32,0,.32.38.4,0-.36,0-.71,0-1.06a.2.2,0,0,0-.12-.15.3.3,0,0,0-.18,0A3.47,3.47,0,0,0,27.37,26Zm1.56,0-.37-.27c-.12-.08-.26,0-.26.1,0,.36,0,.72,0,1.08.31-.08.35-.1.33-.26A.67.67,0,0,1,28.93,26Zm.75.23c.45-.11.23-.45.18-.74l-.24.06Zm-3.3-.74a2.16,2.16,0,0,1-.05.27c-.08.29-.06.33.23.44l.07-.65Zm.39.1.14.2.6-.32c-.09,0-.16-.22-.35-.11Zm2.72,0a.86.86,0,0,1-.29-.13.26.26,0,0,0-.44,0l.57.33Zm-.46,1c.32-.09.32-.09.23-.64l-.2,0ZM27.18,26,27,26c-.07.54-.07.54.23.63Zm2.79.66c-.18-.23-.25-.24-.43,0h.2Z"/><path class="cls-1" d="M19.25,22.4c.58.16,1.14.35,1.7.47a4.85,4.85,0,0,0,3.31-.31c.21-.11.4-.24.64-.39,0,.09,0,.16,0,.23,0,2.32,0,4.63,0,6.94,0,.2-.06.26-.26.25H19c-.29,0-.29,0-.27-.28a5.76,5.76,0,0,0-1.07-4c-.22-.32-.19-.23,0-.49a8.7,8.7,0,0,0,1.48-2.27A1.5,1.5,0,0,1,19.25,22.4Zm5.48.09a4.38,4.38,0,0,1-2.67.69,7.9,7.9,0,0,1-2.7-.6A9.08,9.08,0,0,1,17.83,25a.2.2,0,0,0,0,.31,6,6,0,0,1,1.08,2.85c0,.23,0,.46,0,.69h0l.15-.28.07.21.11-.22.07.19.23-.11c-.06-.28-.1-.58-.18-.87a.45.45,0,0,1,.16-.5A1,1,0,0,0,19.93,26c-.12-.33-.05-.5.25-.71,0,0,.13,0,.19,0a3.16,3.16,0,0,1,2.7.19l.36.19-.26-1.75-.46-.24v-.08c.08,0,.17-.15.24-.13a1.34,1.34,0,0,0,.63,0,.4.4,0,0,1,.24,0,6.28,6.28,0,0,1,.57.31.22.22,0,0,1,.07.17c0,.05-.09.1-.15.12l-.47.1a3.11,3.11,0,0,1,.18,1.5c-.07.41-.06.85-.45,1.15,0,0,0,.07,0,.09a3.4,3.4,0,0,0-.23.3c-.09.14-.31.15-.33.36s-.06.61-.08.92a.37.37,0,0,0,.12.24,2.15,2.15,0,0,0,.37.19l.11-.42h0l.08.49.1-.18.12.14.17-.5.08.56.28-.39.37.33ZM22,25.42h0a.73.73,0,0,1,.05.2A5,5,0,0,0,22.36,27a.3.3,0,0,1,0,.16c0,.47,0,.94,0,1.4,0,.11,0,.22,0,.33s.08.08.12.12a2.84,2.84,0,0,1-.06-.44,2.12,2.12,0,0,1,.05-.5c.07-.33.05-.72.5-.84h0c.13-.22.42-.3.5-.57s.27-.5.35-.77a2.78,2.78,0,0,0-.13-1.73,1.84,1.84,0,0,1-.06-.18L24.3,24a2.63,2.63,0,0,0-.46-.33c-.15-.08-.45-.06-.47,0a1.47,1.47,0,0,0,0,.47c.05.4.13.81.18,1.22a1.31,1.31,0,0,1-.06.38,2.5,2.5,0,0,1-.39-.11,3,3,0,0,0-2.92-.11.2.2,0,0,0-.08.1.4.4,0,0,0,.18.42.46.46,0,0,1,.19.2,1.24,1.24,0,0,1-.25,1.27.32.32,0,0,0-.08.23c.12.42.27.82.42,1.23,0,0,.08,0,.12.06a2.52,2.52,0,0,1-.15-.39c-.06-.22-.09-.45-.15-.68a.24.24,0,0,1,.09-.26A4.64,4.64,0,0,0,21,27a.82.82,0,0,0,0-.9,3,3,0,0,1-.11-.32.35.35,0,0,1,.17.1,3.79,3.79,0,0,0,.51.47.52.52,0,0,0,.33,0,.58.58,0,0,0,.05-.24Zm.11,3.51a3.09,3.09,0,0,0,0-2.28l-.62.27.18-.25-.3-.22a1.87,1.87,0,0,1-.74,1.33s-.08.07-.08.09l.18.91h.06l.05-.56h0l.1.68.19-.35.16.39.15-.43.29.44.15-.4Zm-2.14,0c-.06-.2-.11-.31-.14-.44s-.07-.4-.11-.6a.27.27,0,0,1,.14-.34,1,1,0,0,0,.56-.78.56.56,0,0,0-.19-.53s0,0,0,0a1.53,1.53,0,0,1-.56,1.17.19.19,0,0,0-.08.16c.08.4.16.8.25,1.2C19.78,28.81,19.85,28.83,19.92,28.89Zm0-1.26c-.18.12,0,.94.24,1.13,0-.1.09-.19.07-.26C20.13,28.2,20,27.92,19.91,27.63ZM19,29.4h0Zm3.82-1.83h-.07v1.22h.08C22.66,28.39,22.84,28,22.81,27.57Z"/><path class="cls-1" d="M25,7.49c.72.09,1.59.17,2.44.33a15.18,15.18,0,0,1,6.78,3.25l.81.67c.25.21.27.35.06.6-.62.75-1.26,1.49-1.9,2.24-.47.55-.48.55-1,.09a12.09,12.09,0,0,0-4.95-2.56,10.24,10.24,0,0,0-7,.79,13.27,13.27,0,0,0-2.83,1.85c-.29.24-.42.23-.67-.05-.61-.66-1.21-1.33-1.81-2l-.32-.39c-.22-.3-.21-.41.07-.65a22,22,0,0,1,3.13-2.2,14.68,14.68,0,0,1,5.26-1.8C23.68,7.59,24.28,7.56,25,7.49Zm10,4.59L34.91,12A23.16,23.16,0,0,0,32,9.83,13.78,13.78,0,0,0,25,7.8a13.17,13.17,0,0,0-5,1,18.08,18.08,0,0,0-4.82,2.93c-.41.33-.41.33-.06.72L17,14.54a1.79,1.79,0,0,0,.14.13,11.79,11.79,0,0,1,7.81-3.11,11.81,11.81,0,0,1,7.81,3.21Z"/><path class="cls-1" d="M36.89,44.7l-.06.58s0,.07-.08.09L35.27,46s0,0-.05,0,0-.07,0-.08c.22-.07.21-.24.2-.42,0-.33,0-.65,0-1l0-.23h-.23l0-.06.76-.32c.26-.11.52-.24.81-.38,0,.23.12.43,0,.61-.09-.08-.18-.23-.26-.23a2.19,2.19,0,0,0-.49.17s0,.08,0,.11l0,.49c.29-.09.24-.37.4-.54v1h0a.78.78,0,0,0-.09-.21.22.22,0,0,0-.17-.06S36,44.94,36,45s0,.33,0,.52a.84.84,0,0,0,.59-.32,3.2,3.2,0,0,0,.29-.51Z"/><path class="cls-1" d="M37.87,43l-.2.25.43.51.42-1-.21,0,0,0a1.59,1.59,0,0,1,.64-.31,1.38,1.38,0,0,0-.17.25c-.18.39-.37.77-.51,1.17a2.39,2.39,0,0,0,0,.66l.25-.11a2.2,2.2,0,0,1-1,.61.41.41,0,0,1,.08-.12.53.53,0,0,0,.12-.75,3.65,3.65,0,0,0-.24-.31c-.12-.15-.21-.35-.47-.33v0l.91-.49Z"/><path class="cls-1" d="M35.12,45.41c0,.21,0,.42-.06.62,0,0-.06.09-.1.1l-1.41.44s-.1,0-.17,0c.28-.06.29-.24.28-.46s0-.67,0-1c0-.17,0-.31-.27-.29v-.08l1-.21c0,.06,0,.1,0,.1-.27.05-.26.25-.25.45s0,.65,0,1c0,.08,0,.15,0,.28a3,3,0,0,0,.59-.36,2.22,2.22,0,0,0,.28-.53Z"/><path class="cls-1" d="M10.44,43.78l.24.06c0-.4.07-.8.11-1.19,0-.11,0-.22,0-.33a.36.36,0,0,0-.14-.36.45.45,0,0,1-.06-.12l.06-.06a9.12,9.12,0,0,1,1.15.87,1.4,1.4,0,0,1,.29,1.48.46.46,0,0,1-.69.32c-.32-.15-.61-.35-.92-.53C10.47,43.9,10.47,43.85,10.44,43.78Zm.88-1.37-.05,0c0,.53-.1,1.06-.12,1.59,0,.07.12.15.2.19s.2,0,.24-.13a1.69,1.69,0,0,0,0-1.36A1.48,1.48,0,0,0,11.32,42.41Z"/><path class="cls-1" d="M15,44.83c0,.12,0,.23-.06.35a.72.72,0,0,1-1.23.41,1.55,1.55,0,0,1-.39-1.7.67.67,0,0,1,.75-.32A1.26,1.26,0,0,1,15,44.83Zm-.46-.27a4,4,0,0,0-.17-.61.37.37,0,0,0-.3-.18.41.41,0,0,0-.25.22,2.1,2.1,0,0,0-.08,1.14.54.54,0,0,0,.11.28.46.46,0,0,0,.31.15c.08,0,.19-.12.22-.21C14.49,45.11,14.52,44.86,14.58,44.56Z"/><path class="cls-1" d="M16.34,44.26l0,.74h-.07a1,1,0,0,0-.06-.18,2.25,2.25,0,0,0-.28-.47.27.27,0,0,0-.26,0,.3.3,0,0,0-.05.27,2,2,0,0,0,.33.39,1.06,1.06,0,0,1,.42.78.52.52,0,0,1-.27.5.56.56,0,0,1-.58-.06,2.21,2.21,0,0,0-.4-.18l.06-.7h.06a1.66,1.66,0,0,1,.06.21.74.74,0,0,0,.32.53c.09,0,.26.08.3,0a.35.35,0,0,0,0-.3.75.75,0,0,0-.22-.29,1.43,1.43,0,0,1-.49-.7.56.56,0,0,1,.22-.64c.24-.14.45,0,.64.13l.09.07.1-.12Z"/><path class="cls-1" d="M12.39,42.82c.28.16.6.26.88.44l0,.06H13c0,.29,0,.58-.08.87s0,.43,0,.64,0,.29.16.36c0,0,0,0,0,.13a5.14,5.14,0,0,1-.94-.46l0-.07.2.06c0-.14.05-.28.06-.41,0-.4.07-.79.09-1.19a.68.68,0,0,0-.11-.25c0-.05-.07-.08-.11-.12Z"/><path class="cls-1" d="M17.46,48.11v-.93a.69.69,0,0,1,.95-.71,24.54,24.54,0,0,0,4.59.82,19.63,19.63,0,0,0,4.66-.15c1.12-.18,2.23-.42,3.34-.67a.68.68,0,0,1,.84.63c0,.68,0,1.35,0,2a.67.67,0,0,1-.49.57c-.6.26-1.19.55-1.81.77a13.56,13.56,0,0,1-5.29.74,20.51,20.51,0,0,1-6.18-1.47,1.29,1.29,0,0,1-.33-.17.58.58,0,0,1-.28-.53c0-.31,0-.62,0-.93ZM25.14,51a12.49,12.49,0,0,0,4.26-.74c.63-.23,1.24-.51,1.86-.78.16-.07.32-.17.32-.37,0-.65,0-1.31,0-2a.4.4,0,0,0-.54-.4,26.81,26.81,0,0,1-4.54.8,20.32,20.32,0,0,1-5.05-.17c-1.07-.18-2.13-.44-3.19-.67a.35.35,0,0,0-.43.16.74.74,0,0,0-.1.35c0,.56,0,1.12,0,1.67a.56.56,0,0,0,.43.62l1.3.48A17.92,17.92,0,0,0,25.14,51Z"/><path class="cls-1" d="M37,50l-.14-.2.35-.27-.27-.42.19-.14.3.41.5-.34.16.19-.51.36.23.35-.2.14-.24-.33Z"/><path class="cls-1" d="M11.22,49.72l.24-.36L11,49l.14-.2.5.35.29-.39.21.12-.29.43.36.27-.13.2-.38-.26-.24.33Z"/><path class="cls-1" d="M19.66,33a.8.8,0,0,1,.62-.57.33.33,0,0,1,.23.07c.37.28.76.55,1.1.86a3.86,3.86,0,0,0,2,1.07.22.22,0,0,1,.12.11c0,.15,0,.29,0,.48a5.2,5.2,0,0,0-1.39-.58,3.24,3.24,0,0,1-1.4-.95,1.45,1.45,0,0,0-.36-.34,1.68,1.68,0,0,0-.41-.06Z"/><path class="cls-1" d="M24.66,34a.3.3,0,0,1-.42-.22,8.24,8.24,0,0,1-.21-1c-.07-.45-.1-.9-.17-1.35a6,6,0,0,0-.2-.69.68.68,0,0,1,1,.62c0,.4-.07.79-.11,1.19A2.73,2.73,0,0,0,24.66,34Z"/><path class="cls-1" d="M23.93,34.24c-.08.11-.21.11-.3-.05a9.7,9.7,0,0,1-.48-1c-.19-.48-.33-1-.52-1.44a4.83,4.83,0,0,0-.44-.67s-.06-.13-.05-.13a2,2,0,0,1,.37-.21.2.2,0,0,1,.28.1,5.28,5.28,0,0,1,.33.73c.19.63.34,1.26.52,1.89C23.71,33.73,23.83,34,23.93,34.24Z"/><path class="cls-1" d="M23.48,34.27a.84.84,0,0,1-.86-.76,4.84,4.84,0,0,0-.19-.65,2.93,2.93,0,0,0-1-1.49c.18-.32.53-.38.71-.09a5.57,5.57,0,0,1,.53,1c.15.36.25.75.39,1.13S23.35,34,23.48,34.27Z"/><path class="cls-1" d="M22.87,30.66a.45.45,0,0,1,.69.25,4.39,4.39,0,0,1,.24.93c.07.46.1.93.17,1.39.05.27.16.54.24.84-.08.07-.19,0-.25-.1s-.19-.5-.27-.76c-.14-.51-.25-1-.41-1.53S23,31,22.87,30.66Z"/><path class="cls-1" d="M22.64,34l-.56-.41a.27.27,0,0,1-.08-.18,2,2,0,0,0-1-1.53.19.19,0,0,1,0-.2.36.36,0,0,1,.57-.1,3,3,0,0,1,.81,1.35C22.43,33.26,22.52,33.6,22.64,34Z"/><path class="cls-1" d="M24.81,31a.58.58,0,0,1,.45.6c-.05.39-.13.77-.17,1.16S25,33.55,25,34c-.1,0-.18,0-.22-.15a2.32,2.32,0,0,1-.11-1.11C24.71,32.14,24.76,31.59,24.81,31Z"/><path class="cls-1" d="M25.43,31.47a.5.5,0,0,1,.48.47,1.54,1.54,0,0,1-.06.48c-.17.53-.36,1-.54,1.59-.15,0-.18-.11-.17-.22a8.59,8.59,0,0,1,.08-1C25.28,32.35,25.36,31.92,25.43,31.47Z"/><path class="cls-1" d="M26.16,34.38c-.14,0-.26-.1-.26-.29a1.56,1.56,0,0,1,.08-.61c.15-.34.36-.65.54-1a.44.44,0,0,1,.32.66c-.07.15-.19.27-.27.41S26.32,34.08,26.16,34.38Z"/><path class="cls-1" d="M27.5,34.83a1.23,1.23,0,0,1-.2,0c-.44-.08-.54-.3-.33-.69l.4-.67s.08,0,.12-.05.07.12.05.16c-.08.21-.18.43-.27.64a.85.85,0,0,0-.06.17l.09,0,.39-.81c.15,0,.21.08.17.22a1.72,1.72,0,0,1-.11.29l-.3.68Z"/><path class="cls-1" d="M21.86,33.39c-.26-.22-.47-.43-.7-.61a3.58,3.58,0,0,0-.63-.41c-.16-.08-.16-.16-.06-.26s.28-.23.51-.09A1.87,1.87,0,0,1,21.86,33.39Z"/><path class="cls-1" d="M26.08,32a.43.43,0,0,1,.26.59,5.29,5.29,0,0,1-.29.52,1.47,1.47,0,0,0-.29,1.07c-.18,0-.26,0-.25-.16a2.77,2.77,0,0,1,.1-.5c.08-.23.18-.46.26-.69S26,32.24,26.08,32Z"/><path class="cls-1" d="M26.73,34.55c-.29,0-.37-.09-.33-.32a2,2,0,0,1,.23-.5c.07-.12.17-.23.25-.35s.11-.25.17-.38a.32.32,0,0,1,.18.45.76.76,0,0,1-.11.22A1.57,1.57,0,0,0,26.73,34.55Z"/><path class="cls-1" d="M21,33.93a1.88,1.88,0,0,1,.34.28c.13.15,0,.28-.08.41s-.08,0-.13,0a1.41,1.41,0,0,1-.2,0c-.09,0-.21,0-.26,0a.5.5,0,0,1-.14-.29C20.55,34.15,20.76,34,21,33.93Z"/><path class="cls-1" d="M20.41,34.09,20,33.63a.16.16,0,0,1,0-.16.43.43,0,0,1,.53-.17.4.4,0,0,1,.26.46A.6.6,0,0,1,20.41,34.09Z"/><path class="cls-1" d="M28.05,33.78c.16,0,.2.11.18.26s-.05.51-.1.77a.21.21,0,0,1-.16.1c-.11,0-.26-.07-.3-.15a.56.56,0,0,1,0-.35C27.82,34.2,27.94,34,28.05,33.78Z"/><path class="cls-1" d="M21.84,34.39a.37.37,0,1,1,0,.73.38.38,0,0,1-.36-.38A.37.37,0,0,1,21.84,34.39Z"/><path class="cls-1" d="M30.2,34.05c-.22-.18-.4-.31-.56-.46a.19.19,0,0,1,0-.18c0-.06.14-.13.19-.12a3.65,3.65,0,0,1,.56.18.14.14,0,0,1,0,.14A3.59,3.59,0,0,1,30.2,34.05Z"/><path class="cls-1" d="M29.27,33.72c.13-.12.24-.06.34,0s.32.24.47.37.06.09.05.1a1.59,1.59,0,0,1-.33.25s-.17-.06-.21-.13S29.38,33.93,29.27,33.72Z"/><path class="cls-1" d="M19.81,34.45,19.44,34a.32.32,0,0,1,.4-.26.31.31,0,0,1,.29.3C20.14,34.29,20,34.4,19.81,34.45Z"/><path class="cls-1" d="M28.39,33.87c.22,0,.22.16.23.28l0,.7c-.33.11-.44,0-.38-.33Z"/><path class="cls-1" d="M24.43,35.46a.58.58,0,0,1,.21.12c.12.11.08.23-.08.28a.75.75,0,0,0-.13.06c-.1.08-.21.12-.3,0a.41.41,0,0,1-.09-.28c0-.08.16-.14.25-.19S24.34,35.46,24.43,35.46Z"/><path class="cls-1" d="M29.09,33.8a.44.44,0,0,1,.14.13c.12.2.24.4.34.61,0,0-.07.15-.13.18s-.24.09-.27-.07-.08-.55-.12-.82Z"/><path class="cls-1" d="M20.11,34.94a.59.59,0,0,1-.2,0,.26.26,0,0,1-.13-.16s.07-.11.13-.13a1,1,0,0,1,.38-.08c.08,0,.15.09.22.14a.65.65,0,0,1-.18.22A.48.48,0,0,1,20.11,34.94Z"/><path class="cls-1" d="M23.25,35.48a.86.86,0,0,0-.25-.13c-.21,0-.17-.18-.09-.27a.42.42,0,0,1,.32-.13c.08,0,.18.11.23.19s0,.21-.13.27S23.28,35.45,23.25,35.48Z"/><path class="cls-1" d="M24.23,36.39c0,.11-.13.16-.27.16a.31.31,0,0,1-.31-.28c0-.12.15-.27.26-.26A.46.46,0,0,1,24.23,36.39Z"/><path class="cls-1" d="M29.06,34.83c-.14.08-.26.05-.28-.12s0-.49-.06-.73a.14.14,0,0,1,.08-.09.2.2,0,0,1,.13.08,1.45,1.45,0,0,1,.06.3C29,34.45,29,34.63,29.06,34.83Z"/><path class="cls-1" d="M19,34.46a.24.24,0,0,1,.28-.2.26.26,0,0,1,.26.29.26.26,0,0,1-.29.24C19.13,34.79,19,34.66,19,34.46Z"/><path class="cls-1" d="M30.43,33.35c-.21-.07-.38-.12-.54-.19A.16.16,0,0,1,29.8,33s.08-.1.14-.1a1,1,0,0,1,.39,0,.2.2,0,0,1,.13.16A.66.66,0,0,1,30.43,33.35Z"/><path class="cls-1" d="M21,35.23c-.08,0-.18,0-.23-.11a.22.22,0,0,1,0-.22.41.41,0,0,1,.52,0c.11.1.08.2,0,.26A1.05,1.05,0,0,1,21,35.23Z"/><path class="cls-1" d="M20.11,35.12,20.5,35c0,.15.3.23.1.39a.5.5,0,0,1-.4,0C20,35.42,20.12,35.24,20.11,35.12Z"/><path class="cls-1" d="M21.52,35.22a2.44,2.44,0,0,1,.39.07.19.19,0,0,1,.08.16s-.07.1-.12.12a1,1,0,0,1-.3.07c-.05,0-.14,0-.15-.06a.63.63,0,0,1,0-.27.51.51,0,0,1,.09-.16Z"/><path class="cls-1" d="M22.66,35.28l-.43-.11.19-.43c.3,0,.38.06.29.34C22.69,35.14,22.68,35.21,22.66,35.28Z"/><path class="cls-1" d="M24.94,36.28a.24.24,0,0,1-.25.22.25.25,0,0,1-.28-.24.24.24,0,0,1,.26-.24A.25.25,0,0,1,24.94,36.28Z"/><path class="cls-1" d="M21.8,36.24a.23.23,0,0,1-.24-.25.22.22,0,0,1,.23-.24.23.23,0,0,1,.26.24C22.06,36.13,22,36.23,21.8,36.24Z"/><path class="cls-1" d="M19.68,35.43a.25.25,0,0,1-.28-.25c0-.13.07-.27.2-.24a.49.49,0,0,1,.31.25C20,35.33,19.82,35.41,19.68,35.43Z"/><path class="cls-1" d="M22.88,36a.24.24,0,0,1-.24-.26.23.23,0,0,1,.26-.23.22.22,0,0,1,.23.24C23.13,35.9,23,36,22.88,36Z"/><path class="cls-1" d="M25.81,36.66c-.18,0-.27-.09-.27-.23a.25.25,0,1,1,.27.23Z"/><path class="cls-1" d="M22.54,36.41c-.21,0-.33-.09-.33-.27s.18-.17.25-.15.2.14.3.21Z"/><path class="cls-1" d="M23.57,36c0-.17-.39-.22-.1-.45a.26.26,0,0,1,.36,0C23.92,35.66,23.81,35.84,23.57,36Z"/><path class="cls-1" d="M21.22,35.38c0,.14,0,.29-.07.34s-.22,0-.32,0-.08-.13-.06-.18C20.83,35.32,21,35.39,21.22,35.38Z"/><path class="cls-1" d="M29.94,32s.09,0,.09.07a1,1,0,0,1,0,.24c-.15,0-.24.28-.43.1,0,0,0-.15,0-.19A3.3,3.3,0,0,1,29.94,32Z"/><path class="cls-1" d="M30.26,32.33l.1.44h-.57C29.83,32.49,30.09,32.53,30.26,32.33Z"/><path class="cls-1" d="M22.55,35.41l-.13.44c-.1,0-.25-.07-.27-.13a.34.34,0,0,1,.07-.31C22.28,35.36,22.43,35.41,22.55,35.41Z"/><path class="cls-1" d="M22.91,36.22l.44-.33c0,.1.09.21.06.28a.29.29,0,0,1-.21.18C23.11,36.36,23,36.28,22.91,36.22Z"/><path class="cls-1" d="M29.48,31.78c-.1.13-.17.24-.26.34a.23.23,0,0,1-.15,0,.73.73,0,0,1,0-.33c0-.05.16-.05.25-.06S29.42,31.76,29.48,31.78Z"/><path class="cls-1" d="M25.44,35.92a1.75,1.75,0,0,1-.34,0,.26.26,0,0,1-.17-.05.21.21,0,0,1,0-.19c.09,0,.22-.1.3-.07S25.36,35.8,25.44,35.92Z"/><path class="cls-1" d="M28.54,31.92l.35-.14.06,0-.11.37L28.53,32Z"/><path class="cls-1" d="M25.06,36.46c.14-.08-.09-.4.24-.33s0,.23.06.34l-.26.08Z"/><path class="cls-1" d="M19.58,33.16H20l-.26.44h-.06Z"/><path class="cls-1" d="M29.65,31.83l.14.13-.35.3C29.32,32.16,29.32,32.16,29.65,31.83Z"/><path class="cls-1" d="M28.59,32.38l-.26-.09.1-.25.21.3Z"/><path class="cls-1" d="M19,29.4h0Z"/><path class="cls-1" d="M19.79,6.14a1.85,1.85,0,0,0-.29,0,5.22,5.22,0,0,0-.56.18s-.07.06-.1.1l.1.08c.08.06.23.13.23.18A.42.42,0,0,1,19,7a4.25,4.25,0,0,1-.79.24.39.39,0,0,0-.24.12A1.9,1.9,0,0,1,16.74,8c-.21,0-.3-.15-.24-.35a.58.58,0,0,0,0-.37A11,11,0,0,0,16,6.16a.76.76,0,0,0-.34-.27c-.21-.09-.29-.25-.14-.41a1.86,1.86,0,0,1,1.21-.64c.27,0,.36.15.26.39a.47.47,0,0,0,0,.35c.15.36.33.72.5,1.08.08.16.19.33.37.26a.57.57,0,0,0,.33-.35,5.77,5.77,0,0,0,.13-2A.52.52,0,0,1,18.93,4a1.17,1.17,0,0,1,.65.38c.41.44.81.89,1.22,1.32a.83.83,0,0,0,.32.18c.21.06.28.23.14.4s-.06.08-.11.09c-.41.14-.81.28-1.23.39a.35.35,0,0,1-.28-.15s0-.18.06-.27A1.29,1.29,0,0,1,19.79,6.14Zm0,.39a.8.8,0,0,0,.26,0c.34-.1.68-.21,1-.33a.22.22,0,0,0,.12-.09c.06-.08.07-.13-.06-.17a1,1,0,0,1-.38-.22c-.42-.43-.81-.87-1.21-1.3a.92.92,0,0,0-.65-.35c-.27,0-.45.15-.41.41a6,6,0,0,1-.1,1.94,1.46,1.46,0,0,1-.2.44c0,.05-.05.09-.07.14s.13.08.18.07c.23-.07.45-.14.67-.23.06,0,.09-.09.15-.15l-.1,0c-.14,0-.26-.06-.27-.22s.1-.23.23-.28l.5-.15c.15,0,.31-.09.43,0s0,.26-.09.38A.32.32,0,0,1,19.75,6.53ZM16.61,7.74s0,0,.05,0a1.71,1.71,0,0,0,1.18-.53c.05-.09,0-.18-.1-.18a.41.41,0,0,1-.37-.26c-.2-.41-.4-.81-.57-1.22a1,1,0,0,1,0-.4.58.58,0,0,1,0-.18c-.07,0-.14,0-.2,0a2.22,2.22,0,0,0-1,.53c-.1.1-.12.19.06.23a.59.59,0,0,1,.42.35c.17.33.33.66.5,1A.57.57,0,0,1,16.61,7.74Z"/><path class="cls-1" d="M12.68,10.47a.41.41,0,0,0-.13-.47l-.72-.8a.64.64,0,0,0-.5-.23c-.21,0-.31-.13-.23-.33a1.89,1.89,0,0,1,1-1c.26-.12.41,0,.37.32a.4.4,0,0,0,.07.28c.28.34.58.67.88,1a.32.32,0,0,0,.34.1.23.23,0,0,1,.29.28.36.36,0,0,1-.08.21c-.27.26-.54.51-.83.75a.3.3,0,0,1-.44-.07,1,1,0,0,1,.06.24.8.8,0,0,1-.09.32c-.36.41-.73.81-1.1,1.22a1.29,1.29,0,0,1-.24.23.28.28,0,0,1-.25,0,.25.25,0,0,1-.09-.22.37.37,0,0,0-.15-.4l-1-.79c-.14-.11-.28-.2-.47-.07s-.23,0-.27-.1a.46.46,0,0,1,0-.26,2.17,2.17,0,0,1,.84-1,.33.33,0,0,1,.29,0c.06,0,.07.17.11.26a.91.91,0,0,0,.15.33c.29.26.59.51.89.75.12.1.22.24.4.11a.45.45,0,0,0,.17-.55s-.06-.07-.06-.11-.05-.24,0-.3a.35.35,0,0,1,.3-.06A3.82,3.82,0,0,1,12.68,10.47Zm-.62-.25L12,10.3l.1.21a.6.6,0,0,1-.22.75c-.17.13-.31.11-.57-.11l-.83-.7a.53.53,0,0,1-.27-.52c0-.15-.08-.17-.18-.09a3.05,3.05,0,0,0-.45.43,3.81,3.81,0,0,0-.33.55c-.05.09,0,.19.11.12a.49.49,0,0,1,.56.1c.27.22.53.44.81.65a.78.78,0,0,1,.41.74l0,.05a1.8,1.8,0,0,0,.2-.19c.38-.42.76-.83,1.12-1.25a.27.27,0,0,0,.07-.22,1.28,1.28,0,0,0-.21-.42A1.15,1.15,0,0,0,12.06,10.22Zm-.8-1.38c.37-.08.58.15.78.37s.42.46.62.69a.58.58,0,0,1,.19.51c0,.12,0,.17.16.11a2,2,0,0,0,.85-.78c.08-.13,0-.22-.14-.19a.48.48,0,0,1-.45-.18l-.85-1A.44.44,0,0,1,12.3,8c0-.15-.06-.15-.15-.13a1.85,1.85,0,0,0-.91.9S11.25,8.77,11.26,8.84Z"/><path class="cls-1" d="M39.15,10.68c.22-.16.41-.28.38-.57a.24.24,0,0,1,.4-.23,3.36,3.36,0,0,1,.61.64.31.31,0,0,1,0,.28.42.42,0,0,1-.29.09.42.42,0,0,0-.36.1l-1.21,1.1h0c-.13.12-.27.24-.45.18S38,12,38,11.86c0-.5,0-1,0-1.51,0-.08,0-.17,0-.26a.65.65,0,0,0-.52.64A.26.26,0,0,1,37,11a1.1,1.1,0,0,1-.68-.73.23.23,0,0,1,.27-.31.58.58,0,0,0,.49-.19c.25-.24.51-.47.76-.72A.5.5,0,0,0,38,8.55c-.05-.23.15-.36.38-.28a1.2,1.2,0,0,1,.67,1l0,1.26C39.12,10.54,39.13,10.59,39.15,10.68Zm-1-2.12a.66.66,0,0,1-.23.61l-.81.75a.49.49,0,0,1-.46.15c-.16,0-.22.07-.17.2a1.09,1.09,0,0,0,.55.57c.11.05.2,0,.19-.11-.06-.41.26-.56.51-.75s.26-.06.31.1a.58.58,0,0,1,0,.23c0,.39,0,.79,0,1.19,0,.15,0,.3,0,.45s.13.25.3.12l.2-.18,1.07-1a.55.55,0,0,1,.53-.18c.15,0,.23-.08.14-.19a4.18,4.18,0,0,0-.5-.53c-.11-.1-.23,0-.21.11a.64.64,0,0,1-.34.6.3.3,0,0,1-.24,0c-.07,0-.12-.14-.12-.21a8,8,0,0,1,0-1.2,1,1,0,0,0-.47-.88.27.27,0,0,0-.23-.06S38.19,8.54,38.18,8.56Z"/><path class="cls-1" d="M23.62,4.68a5.42,5.42,0,0,0,0,.57c0,.06.08.12.14.16s.19.41-.05.51a1.25,1.25,0,0,1-.91,0c-.24-.09-.29-.3-.1-.47A.52.52,0,0,0,22.88,5q0-.52,0-1a.53.53,0,0,0-.25-.43.25.25,0,0,1,0-.46,1.26,1.26,0,0,1,1.15.12l.93.79.18.13a.48.48,0,0,0-.09-.6c-.07-.08-.16-.23-.13-.31A.42.42,0,0,1,25,3a2.66,2.66,0,0,1,.69,0,.4.4,0,0,1,.28.19c.08.13,0,.24-.13.34a.4.4,0,0,0-.14.29c0,.54,0,1.08,0,1.63a.21.21,0,0,1,0,.08c-.05.13-.08.33-.18.38s-.3,0-.41-.1c-.41-.33-.81-.68-1.21-1l-.18-.13ZM23,4.59c0,.42.07.78-.26,1,0,0,0,.15.07.17a1.06,1.06,0,0,0,.8,0c.15-.06.14-.16,0-.26s-.17-.14-.18-.22a3.32,3.32,0,0,1,0-.63c0-.16.15-.22.29-.14a.8.8,0,0,1,.19.13c.39.34.78.68,1.18,1a.77.77,0,0,0,.28.1,1.34,1.34,0,0,0,.07-.27q0-.82,0-1.65a.51.51,0,0,1,.22-.48c.13-.08.11-.22,0-.23a4,4,0,0,0-.77,0,.11.11,0,0,0,0,.21.58.58,0,0,1,.23.6.39.39,0,0,1-.13.28s-.2,0-.27-.09a12.45,12.45,0,0,1-1-.81,1,1,0,0,0-1-.16.23.23,0,0,0-.15.12s.05.11.09.14a.57.57,0,0,1,.27.47C23,4.17,23,4.42,23,4.59Z"/><path class="cls-1" d="M14.53,9.17a1.5,1.5,0,0,1-1.41-1.08,1.64,1.64,0,0,1,.68-1.74,3.2,3.2,0,0,1,.43-.17A2.62,2.62,0,0,1,14.66,6a.57.57,0,0,1,.39,0,1.87,1.87,0,0,1,.46.47.35.35,0,0,1,0,.44A.42.42,0,0,1,15,7c-.1,0-.18-.09-.28-.1a1.2,1.2,0,0,0-.5,0,.32.32,0,0,0-.19.53,1.76,1.76,0,0,0,.58.54.75.75,0,0,0,1-.46c0-.1.15-.23.22-.23a.4.4,0,0,1,.27.21.53.53,0,0,1,.05.35A1.7,1.7,0,0,1,14.53,9.17ZM14.59,9a1.57,1.57,0,0,0,1.46-1.11.75.75,0,0,0,0-.3c0-.05-.09-.09-.13-.14a.67.67,0,0,0-.11.14.85.85,0,0,1-.65.59,1.17,1.17,0,0,1-1.22-.62.53.53,0,0,1,.42-.83,1.93,1.93,0,0,1,.62.11c.16,0,.31.1.41-.06s0-.35-.16-.49S15,6,14.75,6.11a4,4,0,0,1-.53.22,1.42,1.42,0,0,0-1,1.46A1.32,1.32,0,0,0,14.59,9Z"/><path class="cls-1" d="M31.4,7.27a1.55,1.55,0,0,1-1.51-.92,1.41,1.41,0,0,1,.21-1.59,1.62,1.62,0,0,1,2.15-.21c.12.11.31.16.44.27a.63.63,0,0,1,.21.28.91.91,0,0,1-.16.73.38.38,0,0,1-.68-.06c0-.09-.05-.2-.08-.29a1.18,1.18,0,0,0-.13-.3A.47.47,0,0,0,31.38,5a.39.39,0,0,0-.33.36A2.3,2.3,0,0,0,31,6a.73.73,0,0,0,.95.52c.13,0,.29-.09.35.06a.52.52,0,0,1,0,.38.73.73,0,0,1-.59.3Zm.81-.62a1.49,1.49,0,0,0-.21,0,.9.9,0,0,1-1.15-.73,1.85,1.85,0,0,1,.08-.73A.53.53,0,0,1,31.84,5a1.58,1.58,0,0,1,.28.47c0,.08,0,.19.08.27a.23.23,0,0,0,.43,0,1.38,1.38,0,0,0,.13-.53.41.41,0,0,0-.17-.25,3.26,3.26,0,0,0-.4-.24,2.14,2.14,0,0,0-.43-.26A1.4,1.4,0,0,0,29.92,6a1.52,1.52,0,0,0,2,1A.35.35,0,0,0,32.21,6.65Z"/><path class="cls-1" d="M40,13.89c0-.08,0-.14,0-.17-.12-.21-.24-.41-.37-.6,0,0-.08,0-.12-.06a.61.61,0,0,0-.05.12c0,.09-.06.26-.1.26a.44.44,0,0,1-.34-.09,3.12,3.12,0,0,1-.43-.66.38.38,0,0,1,.07-.35s.21,0,.32,0a1.07,1.07,0,0,0,.3.06A6.14,6.14,0,0,0,41.23,12a.51.51,0,0,1,.74.45,1.13,1.13,0,0,1-.19.74c-.33.51-.66,1-1,1.52a1.24,1.24,0,0,0-.09.33c0,.08,0,.19-.1.22a.36.36,0,0,1-.27,0,.4.4,0,0,1-.2-.16c-.2-.28-.38-.57-.56-.85a.68.68,0,0,1-.07-.2.24.24,0,0,1,.35-.27Zm-.73-.53a.87.87,0,0,0,0-.13c0-.13,0-.26.15-.31a.28.28,0,0,1,.33.16,2.67,2.67,0,0,1,.31.51.41.41,0,0,1,0,.36c-.08.14-.23.05-.35,0h0c-.13.29.49,1.24.76,1.22a5.72,5.72,0,0,1,.22-.55c.3-.5.62-1,.94-1.47a1,1,0,0,0,.17-.67.37.37,0,0,0-.52-.32,3.7,3.7,0,0,1-1.38.35c-.36,0-.73.2-1.08,0,0,0-.12.09-.12.11A1.36,1.36,0,0,0,39.3,13.36Z"/><path class="cls-1" d="M28,5.71a1,1,0,0,0-1-.1l.15.08c.17.14.14.33-.07.39a1.28,1.28,0,0,1-1-.14.25.25,0,0,1-.12-.23c0-.08.12-.14.2-.2a1.44,1.44,0,0,0,.3-.24,5.61,5.61,0,0,0,1-1.76c.08-.29.49-.37.79-.18a1,1,0,0,1,.43.61c.18.59.35,1.17.54,1.76a.72.72,0,0,0,.21.29.23.23,0,0,1-.05.41.69.69,0,0,1-.31.06c-.33,0-.65-.08-1-.14a.38.38,0,0,1-.34-.26c0-.19.11-.25.24-.31Zm1.4.45C29.07,6,29,5.78,29,5.55c-.16-.52-.3-1-.48-1.56a1.32,1.32,0,0,0-.33-.51.37.37,0,0,0-.63.17,5.11,5.11,0,0,1-.77,1.46c-.17.24-.32.5-.65.58,0,0,0,0,0,0a1,1,0,0,0,1.07.1c-.06,0-.13,0-.15-.09a.35.35,0,0,1-.08-.24.3.3,0,0,1,.22-.16,7.39,7.39,0,0,1,.82.14.26.26,0,0,1,.16.21c0,.07-.09.15-.16.21a.28.28,0,0,1-.11.08A1.56,1.56,0,0,0,29.36,6.16Z"/><path class="cls-1" d="M42.38,17.79a3.26,3.26,0,0,1-.46-.1.41.41,0,0,1-.19-.22c-.19-.52-.35-1-.52-1.56a1.16,1.16,0,0,1-.08-.32.27.27,0,0,1,.11-.21.26.26,0,0,1,.24,0,.39.39,0,0,0,.41.07L43.11,15c.16-.06.28-.15.26-.35s.19-.26.35-.14a.65.65,0,0,1,.25.3,6.63,6.63,0,0,1,.32.95.41.41,0,0,1-.1.33c-.11.11-.22,0-.34-.05a.36.36,0,0,0-.29,0l-1.17.41c-.13.05-.28.08-.26.27a.49.49,0,0,0,.36.43s.11,0,.15,0,.26.08.27.13a.41.41,0,0,1-.11.32A2.12,2.12,0,0,1,42.38,17.79ZM44.08,16c.18-.34-.21-1.32-.54-1.37,0,.31-.18.44-.44.53l-.94.35a.76.76,0,0,1-.82,0l-.06,0c0,.07,0,.15,0,.23.18.55.36,1.09.55,1.64a.29.29,0,0,0,.2.17,1.09,1.09,0,0,0,.44,0,1.3,1.3,0,0,0,.31-.19l0-.08-.29,0a.57.57,0,0,1-.5-.51c0-.24,0-.36.32-.46l.88-.31C43.49,15.9,43.79,15.73,44.08,16Z"/><path class="cls-1" d="M8,16.25c.23.1.43.19.65,0s.22,0,.27.09a.41.41,0,0,1,.05.26c-.11.33-.23.66-.36,1,0,.05-.07.09-.11.12s-.33.09-.38-.11a.35.35,0,0,0-.27-.28c-.43-.15-.86-.31-1.29-.45a.32.32,0,0,0-.27,0c-.11.09-.22.22-.34.1a.41.41,0,0,1-.08-.36c.13-.48.29-.95.44-1.42a1.15,1.15,0,0,1,.21-.33.92.92,0,0,1,1.14-.3,1,1,0,0,1,.54,1.05A6.31,6.31,0,0,1,8,16.25Zm-2,.67.14-.09a.4.4,0,0,1,.54-.11c.3.12.61.22.91.33s.68.15.71.58c.36-.2.63-1,.44-1.26a.54.54,0,0,1-.62.08c-.31-.11-.34-.14-.19-.44a1.13,1.13,0,0,0,.12-.7.78.78,0,0,0-.5-.62.68.68,0,0,0-.77.15,1.49,1.49,0,0,0-.34.49c-.15.43-.27.86-.41,1.3A1.6,1.6,0,0,0,6,16.92Z"/><path class="cls-1" d="M35.8,9.61A1.69,1.69,0,0,1,34.11,8a1.56,1.56,0,0,1,1.54-1.52,1.69,1.69,0,0,1,1.63,1.63A1.44,1.44,0,0,1,35.8,9.61Zm0-.15A1.31,1.31,0,0,0,37.13,8.1a1.53,1.53,0,0,0-1.5-1.46A1.39,1.39,0,0,0,34.27,8,1.51,1.51,0,0,0,35.8,9.46Z"/><path class="cls-1" d="M10.6,13.15A1.65,1.65,0,0,1,9,14.82a1.56,1.56,0,0,1-1.56-1.5,1.69,1.69,0,0,1,1.62-1.65A1.44,1.44,0,0,1,10.6,13.15ZM9,14.67a1.53,1.53,0,0,0,1.43-1.53,1.3,1.3,0,0,0-1.37-1.32,1.52,1.52,0,0,0-1.46,1.49A1.38,1.38,0,0,0,9,14.67Z"/><path class="cls-1" d="M33.4,8.22a2.11,2.11,0,0,1-1.09-.61c-.17-.17-.09-.33.15-.41a.47.47,0,0,0,.26-.2c.21-.35.4-.71.59-1.07a.51.51,0,0,0,0-.45c-.1-.24,0-.39.28-.36a2.06,2.06,0,0,1,1.17.57.37.37,0,0,1,.08.31c0,.06-.16.1-.24.15s-.21.1-.25.19a12.66,12.66,0,0,0-.63,1.14.4.4,0,0,0,0,.32C33.86,8.06,33.76,8.22,33.4,8.22Zm.15-2.54c0,.07,0,.13,0,.18-.23.44-.45.87-.7,1.29a.51.51,0,0,1-.28.19c-.18,0-.16.13-.07.22a2.08,2.08,0,0,0,1,.51.22.22,0,0,0,.16,0s0-.12,0-.17a.37.37,0,0,1,0-.39c.23-.42.45-.84.69-1.25.06-.09.21-.14.32-.21s.13,0,.14-.08a.21.21,0,0,0-.07-.16,2.08,2.08,0,0,0-1-.51c-.12,0-.2,0-.14.19A1.55,1.55,0,0,1,33.55,5.68Z"/><path class="cls-1" d="M19.32,10.76c.14,0,.15-.09.15-.21a.82.82,0,0,1,.07-.29c.1,0,.26.05.3.12a3.61,3.61,0,0,1,.28.68.27.27,0,0,1-.11.23s-.15,0-.23-.08l-.19-.07a1.15,1.15,0,0,0,0,.19c.14.34.22.36.53.15a.66.66,0,0,0,.26-.47c0-.09.11-.16.16-.23s.21.09.23.17a2.43,2.43,0,0,1,.1.6.28.28,0,0,1-.14.18c-.5.25-1,.48-1.5.71a.37.37,0,0,1-.27,0s-.07-.15-.07-.24,0-.24,0-.33c-.15-.35-.32-.7-.49-1,0-.06-.11-.09-.17-.14s-.22-.11-.22-.16a.42.42,0,0,1,.16-.27c.29-.17.61-.31.91-.47a3.07,3.07,0,0,0,.43-.26.28.28,0,0,1,.41,0,.66.66,0,0,1,.2.3.29.29,0,0,1,0,.26c-.05,0-.18,0-.27,0s-.18-.06-.26,0C19.12,10.19,19.05,10.35,19.32,10.76Zm.27-.36c0,.1.06.18,0,.23a.55.55,0,0,1-.2.25.3.3,0,0,1-.25-.06c-.32-.4-.24-.67.26-.8a1.41,1.41,0,0,1,.41,0l.14,0L20,10a1.45,1.45,0,0,0-.19-.29s-.15-.07-.19,0c-.45.23-.89.47-1.33.71a1.46,1.46,0,0,0-.2.15c.49.09.56.48.7.79s.39.63.19,1.06l.23-.1c.42-.2.83-.41,1.25-.6.15-.07.28-.12.24-.32s-.07-.28-.1-.43h-.08l0,.2a.89.89,0,0,1-.67.63c-.17,0-.32-.15-.42-.47a0,0,0,0,0,0,0c0-.09,0-.22.08-.25a.65.65,0,0,1,.31,0c.06,0,.1.08.16.14A.82.82,0,0,0,19.59,10.4Z"/><path class="cls-1" d="M28.46,11.19c-.13.22-.3.22-.54.15-.45-.14-.91-.22-1.37-.32a1.17,1.17,0,0,1-.2-.06.18.18,0,0,1,0-.33c.07-.06.18-.12.2-.19.1-.4.18-.8.26-1.21,0-.07-.05-.14-.07-.22s-.1-.22-.06-.26A.36.36,0,0,1,27,8.64c.33,0,.65.14,1,.2a3.43,3.43,0,0,0,.56.08c.16,0,.26.08.27.23a.9.9,0,0,1,0,.4.28.28,0,0,1-.19.18c-.07,0-.16-.08-.23-.13s-.16-.2-.26-.25c-.32-.16-.47-.07-.48.28,0,0,0,.11.08.13s.09,0,.12-.06,0-.1.07-.13A.35.35,0,0,1,28,9.48a.27.27,0,0,1,.17.14,1.09,1.09,0,0,1-.19.89.22.22,0,0,1-.19.08c-.06,0-.1-.12-.13-.18a2.29,2.29,0,0,1-.1-.23l-.08,0a2.7,2.7,0,0,0-.08.41.17.17,0,0,0,.09.15.64.64,0,0,0,.72-.13c.08-.09.18-.21.3-.1a.45.45,0,0,1,.07.33,1,1,0,0,1-.1.28Zm-1.67-2.4a.63.63,0,0,1,.16.54,1.26,1.26,0,0,1-.05.28c-.13.41-.06.9-.53,1.21l.25.07,1.34.29c.1,0,.2.14.3,0a1,1,0,0,0,.22-.58l-.27.23a.89.89,0,0,1-.84,0c-.21-.17-.1-.4,0-.59a.3.3,0,0,1,.21-.2.22.22,0,0,1,.27.2c0,.05,0,.1,0,.16A.73.73,0,0,0,28,9.64a.86.86,0,0,1-.07.1.25.25,0,0,1-.35.16c-.18-.05-.18-.18-.15-.32a1,1,0,0,1,.08-.29.3.3,0,0,1,.18-.15.78.78,0,0,1,.73.32l.09.14h.08a1.49,1.49,0,0,0,0-.42c0-.06-.18-.09-.28-.12L28,9,27,8.8A.61.61,0,0,0,26.79,8.79Z"/><path class="cls-1" d="M31.13,12.42a2.72,2.72,0,0,1,.22-.5,3.39,3.39,0,0,1,.34-.5.66.66,0,0,0,.19-.54c0-.16.11-.23.25-.18a1.49,1.49,0,0,1,.87.64c.12.17,0,.31-.22.34a.32.32,0,0,0-.21.1,5.79,5.79,0,0,0-.45.65.41.41,0,0,0,.18.61c.19.11.35.05.52-.19l.29-.4c.13-.17.25-.32.14-.56s.07-.24.23-.21a1,1,0,0,1,.69.52c.08.14,0,.27-.17.27a.33.33,0,0,0-.31.17c-.15.23-.3.45-.46.66a.87.87,0,0,1-1.19.27,1.6,1.6,0,0,1-.82-.8C31.18,12.67,31.17,12.56,31.13,12.42ZM34,12.33a.7.7,0,0,0-.56-.48,1.86,1.86,0,0,1-.09.48,6.32,6.32,0,0,1-.47.68.54.54,0,0,1-.6.2.59.59,0,0,1-.39-.54c0-.4.3-.65.51-.94a1.52,1.52,0,0,1,.45-.29,1.15,1.15,0,0,0-.85-.59c.11.36-.17.58-.34.84l-.22.32a.71.71,0,0,0,0,.93,2.25,2.25,0,0,0,.58.48.73.73,0,0,0,1-.22c.15-.2.29-.4.43-.61A.46.46,0,0,1,34,12.33Z"/><path class="cls-1" d="M28.46,11.19l0,0a.6.6,0,0,0,.46-.42c.1-.24.23-.46.32-.7a.63.63,0,0,0,0-.36c0-.17,0-.28.18-.29a.53.53,0,0,1,.28,0l1,.49a.78.78,0,0,1,.49.71.62.62,0,0,1-.54.6.76.76,0,0,1,.09.77.23.23,0,0,0,0,.18c.12.2.06.34-.17.36a.71.71,0,0,1-.81-.83c0-.12.06-.23.07-.35a.56.56,0,0,0-.08-.26c-.11.18-.25.32-.17.54s-.06.37-.27.3a3.46,3.46,0,0,1-.81-.42C28.48,11.46,28.49,11.3,28.46,11.19Zm.14.1a1.11,1.11,0,0,0,.84.48,3.77,3.77,0,0,1,.13-.62c0-.09.16-.21.24-.21a.25.25,0,0,1,.22.3,3.85,3.85,0,0,1-.07.49.45.45,0,0,0,.17.48.6.6,0,0,0,.6.12c-.18-.17-.11-.35-.08-.55a.77.77,0,0,0-.06-.42c-.11-.22-.12-.24.12-.32a.44.44,0,0,0,.35-.53.7.7,0,0,0-.42-.48c-.31-.17-.63-.33-.95-.49a1,1,0,0,0-.26,0A2.06,2.06,0,0,1,28.6,11.29Z"/><path class="cls-1" d="M21.51,8.9c.07,0,.19.07.23.15s0,.16,0,.25a.66.66,0,0,0,0,.27c.08.31.16.62.26.93,0,.09.15.23.18.22a1.59,1.59,0,0,0,.35-.22s0-.08,0-.12l.15-.26c.1.06.23.1.27.18a.7.7,0,0,1,0,.71.28.28,0,0,1-.16.12l-1.38.35a.4.4,0,0,1-.15,0c-.07,0-.16,0-.19-.09a.24.24,0,0,1,0-.22.33.33,0,0,0,.08-.36c-.1-.32-.2-.64-.29-1a.29.29,0,0,0-.26-.24c-.17,0-.21-.23-.05-.35A2.11,2.11,0,0,1,21,9,4.51,4.51,0,0,1,21.51,8.9Zm-.46,2.45.06,0,.25-.07c.38-.1.76-.22,1.14-.3.15,0,.26-.06.28-.22s.08-.37-.16-.54c0,.1,0,.17,0,.23a.48.48,0,0,1-.44.39c-.16,0-.31,0-.35-.18-.1-.52-.47-1-.23-1.59a1.17,1.17,0,0,0-1,.37c.25,0,.34.19.4.4s.14.44.2.67S21.37,11.09,21.05,11.35Z"/><path class="cls-1" d="M17.41,11a1.27,1.27,0,0,1,1.12,1,1.19,1.19,0,0,1-.5,1.27c-.29.23-.59.45-.9.68A.61.61,0,0,1,17,14a.22.22,0,0,1-.26-.29.45.45,0,0,0,0-.32c-.18-.3-.39-.6-.6-.89-.05-.07-.17-.1-.25-.15s-.18,0-.2-.11a.34.34,0,0,1,0-.24.53.53,0,0,1,.15-.15l.84-.62A1.21,1.21,0,0,1,17.41,11Zm-.59,2.86.05,0c.05,0,.12,0,.16-.06.34-.24.67-.48,1-.75a1,1,0,0,0,.37-1,1,1,0,0,0-1.7-.64l-.81.6a1,1,0,0,0-.16.19v.05c.3-.06.41.12.53.31l.47.69C16.85,13.41,17,13.6,16.82,13.84Z"/><path class="cls-1" d="M25.16,10c0,.19-.05.36.15.47s.08.24-.06.32a1.54,1.54,0,0,1-1.08,0c-.16-.11-.15-.23,0-.36a.5.5,0,0,0,.13-.25c0-.38,0-.76,0-1.14,0-.06-.09-.13-.14-.19S24,8.69,24,8.64a.32.32,0,0,1,.22-.17c.42,0,.85-.05,1.27,0a.8.8,0,0,1,.8.84.81.81,0,0,1-.87.76Zm.06.6a.69.69,0,0,1-.13-.11A.66.66,0,0,1,25,10c.1-.15.24-.08.37-.06a.73.73,0,0,0,.79-.56.64.64,0,0,0-.66-.74c-.39,0-.79,0-1.18,0a.58.58,0,0,0-.16.05l0,0c.33.06.33.27.31.5s0,.53,0,.8,0,.48-.25.61A1,1,0,0,0,25.22,10.62Z"/><path class="cls-1" d="M25.73,49.49a3.67,3.67,0,0,0,.05.66c0,.07.17.11.26.17a1.69,1.69,0,0,1-1.13,0c.38,0,.3-.21.29-.41,0-.38,0-.76-.05-1.13,0-.16,0-.31-.24-.31,0,0,0,0-.08-.09l.4,0c.31,0,.62,0,.93,0s.57.14.64.39,0,.51-.37.71a7.59,7.59,0,0,0,.57.68c.07.07.25.06.37,0s.09-.16.08-.24c0-.43-.06-.87-.08-1.3,0-.18,0-.32-.26-.3,0,0,0,0-.09-.09L28.18,48c0,.06,0,.11-.05.11-.24,0-.23.2-.22.37,0,.45.07.91.11,1.36,0,.06.07.16.11.16s.32,0,.4-.15a3.38,3.38,0,0,0,.18-.44l.48-1.54c0-.07,0-.14.09-.25l.15.21c.26.45.52.9.79,1.34a2.83,2.83,0,0,0,.3.29,4,4,0,0,1-1,.31c.07-.08.2-.16.2-.24s-.1-.21-.17-.33a2.7,2.7,0,0,0-.57.18.56.56,0,0,0-.15.35c0,.14.12.1.2.11s0,0,.12.08c-.21,0-.37.1-.54.13l-1.87.28a.35.35,0,0,1-.36-.16l-.49-.59-.11-.12Zm0-.2c.21,0,.43,0,.49-.2a.67.67,0,0,0,0-.48c-.09-.18-.3-.15-.49-.12Zm3.45-.73-.19.63.48-.15c-.06-.11-.11-.21-.17-.3Z"/><path class="cls-1" d="M19.27,47.57l1.38.4a.5.5,0,0,1,.22.19.47.47,0,0,1,.09.52c-.07.19-.25.23-.43.24a4.19,4.19,0,0,1-.47-.05c0,.31-.15.64.26.85a4.42,4.42,0,0,1-1.12-.33c.29-.07.29-.07.3-.39s0-.64,0-1,0-.31-.21-.34c0,0,0-.05-.06-.07Zm.78.39c0,.18,0,.34,0,.51s-.06.22.11.23a.24.24,0,0,0,.29-.18A.45.45,0,0,0,20.05,48Z"/><path class="cls-1" d="M23.56,48.49c-.39-.13-.53.07-.62.37l-.05,0,0-.59,1.87.11c.09.31.07.53,0,.62-.08-.27-.19-.51-.55-.45,0,.36,0,.72,0,1.08,0,.13,0,.26,0,.39s0,.29.22.27c0,0,.06,0,.09.07l0,.06-1.12-.09v-.07l.1,0c.13,0,.17-.06.17-.18C23.56,49.5,23.56,49,23.56,48.49Z"/><path class="cls-1" d="M23,50.25A5.9,5.9,0,0,1,22,50.08V50h.2a.39.39,0,0,0-.38-.47l-.2,0c-.14,0-.24-.05-.3.12s0,.24.18.28l.1,0-.06.1-.73-.15,0-.08c.31,0,.36-.3.48-.5.2-.37.39-.74.58-1.12l.09-.13c0,.08.08.14.1.19.23.52.45,1,.69,1.55A3.93,3.93,0,0,0,23,50.25Zm-1.31-1.44-.23.48.48.1Z"/><path class="cls-1" d="M18.7,5.54a2.08,2.08,0,0,1,0-.3c0-.15.15-.21.28-.11a2,2,0,0,1,.37.35c.09.1.06.21-.08.25l-.3.1C18.75,5.9,18.7,5.85,18.7,5.54ZM19,5.23l-.08,0,0,.46.44-.13Z"/><path class="cls-1" d="M41,12.87c-.12.18-.23.37-.36.54s-.14,0-.2,0a.25.25,0,0,1-.09-.13l-.15-.43.64-.12c.07,0,.14,0,.2.06Zm-.42.45.26-.52-.52.12Z"/><path class="cls-1" d="M28.07,5c-.09,0-.16.13-.23.13A1.49,1.49,0,0,1,27.41,5c-.06,0-.13-.14-.11-.19a2.61,2.61,0,0,1,.24-.43.16.16,0,0,1,.28,0C27.91,4.58,28,4.76,28.07,5Zm-.65-.08.47.06-.2-.52Z"/><path class="cls-1" d="M7.06,15.33c.45,0,.72.36.58.7-.06.14-.14.22-.31.15S7,16.06,6.84,16s-.33-.31-.1-.51A1.59,1.59,0,0,1,7.06,15.33Zm.39.73c.09-.14.11-.26,0-.37A.47.47,0,0,0,7,15.52a.26.26,0,0,0-.22.29Z"/><path class="cls-1" d="M36.31,7.69a1.76,1.76,0,0,1-.41,1.1.45.45,0,0,1-.52.18.42.42,0,0,1-.27-.45,2.11,2.11,0,0,1,.43-1.2A.38.38,0,0,1,36,7.14a.42.42,0,0,1,.32.41A.66.66,0,0,1,36.31,7.69Zm-.13,0a1,1,0,0,0,0-.18.26.26,0,0,0-.47-.08,1.92,1.92,0,0,0-.41,1.12.41.41,0,0,0,.19.31.36.36,0,0,0,.33-.13A1.67,1.67,0,0,0,36.18,7.65Z"/><path class="cls-1" d="M9.45,13.81a2.39,2.39,0,0,1-1.11-.34.38.38,0,0,1-.23-.42.43.43,0,0,1,.38-.36,1.78,1.78,0,0,1,1.36.36.39.39,0,0,1,.14.48C9.91,13.72,9.74,13.81,9.45,13.81Zm0-.09,0-.06c.17,0,.35,0,.4-.18a.37.37,0,0,0-.09-.32,1.57,1.57,0,0,0-1.2-.33.41.41,0,0,0-.27.24.33.33,0,0,0,.17.28C8.75,13.49,9.09,13.6,9.41,13.72Z"/><path class="cls-1" d="M30.48,10.34c0,.32-.28.56-.53.44-.05,0-.13-.1-.12-.12a2.1,2.1,0,0,1,.32-.59C30.25,10,30.47,10.14,30.48,10.34Zm-.5.26,0,.08c.07,0,.18,0,.21-.1a1.23,1.23,0,0,0,.08-.33c-.05,0-.14,0-.15,0A2.7,2.7,0,0,0,30,10.6Z"/><path class="cls-1" d="M17.92,12.7a.9.9,0,0,1-.08.25c-.15.28-.36.29-.54,0l-.65-.91c-.18-.27-.1-.48.24-.51a.66.66,0,0,1,.43.1A1.29,1.29,0,0,1,17.92,12.7Zm-.4.33a.35.35,0,0,0,.24-.37,1.1,1.1,0,0,0-.54-.89c-.2-.14-.35-.11-.54.08Z"/><path class="cls-1" d="M25,9.28,25,9q0-.33.33-.21a.39.39,0,0,1,.26.43.38.38,0,0,1-.23.42C25.12,9.75,25,9.64,25,9.28Zm.18.24c.22,0,.3-.09.29-.29s-.08-.31-.29-.3Z"/><polygon class="cls-1" points="3.67 17.41 5.61 18.26 5.72 18.62 3.52 17.67 3.2 17.47 3.3 17.37 3.67 17.41"/><path class="cls-1" d="M21,51.38s-1.66-.5-2-.66.2-.2.2-.2l1.26.36.72.36Z"/><polygon class="cls-1" points="2.7 17.49 2.25 18.74 2.08 18.75 2.09 18.33 2.28 17.73 2.5 17.44 2.63 17.43 2.7 17.49"/><path class="cls-1" d="M10,50.81s-.79-.55-.66-1.25A1.67,1.67,0,0,1,9.47,49a.57.57,0,0,0,0-.62l.16-.08a.74.74,0,0,1,0,.77,1.69,1.69,0,0,0-.17.5c-.11.59.59,1.08.6,1.08Z"/><path class="cls-1" d="M12.91,49.62l.3.6s1-.89,1.34-1.06.22-1,.22-1H15a3.07,3.07,0,0,1,0,.78,13.4,13.4,0,0,1-1.93,1.64l-.44-.71V49.6Z"/><path class="cls-1" d="M11.88,48.18a2.58,2.58,0,0,1,0-1.29,1.29,1.29,0,0,1,.68-.48l-.09-.31-.17,0a1.26,1.26,0,0,0-.7,1l-.09.54.06.17,0,.39.25.15Z"/><path class="cls-1" d="M10.92,52.78a1.6,1.6,0,0,0,1.4,1L10.9,55.09l.11.29s1.24-1.1,1.53-1.44A8.65,8.65,0,0,0,13.74,52l-.33-.14a3.11,3.11,0,0,1-1,1.79,1.75,1.75,0,0,1-1.16-.83l-.27-.33-.17.15Z"/><path class="cls-1" d="M12.57,50.43a6.29,6.29,0,0,1,.79.92,3.07,3.07,0,0,0,.58.74,4.58,4.58,0,0,1,.37.31l-.11.23a6.18,6.18,0,0,1-1-.81,2.54,2.54,0,0,0-1.24-.91l-.06-.32.36-.16A.62.62,0,0,1,12.57,50.43Z"/><path class="cls-1" d="M11.77,51.07a2.09,2.09,0,0,0,.62.92,2.62,2.62,0,0,0,.92.47l-.3.45s-.56-.52-.78-.71a5.19,5.19,0,0,0-.92-.51l.23-.5Z"/><path class="cls-1" d="M11.86,55.94a27.77,27.77,0,0,0,2.36-3.34L14,52.33s-2,3-2.51,3.5l.08.27.12.07.08-.17Z"/><path class="cls-1" d="M13.15,50.56a7.07,7.07,0,0,0,1.53.82c.64.19.84.46.72.79s-.45.8-1.09.23l-.23.14v.19l.29.16a1.12,1.12,0,0,0,.16.81c.27.41.62.8.58,1s0,.12-.41.31-1.11.58-1.11.58A8.82,8.82,0,0,0,15.85,58s2.26-.49,2.54-.16A4.67,4.67,0,0,1,19,59a9.2,9.2,0,0,0,2.52-.17L21,58.64l-1.86.14s-.2-1.12-.86-1.28a8.6,8.6,0,0,0-2.45.25,21.36,21.36,0,0,1-1.66-1.7l-.3-.43s1.5-.39,1.49-.73a4.56,4.56,0,0,0-.61-1.29,1.53,1.53,0,0,1-.15-.68.87.87,0,0,0,.89-.48.91.91,0,0,0-.46-1.29c-.44-.18-1-.28-1.11-.52a1.75,1.75,0,0,1-.18-.67l-.27.15.12.42-.45-.15Z"/><polygon class="cls-1" points="14.96 48.74 15.5 48.43 15.61 48.72 14.85 49.2 14.84 48.98 14.96 48.74"/><path class="cls-1" d="M15.33,48.81a.61.61,0,0,0-.07.33.73.73,0,0,0,.07.32A.59.59,0,0,0,15,50a.8.8,0,0,0,.34.85c.22.15,1,.46,1.18.76a1.1,1.1,0,0,1,.06.61l-1.22.39c-.1,0-.69.3-.69.3l-.08.2a8.6,8.6,0,0,0,1.38-.22c.57-.16.81-.34.87-.81a.94.94,0,0,0-.45-.93l-.07-.22a1.15,1.15,0,0,1-.84-.31.66.66,0,0,1,0-.87c.11-.11.07-.57.14-.65a.76.76,0,0,0,.11-.17l-.11-.22-.17,0Z"/><path class="cls-1" d="M15.45,48.47a1.54,1.54,0,0,1,1.43-.26l.24.41,0,.37s-.19-.57-.7-.51a.87.87,0,0,0-.67.46l-.31-.11Z"/><path class="cls-1" d="M15.67,49a.71.71,0,0,0,.18.83c.4.3,1.34.31,1.2-1l.25.15a1.17,1.17,0,0,1,0,.79,1.08,1.08,0,0,1-1.88,0v-.74l.15-.2Z"/><polygon class="cls-1" points="13.56 50.18 13.76 50.61 13.65 50.69 13.21 50.5 13.23 50.35 13.56 50.18"/><path class="cls-1" d="M19.5,57.61l-.58-1.7c-.44.07-2.63.31-3.74-.9l.14-.12c1.14,1.26,3.62.84,3.64.84H19l.59,1.71,3.51-.1v.17Z"/><polygon class="cls-1" points="18.27 55.23 14.88 53.34 14.96 53.19 18.36 55.08 18.27 55.23"/><path class="cls-1" d="M20.22,53.43a5,5,0,0,1-1.86-1.6l.14-.1a5,5,0,0,0,1.79,1.54Z"/><path class="cls-1" d="M17.18,52.36,17,52.27a.9.9,0,0,1,.3-.29,1.67,1.67,0,0,1,0-1,.45.45,0,0,1,.29-.25c.56-.16,1.39.65,1.61.89.23-.13.66-.42.72-.63l.17.05c-.1.33-.78.72-.86.76l-.06,0,0-.06c-.27-.28-1.05-1-1.48-.88a.23.23,0,0,0-.18.15,1.59,1.59,0,0,0,.09,1l0,.1-.11,0C17.36,52.13,17.24,52.27,17.18,52.36Z"/><polygon class="cls-1" points="23.97 56.09 20.47 51.18 20.62 51.08 24.11 55.99 23.97 56.09"/><path class="cls-1" d="M17.6,49.58l-.39-.25-.11.49s.68.33.85.39l.22-.06-.49-.49Z"/><path class="cls-1" d="M16.29,50.94s.81,0,.93-.4a1.1,1.1,0,0,0,0-.75c0-.14.33.11.33.11a1,1,0,0,1-.39,1,1.18,1.18,0,0,1-.89.25l-.11-.1Z"/><path class="cls-1" d="M25,54.72s-.46-.71-1-1.44a3.05,3.05,0,0,0-.49-.55.89.89,0,0,0-.39-.21l-.28,0h-.18l-1.31-.18,0-.19,1.37.2h.17l.31,0a1.08,1.08,0,0,1,.46.24,2.93,2.93,0,0,1,.53.6c.51.72,1,1.43,1,1.44Z"/><polygon class="cls-1" points="23.54 54.63 22.36 53.21 22.5 53.1 23.68 54.52 23.54 54.63"/><path class="cls-1" d="M4,19.77H3.84a.79.79,0,0,1-.66-.44c-.34-.66.21-1.65.24-1.69l0-.08.08,0A7.24,7.24,0,0,0,5,18.27l0,0,0,0a1.23,1.23,0,0,1-.16,1A1.32,1.32,0,0,1,4,19.77Zm-.43-2a1.87,1.87,0,0,0-.19,1.46.63.63,0,0,0,.52.34,1.19,1.19,0,0,0,.92-.34,1,1,0,0,0,.13-.83A7.71,7.71,0,0,1,3.53,17.8Z"/><path class="cls-1" d="M4.46,22.47l0-.09a3,3,0,0,1-.29-1.67A1.62,1.62,0,0,1,3,19.66l0-.16.15.06a2.23,2.23,0,0,0,1.5,0,1.22,1.22,0,0,0,.61-.82l0-.15.11.11s.4.45.29.81a2.1,2.1,0,0,1-.54.65,1.72,1.72,0,0,0-.32.36.75.75,0,0,1,0,.16,2.7,2.7,0,0,1,.23,1.11c-.07.26-.48.57-.53.61Zm-1.27-2.7a1.65,1.65,0,0,0,1.05.8l.09,0,0,.08a2.67,2.67,0,0,0,.21,1.53,1.22,1.22,0,0,0,.38-.45,3.24,3.24,0,0,0-.22-1l-.06-.19c0-.11.09-.23.37-.5a2.27,2.27,0,0,0,.49-.58A.67.67,0,0,0,5.32,19a1.3,1.3,0,0,1-.65.76A2.17,2.17,0,0,1,3.19,19.77Z"/><path class="cls-1" d="M9.44,22h-.1a1.43,1.43,0,0,1-.45-.09.82.82,0,0,1-.5-.75.73.73,0,0,1,.26-.53,1.25,1.25,0,0,1,.86-.26h0a1.08,1.08,0,0,1,.51.18.82.82,0,0,1,.27.81A.75.75,0,0,1,9.44,22Zm0-1.46a1,1,0,0,0-.64.22.54.54,0,0,0-.2.4.63.63,0,0,0,.39.59,1.34,1.34,0,0,0,.39.08c.21,0,.71,0,.77-.49a.69.69,0,0,0-.21-.65.78.78,0,0,0-.42-.14Z"/><path class="cls-1" d="M8,24.34V23l.46-.61H8.32l0,0c0-.09-.47-.93-.25-1.28a.34.34,0,0,1,.32-.16h.08V21a1.19,1.19,0,0,0,.49.87,1.24,1.24,0,0,0,1.12-.17l.13-.07v.14a1,1,0,0,1-.48.95,2.11,2.11,0,0,0-.8.58,11.93,11.93,0,0,1-.81.89Zm.16-1.26v.84a9,9,0,0,0,.65-.72,2.09,2.09,0,0,1,.86-.63.83.83,0,0,0,.38-.65,1.29,1.29,0,0,1-1.16.1,1.3,1.3,0,0,1-.57-.92s-.08,0-.09.07c-.12.19.07.74.24,1.07l.3,0Z"/><path class="cls-1" d="M8.82,51.49a1.24,1.24,0,0,1-1.2-.64,1.5,1.5,0,0,1,.26-1.38c0-.06.08-.13.09-.16A3.72,3.72,0,0,0,7.41,49a9.27,9.27,0,0,1-1-.62A2,2,0,0,1,5.76,47l-.67-.81c-.38-.45-.77-1.29-.33-1.75s1.1-.21,1.54-.1l-.84-.85c-.08,0-.25.07-.43.1a1.4,1.4,0,0,1-1.3-.32.64.64,0,0,1-.15-.78,1,1,0,0,1-.28-1.06,1,1,0,0,1,.6-.56c-.39-.3-1.42-1.18-1.43-1.78s.61-.93.86-1c-.14-.2-.47-.71-.61-1,0,0-.92-1.78-.7-2.35a.89.89,0,0,1,.53-.54,1.23,1.23,0,0,1-.1-.2c-.08-.18-.35-1.38-.38-1.51v-.07l.34-.17-.24-.09c-.34-.14-.86-.79-.73-1.12a.64.64,0,0,0,0-.27,2.24,2.24,0,0,1,.11-.71,1.28,1.28,0,0,1,.73-.83c-.07-.12-.2-.33-.35-.6s-.57-1.52-.12-1.84a.52.52,0,0,1,.56,0c.16.06.21.07.28,0s0-.66-.16-1.1c0-.13-.09-.26-.13-.39l-.13-.39c-.18-.51-.37-1-.15-1.32a.49.49,0,0,1,.44-.18c.14,0,.23,0,.29-.17a3.32,3.32,0,0,0,0-1c0-.8,0-1.34.24-1.45.42-.2,1.08.64,1.21.8l-.14.11c-.28-.38-.78-.86-1-.76s-.14.81-.13,1.3a3.64,3.64,0,0,1,0,1,.41.41,0,0,1-.46.28c-.12,0-.22,0-.3.12s0,.71.17,1.15l.14.4c0,.13.09.26.13.39.17.47.33.92.14,1.24a.34.34,0,0,1-.49.11c-.14-.05-.25-.1-.4,0s-.06,1.2.18,1.62.39.67.39.68l.06.09-.11,0a1.12,1.12,0,0,0-.71.75,1.87,1.87,0,0,0-.1.66.88.88,0,0,1,0,.34c-.08.22.36.78.64.9l.43.16.21.06-.61.3c.11.52.3,1.29.35,1.41a2.29,2.29,0,0,0,.15.27l.09.11-.15,0a.69.69,0,0,0-.51.47c-.16.39.42,1.74.68,2.21.17.31.67,1,.67,1l.06.09-.1,0s-.87.3-.86.92,1.09,1.45,1.51,1.76l.19.14H4.1a.86.86,0,0,0-.64.5c-.22.46.29.91.29.91l.07.06-.06.06a.46.46,0,0,0,.09.62A1.33,1.33,0,0,0,5,43.44a4.42,4.42,0,0,0,.46-.11l0,0,1.38,1.4-.33-.1c-.37-.12-1.37-.35-1.67,0s0,1.13.33,1.52l.7.83v0a1.91,1.91,0,0,0,.58,1.24,10.68,10.68,0,0,0,1,.6c.46.26.63.35.65.45s0,.15-.12.29a1.37,1.37,0,0,0-.25,1.23c.28.64,1.25.51,1.25.51l.33-.06,0,.17-.33.06A1.5,1.5,0,0,1,8.82,51.49Z"/><path class="cls-1" d="M7,42.61a3.28,3.28,0,0,1-.61-.72,19.81,19.81,0,0,0-1.82-2.26c-.25-.23-.44-.39-.55-.48a.34.34,0,0,1-.11-.38.73.73,0,0,1,.5-.39A1.28,1.28,0,0,0,5,38c.43-.48.27-.73-.12-1.33l-.08-.13c-.44-.68-1.16-1.94-1.17-2l0,0,.41-1,.13.09.17-.89v0a2.46,2.46,0,0,0,.46-1.24,7.65,7.65,0,0,0-.72-1.95,9.89,9.89,0,0,1-.69-1.77c-.1-.54.29-.86.65-1.17A2.31,2.31,0,0,0,4.58,26c.24-.46,0-1.17-.26-1.85-.06-.17-.12-.34-.17-.51a1.26,1.26,0,0,1,.23-1.35l.12.13-.06-.07.06.07a1.09,1.09,0,0,0-.19,1.17l.18.5a2.69,2.69,0,0,1,.25,2,2.52,2.52,0,0,1-.59.63c-.35.29-.68.57-.6,1a10.25,10.25,0,0,0,.68,1.73,7.63,7.63,0,0,1,.74,2,2.53,2.53,0,0,1-.49,1.33l-.21,1.11-.17-.11-.29.72c.12.21.74,1.3,1.14,1.91l.08.13c.39.59.62,1,.11,1.54a1.49,1.49,0,0,1-.69.43c-.19.07-.32.12-.39.29a.14.14,0,0,0,.05.18c.12.1.31.26.56.5a18.45,18.45,0,0,1,1.85,2.3,4.24,4.24,0,0,0,.58.68Z"/><path class="cls-1" d="M4.11,26.73h0a.08.08,0,0,1-.07-.1,11.42,11.42,0,0,0-.4-4.54A.08.08,0,0,1,3.68,22,.1.1,0,0,1,3.8,22a11.56,11.56,0,0,1,.4,4.62A.09.09,0,0,1,4.11,26.73Z"/><path class="cls-1" d="M4.4,32.86l-.06,0-.83-.79,0-1.28a4,4,0,0,0-1-1.4.08.08,0,0,1,0-.12.09.09,0,0,1,.12,0,4.35,4.35,0,0,1,1.11,1.49v0l0,1.22.77.74a.07.07,0,0,1,0,.12A.09.09,0,0,1,4.4,32.86Z"/><path class="cls-1" d="M2.55,31.56h0a1.45,1.45,0,0,1-1-.72.09.09,0,0,1,0-.12.1.1,0,0,1,.12,0s.35.6.86.63c.33,0,.66-.2,1-.64a.11.11,0,0,1,.12,0,.09.09,0,0,1,0,.13A1.44,1.44,0,0,1,2.55,31.56Z"/><polygon class="cls-1" points="3.98 33.7 2.69 32.3 2.87 32.23 4.06 33.58 3.98 33.7"/><path class="cls-1" d="M7,44.55,5.53,43.12v0s0-.17,0-.79c0-.45-.12-.52-.34-.65A1.2,1.2,0,0,1,5,41.53a7.44,7.44,0,0,0-.92-.5l.08-.16a7.52,7.52,0,0,1,.94.52l.17.1a.77.77,0,0,1,.42.8c0,.47,0,.68,0,.76l1.42,1.37Z"/><path class="cls-1" d="M7.94,23.06a5.44,5.44,0,0,0-1.49-2.71L5.13,21.63,5,21.51l1.45-1.4.06.05A5.53,5.53,0,0,1,8.11,23Z"/><path class="cls-1" d="M4.73,30.65l-.15-.09c.81-1.26,1.85-9.79,1.86-9.88l.18,0C6.57,21.05,5.56,29.36,4.73,30.65Z"/><path class="cls-1" d="M5.71,31.85l-.17,0a7.85,7.85,0,0,1,.92-2.39c.19-.39.37-.73.46-1s-.06-.58-.28-.84a1.13,1.13,0,0,1-.37-.95A9.26,9.26,0,0,1,8,24.08l.13.11a9.26,9.26,0,0,0-1.65,2.5,1,1,0,0,0,.33.81,1,1,0,0,1,.31,1,9.46,9.46,0,0,1-.48,1A8,8,0,0,0,5.71,31.85Z"/><path class="cls-1" d="M7.77,42.78l-.16-.07a29.52,29.52,0,0,0,.72-4.6.15.15,0,0,0,0-.08A1.17,1.17,0,0,0,7.72,38a2.28,2.28,0,0,1-.53,0,.57.57,0,0,1-.4-.32,1.15,1.15,0,0,1,.18-1,3.14,3.14,0,0,0,.47-2.21,3.21,3.21,0,0,0-1.49-2,13.35,13.35,0,0,0-1.11-.75l.1-.15s.5.31,1.12.76a3.44,3.44,0,0,1,1.56,2.07,3.4,3.4,0,0,1-.5,2.33,1.07,1.07,0,0,0-.17.88.37.37,0,0,0,.29.22,3.32,3.32,0,0,0,.48,0c.3,0,.58,0,.71.13a.26.26,0,0,1,.08.21A28.83,28.83,0,0,1,7.77,42.78Z"/><path class="cls-1" d="M6.74,41.32a8.38,8.38,0,0,1-.8-3.86v-.17a10,10,0,0,0-.87-5l.16-.07a10.07,10.07,0,0,1,.88,5.12v.17a8.42,8.42,0,0,0,.79,3.78Z"/><path class="cls-1" d="M10.67,49.7a1.62,1.62,0,0,0-.76-1,6.55,6.55,0,0,0-.88-.5c-.49-.25-.91-.46-.94-.81a1.23,1.23,0,0,1,.6-1,.62.62,0,0,1,.65-.05,4.81,4.81,0,0,1,.82.85c.3.36.72.85.87.86a6.09,6.09,0,0,1,.74.13l0,.16s-.37-.08-.7-.12-.52-.36-1-.92a4.86,4.86,0,0,0-.78-.82.47.47,0,0,0-.45.06,1.06,1.06,0,0,0-.53.83c0,.26.41.45.85.68a5.28,5.28,0,0,1,.91.52c.78.56.82,1.1.82,1.13Z"/><path class="cls-1" d="M8.24,47.09S8,47,7.39,46.42a1.79,1.79,0,0,1-.45-1.85,8.84,8.84,0,0,0-.12-2.13l.18,0a9.5,9.5,0,0,1,.11,2.2,1.62,1.62,0,0,0,.41,1.68c.56.56.75.62.76.62Z"/><path class="cls-1" d="M9.12,43.47a6.82,6.82,0,0,0-1.33-.69L7,42.58l0-.16s.58.12.84.2a6.86,6.86,0,0,1,1.4.73Z"/><path class="cls-1" d="M11.08,47.76A11.69,11.69,0,0,1,9,44.86a8,8,0,0,0-1.32-1.62l.13-.12a8.24,8.24,0,0,1,1.35,1.67,11.81,11.81,0,0,0,2,2.82Z"/><path class="cls-1" d="M9.62,44.12a2.11,2.11,0,0,1,.23.65s1,.62,1.06,1.08a2.32,2.32,0,0,1,.07.7l.61,1.22.05-.72-.38-.61A4.4,4.4,0,0,0,11,45.31a6.19,6.19,0,0,0-1.08-1Z"/><path class="cls-1" d="M3.7,42.38s.21.32.76.14.48-.76.4-1.1l.28.16a1.15,1.15,0,0,1-.3,1,1.18,1.18,0,0,1-1.17.11l0-.18Z"/><polygon class="cls-1" points="9.53 44.07 9.12 43.46 9.26 43.35 9.64 43.67 9.68 43.94 9.53 44.07"/><path class="cls-1" d="M8.58,43l-.16-.08a17.34,17.34,0,0,0,1-2.45,2,2,0,0,1,.37-.77c.14-.19.24-.33.2-.5s-.25-.28-.47-.43-.78-.51-.64-.9a2.84,2.84,0,0,1,.38-.65,2,2,0,0,0,.44-1c0-1.16-.08-3-.56-3.22-.66-.34-1.26-.1-1.84.71l-.14-.09c.62-.9,1.32-1.15,2.06-.77s.67,3.07.66,3.37a2.11,2.11,0,0,1-.48,1.11,2.72,2.72,0,0,0-.35.61c-.09.25.18.45.57.71s.5.33.54.53a.83.83,0,0,1-.22.64,1.59,1.59,0,0,0-.35.7A18,18,0,0,1,8.58,43Z"/><path class="cls-1" d="M7,33.09,6.81,33l.72-.94a1.71,1.71,0,0,1-.07-1.22A1.69,1.69,0,0,1,8,30.1a1.49,1.49,0,0,0,.18-.17c.14-.2.62-.67,1.13-.48A1.23,1.23,0,0,1,9.82,31a3.21,3.21,0,0,0-.12.59,1.14,1.14,0,0,1-.24.64,2.73,2.73,0,0,1-1.14.65l-.05-.17a2.59,2.59,0,0,0,1.05-.59.85.85,0,0,0,.2-.55,3.84,3.84,0,0,1,.13-.62,1.06,1.06,0,0,0-.41-1.33c-.4-.15-.81.26-.93.42a1,1,0,0,1-.2.2,1.54,1.54,0,0,0-.49.66A1.63,1.63,0,0,0,7.71,32l0,0Z"/><path class="cls-1" d="M8.84,31.69a1.31,1.31,0,0,1-.41-.07c-.82-.25-.64-1.32-.64-1.33l.18,0s-.16.93.51,1.14a1.1,1.1,0,0,0,1.14-.27l.13.12A1.29,1.29,0,0,1,8.84,31.69Z"/><path class="cls-1" d="M9.22,29.48l-.17,0a1.4,1.4,0,0,0-.13-.89,4.18,4.18,0,0,0-.4-.5L8.46,28l.08-.05s1.15-.78,1.27-1.41a4.68,4.68,0,0,0,.13-.82c-.22-.07-.88-.31-.79-.78a5,5,0,0,1,.16-.51,1.83,1.83,0,0,0,.17-.92c-.11-.46-.18-.66-.18-.67l.17-.05s.07.21.18.68a2,2,0,0,1-.17,1,3.72,3.72,0,0,0-.15.48c-.08.39.72.6.73.6l.06,0v.07a5.44,5.44,0,0,1-.13.91c-.12.6-1,1.27-1.27,1.46.07.08.18.23.34.45A1.52,1.52,0,0,1,9.22,29.48Z"/><path class="cls-1" d="M45.16,19.73a1.21,1.21,0,0,1-.15-1v0l0,0A7.76,7.76,0,0,0,46.54,18l.08,0,0,.07c0,.05.58,1,.23,1.7a.77.77,0,0,1-.65.44h-.12A1.34,1.34,0,0,1,45.16,19.73Zm0-.94a1,1,0,0,0,.13.83,1.16,1.16,0,0,0,.92.34.65.65,0,0,0,.52-.34,1.87,1.87,0,0,0-.19-1.46A8.06,8.06,0,0,1,45.17,18.79Z"/><path class="cls-1" d="M45.53,22.77s-.45-.35-.53-.61a2.88,2.88,0,0,1,.23-1.11,1.5,1.5,0,0,1,.06-.16,2.27,2.27,0,0,0-.33-.36,2,2,0,0,1-.53-.65c-.11-.36.27-.79.29-.81l.11-.12,0,.16a1.21,1.21,0,0,0,.61.81,2.22,2.22,0,0,0,1.51,0l.15-.06,0,.16A1.59,1.59,0,0,1,46,21.07a3.16,3.16,0,0,1-.29,1.67l-.05.09Zm-.12-2.69a1.31,1.31,0,0,1-.66-.76.66.66,0,0,0-.15.51,2.27,2.27,0,0,0,.49.58c.27.27.4.39.37.5l-.06.19a3.6,3.6,0,0,0-.23,1,1.33,1.33,0,0,0,.38.45A2.66,2.66,0,0,0,45.77,21l0-.08.08,0a1.63,1.63,0,0,0,1.05-.8A2.14,2.14,0,0,1,45.41,20.08Z"/><path class="cls-1" d="M39.78,21.69a.83.83,0,0,1,.28-.81,1,1,0,0,1,.51-.18h0a1.25,1.25,0,0,1,.86.26.69.69,0,0,1,.25.53.81.81,0,0,1-.5.75,1.31,1.31,0,0,1-.44.09h-.1A.76.76,0,0,1,39.78,21.69Zm.8-.82a1,1,0,0,0-.42.15.69.69,0,0,0-.2.65c.06.48.56.5.77.49a1.27,1.27,0,0,0,.38-.08.65.65,0,0,0,.4-.59.54.54,0,0,0-.2-.4,1,1,0,0,0-.64-.22Z"/><path class="cls-1" d="M42,24.55a11.7,11.7,0,0,1-.82-.89,2,2,0,0,0-.8-.58,1.06,1.06,0,0,1-.48-.95V22l.12.07a1.26,1.26,0,0,0,1.13.17,1.19,1.19,0,0,0,.49-.87v-.08h.08a.37.37,0,0,1,.32.16c.22.35-.21,1.19-.26,1.28l0,0h-.08l.46.61V24.7Zm-.63-1.93.3,0c.16-.33.36-.88.24-1.07a.16.16,0,0,0-.1-.07,1.25,1.25,0,0,1-.57.92,1.29,1.29,0,0,1-1.16-.1.84.84,0,0,0,.39.65,2.16,2.16,0,0,1,.86.63,7.37,7.37,0,0,0,.65.72v-.84Z"/><path class="cls-1" d="M41.25,51.84a1.25,1.25,0,0,0,1.21-.63,1.56,1.56,0,0,0-.26-1.38,1,1,0,0,1-.09-.16,4.06,4.06,0,0,1,.55-.34,8.39,8.39,0,0,0,1-.62,2,2,0,0,0,.65-1.33l.68-.81c.37-.45.77-1.29.33-1.75s-1.1-.21-1.54-.1l.84-.85c.08,0,.25.07.43.1a1.44,1.44,0,0,0,1.3-.32.64.64,0,0,0,.15-.78,1,1,0,0,0,.28-1.06,1,1,0,0,0-.6-.56c.39-.31,1.42-1.18,1.43-1.78s-.61-.93-.87-1c.14-.2.48-.71.62-1,0,0,.92-1.78.69-2.35a1,1,0,0,0-.52-.55l.1-.19c.08-.18.35-1.38.38-1.51v-.07l-.35-.17.24-.09c.34-.14.86-.8.74-1.12a.66.66,0,0,1,0-.27,1.88,1.88,0,0,0-.1-.71,1.26,1.26,0,0,0-.73-.83l.34-.6c.21-.37.58-1.52.13-1.84a.54.54,0,0,0-.57,0c-.15.06-.2.07-.27,0s0-.66.15-1.1c0-.13.09-.26.13-.39l.14-.39c.18-.51.37-1,.15-1.32a.5.5,0,0,0-.45-.18c-.14,0-.22,0-.29-.17a3.73,3.73,0,0,1,0-1c0-.8,0-1.34-.23-1.46-.43-.19-1.09.64-1.22.81l.14.11c.29-.38.79-.86,1-.76s.15.81.14,1.3a3,3,0,0,0,0,1,.4.4,0,0,0,.45.28.32.32,0,0,1,.31.12c.16.21,0,.71-.18,1.15,0,.14-.09.27-.13.4s-.09.26-.13.39c-.17.47-.33.92-.14,1.23s.34.17.49.12a.35.35,0,0,1,.39,0c.3.22.07,1.2-.17,1.62l-.4.68,0,.09.11,0a1.12,1.12,0,0,1,.71.75,2.15,2.15,0,0,1,.1.66.7.7,0,0,0,0,.34c.09.21-.35.78-.64.9l-.42.16-.21.06.61.29c-.12.53-.3,1.3-.35,1.42s-.15.26-.15.27l-.09.11.15,0a.7.7,0,0,1,.51.47,4.91,4.91,0,0,1-.69,2.21c-.17.31-.66,1-.66,1l-.07.1.11,0s.87.3.85.92-1.09,1.45-1.5,1.76l-.19.14H46a.84.84,0,0,1,.64.5c.21.46-.29.91-.3.91l-.06.06.05.06a.45.45,0,0,1-.09.62,1.31,1.31,0,0,1-1.14.27,3.76,3.76,0,0,1-.46-.11l0,0-1.39,1.4.34-.1c.36-.12,1.37-.35,1.67,0s0,1.13-.34,1.52-.69.83-.69.83l0,0v0a1.94,1.94,0,0,1-.59,1.24,9.32,9.32,0,0,1-1,.6c-.47.26-.63.35-.65.45s0,.15.12.29a1.37,1.37,0,0,1,.24,1.23c-.27.64-1.24.51-1.25.51l-.32-.06,0,.16.33.07Z"/><path class="cls-1" d="M43.1,43a3.59,3.59,0,0,0,.61-.72A19.66,19.66,0,0,1,45.52,40c.25-.23.44-.39.56-.48a.32.32,0,0,0,.1-.38.73.73,0,0,0-.49-.39,1.35,1.35,0,0,1-.62-.39c-.43-.48-.26-.73.13-1.33l.08-.13c.43-.68,1.15-1.94,1.16-2l0,0-.4-1-.13.09-.17-.89v0a2.34,2.34,0,0,1-.47-1.24A7.78,7.78,0,0,1,46,29.89a9.89,9.89,0,0,0,.69-1.77c.09-.54-.29-.86-.66-1.17a2.1,2.1,0,0,1-.54-.58c-.25-.46,0-1.17.25-1.85a5.17,5.17,0,0,0,.18-.51,1.26,1.26,0,0,0-.24-1.35l-.12.13.06-.07-.06.07A1.07,1.07,0,0,1,45.76,24c0,.16-.11.33-.17.5a2.69,2.69,0,0,0-.25,2,2.2,2.2,0,0,0,.59.63c.34.29.67.57.6,1a11.61,11.61,0,0,1-.68,1.73,7.28,7.28,0,0,0-.75,2,2.66,2.66,0,0,0,.49,1.33l.22,1.11.16-.11.3.72c-.12.21-.75,1.3-1.14,1.91l-.08.12c-.39.6-.63,1-.11,1.55a1.49,1.49,0,0,0,.69.43c.18.07.32.12.39.29a.17.17,0,0,1-.05.18c-.12.1-.32.26-.57.5a19.42,19.42,0,0,0-1.85,2.3,3.69,3.69,0,0,1-.57.67Z"/><path class="cls-1" d="M46,27.09h0a.08.08,0,0,0,.07-.1,11,11,0,0,1,.4-4.54.09.09,0,0,0-.06-.11s-.09,0-.11.06a11.17,11.17,0,0,0-.4,4.62A.08.08,0,0,0,46,27.09Z"/><path class="cls-1" d="M45.68,33.22l.06,0,.82-.79.06-1.28a4,4,0,0,1,1-1.4.09.09,0,0,0,0-.12.1.1,0,0,0-.12,0,4.35,4.35,0,0,0-1.11,1.49v0l0,1.22-.77.74a.08.08,0,0,0,0,.12A.09.09,0,0,0,45.68,33.22Z"/><path class="cls-1" d="M47.52,31.92h0a1.42,1.42,0,0,0,1-.72.09.09,0,0,0,0-.12.09.09,0,0,0-.12,0,1.3,1.3,0,0,1-.87.63c-.33,0-.66-.2-1-.64a.11.11,0,0,0-.13,0,.09.09,0,0,0,0,.12A1.45,1.45,0,0,0,47.52,31.92Z"/><polygon class="cls-1" points="46.09 34.06 47.38 32.66 47.21 32.59 46.02 33.94 46.09 34.06"/><path class="cls-1" d="M43.07,44.91l1.48-1.43v-.83c0-.45.13-.52.34-.65l.17-.11a9.31,9.31,0,0,1,.92-.5l-.07-.16a8.18,8.18,0,0,0-.95.52l-.16.1a.74.74,0,0,0-.42.8c0,.47,0,.68,0,.76l-1.43,1.37Z"/><path class="cls-1" d="M42.14,23.42a5.36,5.36,0,0,1,1.49-2.71L45,22l.12-.12-1.44-1.4-.06.05A5.53,5.53,0,0,0,42,23.38Z"/><path class="cls-1" d="M45.34,31l.15-.09c-.8-1.26-1.84-9.79-1.85-9.88l-.18,0C43.5,21.41,44.52,29.71,45.34,31Z"/><path class="cls-1" d="M44.36,32.21l.18,0a8.3,8.3,0,0,0-.92-2.39,8.73,8.73,0,0,1-.46-1c-.13-.35.06-.58.28-.84A1.13,1.13,0,0,0,43.8,27a9.52,9.52,0,0,0-1.69-2.59l-.13.12a9.5,9.5,0,0,1,1.65,2.5,1,1,0,0,1-.33.81,1,1,0,0,0-.31,1c.1.27.27.61.47,1A7.73,7.73,0,0,1,44.36,32.21Z"/><path class="cls-1" d="M42.31,43.14l.16-.07a29.67,29.67,0,0,1-.73-4.6.15.15,0,0,1,0-.08c.08-.08.35-.08.58-.08a2.2,2.2,0,0,0,.53,0,.61.61,0,0,0,.41-.32,1.18,1.18,0,0,0-.18-1,3.19,3.19,0,0,1-.48-2.21,3.25,3.25,0,0,1,1.49-2c.61-.45,1.11-.75,1.11-.75l-.09-.15s-.51.31-1.12.76a3.44,3.44,0,0,0-1.56,2.07A3.41,3.41,0,0,0,43,37a1.07,1.07,0,0,1,.18.89.39.39,0,0,1-.29.22,3.34,3.34,0,0,1-.49,0,1.13,1.13,0,0,0-.71.13.25.25,0,0,0-.07.2A28.77,28.77,0,0,0,42.31,43.14Z"/><path class="cls-1" d="M43.33,41.68a8.45,8.45,0,0,0,.81-3.86v-.17a10,10,0,0,1,.86-5l-.16-.07A10.18,10.18,0,0,0,44,37.65v.17a8.34,8.34,0,0,1-.78,3.78Z"/><path class="cls-1" d="M39.41,50.06a1.63,1.63,0,0,1,.75-1,6.55,6.55,0,0,1,.88-.5c.49-.25.92-.46,1-.81a1.24,1.24,0,0,0-.61-1,.6.6,0,0,0-.64-.05,4.48,4.48,0,0,0-.82.85c-.31.36-.72.85-.88.86a5.76,5.76,0,0,0-.73.13l0,.16s.37-.08.71-.12.52-.36,1-.92a5.82,5.82,0,0,1,.78-.82.49.49,0,0,1,.46.06,1,1,0,0,1,.52.83c0,.26-.4.45-.85.68a5.86,5.86,0,0,0-.9.51,1.78,1.78,0,0,0-.83,1.14Z"/><path class="cls-1" d="M41.84,47.45s.25-.08.85-.67a1.79,1.79,0,0,0,.45-1.85,8.8,8.8,0,0,1,.11-2.13l-.17,0A9.5,9.5,0,0,0,43,45a1.64,1.64,0,0,1-.41,1.68c-.56.56-.75.62-.76.62Z"/><path class="cls-1" d="M41,43.83a7,7,0,0,1,1.32-.69c.25-.07.82-.19.82-.2l0-.16s-.58.12-.84.2a7,7,0,0,0-1.41.73Z"/><path class="cls-1" d="M39,48.12a11.83,11.83,0,0,0,2.07-2.91,8.23,8.23,0,0,1,1.31-1.61l-.12-.13a8,8,0,0,0-1.35,1.68,11.84,11.84,0,0,1-2,2.82Z"/><path class="cls-1" d="M40.45,44.48a1.91,1.91,0,0,0-.22.65s-1,.62-1.06,1.08a2,2,0,0,0-.07.7l-.62,1.22,0-.72.37-.61a4.13,4.13,0,0,1,.29-1.13,6.19,6.19,0,0,1,1.08-1Z"/><path class="cls-1" d="M46.38,42.74s-.21.31-.76.14-.49-.76-.41-1.1l-.27.16s-.13.69.29,1a1.15,1.15,0,0,0,1.18.11v-.17Z"/><polygon class="cls-1" points="40.55 44.43 40.96 43.82 40.82 43.71 40.44 44.03 40.4 44.3 40.55 44.43"/><path class="cls-1" d="M41.5,43.36l.16-.08a17.34,17.34,0,0,1-1-2.45,1.91,1.91,0,0,0-.38-.77c-.13-.19-.23-.33-.19-.5s.25-.28.47-.43.78-.51.63-.9a2.86,2.86,0,0,0-.37-.66,2,2,0,0,1-.45-1c0-1.16.08-3,.57-3.22.66-.34,1.26-.11,1.83.71l.15-.1c-.63-.89-1.32-1.14-2.06-.76s-.67,3.07-.66,3.37a2.09,2.09,0,0,0,.47,1.11,2.78,2.78,0,0,1,.36.61c.09.25-.18.45-.57.71s-.51.33-.55.53a.8.8,0,0,0,.23.64,1.7,1.7,0,0,1,.34.7A17.75,17.75,0,0,0,41.5,43.36Z"/><path class="cls-1" d="M43.12,33.45l.15-.1-.72-1a1.67,1.67,0,0,0,.07-1.21,1.62,1.62,0,0,0-.53-.73.74.74,0,0,1-.18-.17c-.14-.2-.63-.67-1.14-.48a1.22,1.22,0,0,0-.51,1.54,3.21,3.21,0,0,1,.12.59,1,1,0,0,0,.24.64,2.68,2.68,0,0,0,1.14.65l.05-.17a2.53,2.53,0,0,1-1.05-.59.86.86,0,0,1-.21-.55,3,3,0,0,0-.13-.62A1.05,1.05,0,0,1,40.84,30c.4-.15.81.26.92.42a1,1,0,0,0,.21.2,1.46,1.46,0,0,1,.48.66,1.51,1.51,0,0,1-.09,1.13l0,0Z"/><path class="cls-1" d="M41.23,32.05a1.32,1.32,0,0,0,.42-.07c.82-.25.63-1.32.63-1.33l-.17,0s.16.93-.52,1.14a1.09,1.09,0,0,1-1.13-.27l-.13.12A1.25,1.25,0,0,0,41.23,32.05Z"/><path class="cls-1" d="M40.85,29.84l.18,0a1.4,1.4,0,0,1,.13-.89c.24-.34.39-.5.39-.51l.07-.07-.08-.05s-1.15-.78-1.28-1.41c-.09-.46-.12-.71-.13-.82.22-.07.89-.31.79-.78a3.33,3.33,0,0,0-.16-.51,1.82,1.82,0,0,1-.16-.92,6,6,0,0,1,.18-.67l-.17-.05a5.17,5.17,0,0,0-.18.68,1.81,1.81,0,0,0,.17,1,4.39,4.39,0,0,1,.15.49c.08.39-.72.6-.73.6l-.07,0V26a5.09,5.09,0,0,0,.14.92c.12.6,1,1.27,1.27,1.46-.07.08-.19.23-.35.45A1.59,1.59,0,0,0,40.85,29.84Z"/><path class="cls-1" d="M40.8,19.84a.5.5,0,0,1-.13,0c0-.2,0-.39-.05-.58a9.21,9.21,0,0,0-1.32-3.49,20.7,20.7,0,0,0-2.61-3.52,16.84,16.84,0,0,0-7-4.69,14.57,14.57,0,0,0-3.93-.77,15.24,15.24,0,0,0-9.49,2.66,18.86,18.86,0,0,0-6.36,7A7.84,7.84,0,0,0,9,19.15c0,.18,0,.37,0,.58L6.5,18.66l-.89-.4a2.47,2.47,0,0,1,.11.36L8.94,20a1.59,1.59,0,0,1,1,.37,4.72,4.72,0,0,0,2.24-3c0,.16,0,.29,0,.41l0,.39a.27.27,0,0,0,.2.29l.44.19c0,.08,0,.17.05.21a.57.57,0,0,1,.09.49c-.11.81-.23,1.63-.32,2.45s-.2,1.91-.28,2.87c-.07.8-.12,1.6-.14,2.4,0,1.55-.08,3.1-.09,4.64,0,1.2,0,2.41.1,3.61a13,13,0,0,0,.7,3.48,6,6,0,0,0,2.52,3.35l-.47.61a.17.17,0,0,1-.14,0,15.94,15.94,0,0,1-2.78-1.37,4.21,4.21,0,0,0,1.13-1.32c-.31.16-.57,0-.84-.08a2.64,2.64,0,0,0-2,.08,4.64,4.64,0,0,0-.74.51.42.42,0,0,0-.12.28c0,.85,0,1.7,0,2.54,0,.08,0,.15,0,.26h0a1.05,1.05,0,0,1-.07.4A7.35,7.35,0,0,1,11,45.42l1.32.69h-.1a.79.79,0,0,1,.38.29,2.51,2.51,0,0,1,.58.16,2.73,2.73,0,0,1,1.48,1.26.87.87,0,0,1,.11.32H15a2.37,2.37,0,0,1-.09-.36.29.29,0,0,1,0-.16c.23-.36.23-.36.64-.22l1,.33c.35.12.35.12.26.49h0a1.13,1.13,0,0,1,.16.26.94.94,0,0,1,.06.5.9.9,0,0,1,.09.32.7.7,0,0,1,.2.08.28.28,0,0,1,0-.12c0-.46-.05-.93-.05-1.39,0-.2,0-.3-.25-.36a31.86,31.86,0,0,1-4.84-1.87c-.71-.36-1.38-.81-2.07-1.22a.46.46,0,0,1-.15-.16,24.92,24.92,0,0,0,7.45,3c-.16-.54-.24-1,.17-1.38a2.78,2.78,0,0,0,.57.32c.86.21,1.72.42,2.59.57a23.62,23.62,0,0,0,4.2.31A24.86,24.86,0,0,0,31,46.33c.41-.11.52-.18.67-.39A.9.9,0,0,1,32,47a.58.58,0,0,0,0,.18c0,.17.09.22.29.16.71-.2,1.43-.38,2.13-.61a19.87,19.87,0,0,0,4.89-2.24l.07,0,0,.07c-.53.32-1,.66-1.6,1a28.88,28.88,0,0,1-5,2c-.19.06-.37.13-.56.17s-.2.13-.2.28q0,.56,0,1.11a.84.84,0,0,1-.45.77A11.21,11.21,0,0,1,28,51.1a16.83,16.83,0,0,1-4.13.28,13.35,13.35,0,0,1-5.28-1.24,9.09,9.09,0,0,1-.95-.56l.08.13a.83.83,0,0,1,.27.5l1,.51a4.28,4.28,0,0,1,.46.05,5.11,5.11,0,0,1,1.54.61c.92.12,2.92.3,3,.29H25.1a10.26,10.26,0,0,0,1.36,0l.78-.11,1.29-.18.18,0c.45-.08.88-.23,1.31-.34l0,0,2-1,.05.38c.06,0,.1,0,0,0a1,1,0,0,1,.29,0,.6.6,0,0,1,0-.63l0,0a1,1,0,0,1,0-.39,1.57,1.57,0,0,1,.09-.23s0-.11,0-.16a.75.75,0,0,1,.14-.73l-.12.1,0,0c-.07-.39-.07-.38.31-.51s.72-.22,1.07-.35c.14-.05.22,0,.28.09a.16.16,0,0,0,.06.08.59.59,0,0,1,.14.71l.09.05.19.12a.79.79,0,0,1,.08-.48,2.6,2.6,0,0,1,1.64-1.36,3.92,3.92,0,0,1,.91-.13.41.41,0,0,1,.49.4,8.67,8.67,0,0,1,0,1.14s-.08.1-.14.12l-.54.15a1.35,1.35,0,0,0-.94.9c0,.09-.07.19-.11.29a1.51,1.51,0,0,1,.18.26l.06-.18a1.46,1.46,0,0,0,.07-.19,1.2,1.2,0,0,1,.93-.87l.71-.17a4.13,4.13,0,0,1,.15-1.56L38,46.9c-.12-.51-.49-.69-1-.63l1.62-.84a2.32,2.32,0,0,0-.16.51,1,1,0,0,1,.07-.15,3.88,3.88,0,0,1,.93-1.09c.33-.27.75-.42.76-.86a.81.81,0,0,1,.22-.56.43.43,0,0,1,0-.05l-.56.54V42.14c0-.41,0-.81,0-1.22a.23.23,0,0,0-.08-.18,4.23,4.23,0,0,0-1.19-.68,3.18,3.18,0,0,0-1.62.09c-.26.07-.51.22-.79,0l0,.08,1.08,1.31c-.28.15-.58.34-.91.49-.63.29-1.27.56-1.9.84-.13.05-.2,0-.28-.08s-.25-.33-.38-.51l.34-.19a5.54,5.54,0,0,0,2-2.36A11.17,11.17,0,0,0,37,36.68a26.38,26.38,0,0,0,.31-4.44c0-1.38,0-2.75,0-4.13s-.11-2.67-.2-4-.22-2.42-.34-3.63c0-.37-.1-.75-.16-1.12a.45.45,0,0,1,.1-.4,1.41,1.41,0,0,0,.12-.29,2.62,2.62,0,0,1,.36-.15.35.35,0,0,0,.26-.37c0-.23,0-.47,0-.7a.64.64,0,0,1,.06-.16,4.43,4.43,0,0,0,2.18,3.31l.11-.08a3.61,3.61,0,0,1,.49-.21,1.6,1.6,0,0,1,.88-.31l2.64-1.13A2.53,2.53,0,0,1,44,18.5ZM15,47.16l-.21.29-.48-.54Zm19.56.5-.28-.36.87-.31Zm5.12-30.57.11.24c.21.51.21.51-.34.78a5.08,5.08,0,0,0-1.16-2l.49-.67C39.07,16,39.36,16.54,39.65,17.09ZM37.76,14c.23.17.19.31.05.51-1,1.39-2,2.8-3,4.2a.56.56,0,0,1-.15.16c0-.3-.11-.57,0-.9a1.19,1.19,0,0,1,.5-.58c.06,0,.08-.12.11-.18a1.66,1.66,0,0,1,.15-.33l2.17-2.76Zm-2.92,6.47-.06,0a.61.61,0,0,1,.08-.25c.34-.4.69-.78,1-1.18.09-.1.15-.11.23,0Zm.55-.29-.54.88c-.1-.5.35-.61.48-.91Zm-.61,4.67H33.32c0-.1,0-.19,0-.28.17-.83.34-1.65.5-2.47,0-.13.08-.2.22-.19h.25c.16,0,.25.08.26.27,0,.85.11,1.7.17,2.55A.59.59,0,0,1,34.78,24.89Zm-21.09-6,1.19,1.35c0,.05,0,.14,0,.21l-.06,0L13.54,19ZM13.3,19l-.2-.26.37-.26.19.25Zm1.59,5.07c0-.63.11-1.26.15-1.89,0-.18.1-.23.26-.24.44-.05.46,0,.53.4l.36,2.32c0,.06,0,.13,0,.19l-1.37-.08C14.86,24.58,14.87,24.34,14.89,24.09Zm.37-6.42c-.26-.16-.48-.29-.69-.45-.05,0,0-.15-.05-.23s0-.39-.07-.64c.28.16.52.3.75.45a.1.1,0,0,1,.06.08Zm.07.1.21-.13.18.3-.41.26-.2-.29Zm.22.49.17-.12.73.86c.7.85,1.4,1.71,2.12,2.55a.28.28,0,0,1,0,.41C17.56,20.73,16.56,19.5,15.55,18.26Zm.78,5,.75.92a4.35,4.35,0,0,1-.34.41.23.23,0,0,0,0,.35A6,6,0,0,1,18,27.44c.05.23.08.46.12.7l-1-.7a.24.24,0,0,1-.09-.13c-.23-1.29-.46-2.58-.68-3.87A.68.68,0,0,1,16.33,23.29Zm1.44,7.91a7.07,7.07,0,0,0,.47-2.95A5.91,5.91,0,0,0,17,25.09l-.15-.2s0,0,0-.07a9.06,9.06,0,0,0,2-3.09c.6.19,1.16.4,1.75.54a5.23,5.23,0,0,0,3,0,3.3,3.3,0,0,0,1.17-.69.37.37,0,0,1,.51,0,3.5,3.5,0,0,0,2.84.89,7.15,7.15,0,0,0,2.35-.69l.13-.05c.17.36.33.71.51,1.05a8.34,8.34,0,0,0,1.42,1.94.2.2,0,0,1,0,.31,6,6,0,0,0-.93,5.78c.27.78.57,1.56.82,2.35a4.55,4.55,0,0,1,.14,2.37,3,3,0,0,1-2.25,2.3,8.56,8.56,0,0,1-2.25.27,5.11,5.11,0,0,0-2.19.44,6.58,6.58,0,0,0-.73.42.2.2,0,0,1-.24,0,5,5,0,0,0-2.84-.85,19.23,19.23,0,0,1-2.4-.17,3.18,3.18,0,0,1-2.32-1.35,3.41,3.41,0,0,1-.52-2.26A10.51,10.51,0,0,1,17.77,31.2Zm7.07-9.93v-.62h.34l.06.62Zm7.61,6.23c-.3.22-.62.43-1,.65a6.09,6.09,0,0,1,1.43-3.32l-.46-.53c.26-.32.52-.62.78-.93l0,0c-.12.71-.23,1.42-.35,2.13s-.18,1.14-.29,1.71A.44.44,0,0,1,32.45,27.5ZM31,22.1a.26.26,0,0,1,0-.41c.93-1.1,1.84-2.21,2.76-3.31l.16-.19.18.11ZM34.58,18l-.2.3L34,18l.19-.3Zm-.15-1a.15.15,0,0,1,.08-.11c.22-.14.45-.27.73-.43,0,.3-.06.56-.1.82a.16.16,0,0,1,0,.09l-.66.41ZM15,10.83a16.07,16.07,0,0,1,5.16-3,14.56,14.56,0,0,1,3.76-.73,15,15,0,0,1,9.92,3,17,17,0,0,1,2.23,1.92l.13.14-.59.67c-.86,1-1.71,1.92-2.56,2.89l-.08.09c-.19.19-.21.19-.4,0a15.71,15.71,0,0,0-2.73-2.14,9.91,9.91,0,0,0-4.17-1.39,9.28,9.28,0,0,0-5.2,1.07,14,14,0,0,0-3.27,2.39c-.19.18-.22.18-.38,0l-3.16-3.64-.06-.1C14.09,11.64,14.54,11.22,15,10.83Zm16,5,.38-.62,1.08,1A2.39,2.39,0,0,1,30.45,16a2,2,0,0,1-1.24-1.51A3.3,3.3,0,0,1,31.05,15.82ZM29.41,14.2l.24-.3L31.21,15l-.19.33a8.61,8.61,0,0,0-.74-.65A6.5,6.5,0,0,0,29.41,14.2ZM18.8,15.75a3.58,3.58,0,0,1,1.87-1.29A2,2,0,0,1,19.33,16a2.69,2.69,0,0,1-2.07.11l1.16-1Zm-.16-.84,1.56-1.07.28.36a3.44,3.44,0,0,0-1.62,1.08Zm-6.42-1.35c.36-.45.73-.9,1.12-1.36.28.31.53.59.77.88.8.92,1.6,1.86,2.42,2.78a1.86,1.86,0,0,0,1.57.71,3.1,3.1,0,0,0,2.51-1.21,3,3,0,0,0,.33-.78.38.38,0,0,0-.1-.41,4.82,4.82,0,0,1-.35-.44,8.91,8.91,0,0,1,8.88,0c-.11.14-.21.27-.33.4a.43.43,0,0,0-.11.43A2.18,2.18,0,0,0,30,16.11a3.41,3.41,0,0,0,2.18.49,1.36,1.36,0,0,0,.53-.22,14.15,14.15,0,0,0,2.21-2.3c.46-.48.89-1,1.34-1.51l.15-.16,1.17,1.38-2.12,2.68,0,0c0-.36,0-.37-.34-.18l-.69.4a.27.27,0,0,0-.17.29,1,1,0,0,1,0,.17.46.46,0,0,1-.18.43.61.61,0,0,0-.29.56s0,.07-.06.1l-2.79,3.35s0,0-.06.05c-.06-.19-.17-.15-.32-.07a6.57,6.57,0,0,1-2.5.73,3.26,3.26,0,0,1-2.3-.62l-.13-.07,0-.07.3,0,.66.1a.32.32,0,0,0,.19,0c.31-.17.62-.33.91-.51s.12-.16-.14-.26a4,4,0,0,0,.41-.22c.15-.1.32-.21.28-.44,0,0,0-.08.07-.12a.59.59,0,0,0,0-.82.5.5,0,0,1,0-.13,2,2,0,0,0-.06-.26c-.11-.31-.2-.35-.48-.22-.11-.23-.21-.47-.33-.69s-.13-.21-.36-.09a1.16,1.16,0,0,0-.92-.57c-.3,0-.3,0-.26.26a3.59,3.59,0,0,0-.43.14c-.16.06-.16.12,0,.22l.27.17c-.14.11-.27.21-.39.32s-.12.13,0,.2l1,.62c-.19,0-.2.14-.14.27a.23.23,0,0,1-.07.32,3.71,3.71,0,0,0-.23.32c-.09.1,0,.32-.27.31s-.29,0-.43,0c-.32,0-.64-.09-.93-.13l-.43-.75.09-.51c.16-.13.39-.32.63-.48a1.59,1.59,0,0,1,.35-.13.24.24,0,0,0,.14-.12s-.06-.1-.1-.13-.15-.1-.23-.16l.56-.31a1.38,1.38,0,0,0-1-.28l0-.14c.05-.16,0-.21-.17-.18a1.18,1.18,0,0,0-1,.65c-.25-.24-.27-.24-.46,0a3.07,3.07,0,0,0-.17.31c0,.1-.09.2-.13.3-.33-.13-.53,0-.59.36a.56.56,0,0,1-.14.29.62.62,0,0,0,0,.68c0,.09,0,.2.08.29a1.32,1.32,0,0,0,.26.36,1.74,1.74,0,0,0,.36.22l-.2.16a.73.73,0,0,0,.19.2,2.43,2.43,0,0,1,.57.37.78.78,0,0,0,.75.16,1.5,1.5,0,0,1,.89,0,2.57,2.57,0,0,1-1,.52,5,5,0,0,1-2.87,0c-.58-.14-1.12-.4-1.69-.57a1.18,1.18,0,0,1-.56-.44c-.79-.95-1.59-1.91-2.37-2.87a3.39,3.39,0,0,1-.29-.57c-.05-.08-.15-.13-.21-.2a.32.32,0,0,1-.08-.22.65.65,0,0,0-.47-.78,3.7,3.7,0,0,1-.51-.29c-.17-.09-.2-.08-.26.14l-.82-1.06-1.13-1.47C12.23,13.7,12.19,13.59,12.22,13.56Zm15.83,6,.17-.07a.54.54,0,0,1-.74.67C27.82,20,27.75,19.63,28.05,19.52Zm-.14-.78a.39.39,0,0,1-.05.67,1.17,1.17,0,0,0-.11-.3C27.62,18.9,27.74,18.81,27.91,18.74Zm-1.09,1.9a.75.75,0,0,1-.73.54c-.06-.39-.06-.4.33-.49C26.55,20.66,26.68,20.66,26.82,20.64Zm-.05-.76c.19-.12.4-.21.63-.33a.69.69,0,0,1-.34.77c-.1.05-.23.18-.35,0S26.57,20,26.77,19.88Zm.14,1.48a.94.94,0,0,1-.85,0C26.37,21.33,26.62,21.2,26.91,21.36Zm-.13-.25c.17-.26.24-.27.74-.08C27.25,21.12,27,21.23,26.78,21.11Zm.28-.43a.36.36,0,0,1,.44-.3,2.74,2.74,0,0,0,.5,0A1,1,0,0,1,27.06,20.68Zm.58-1c-.06-.18-.07-.42-.41-.25v-.08l.24-.44A1,1,0,0,1,27.64,19.71Zm-.2-1a.15.15,0,0,1-.13,0c-.33-.19-.4-.39-.08-.81l.27.68S27.47,18.72,27.44,18.75Zm-.39.57-.41-.69.06,0a1.13,1.13,0,0,1,.22.11C27.28,18.9,27.28,18.91,27.05,19.32Zm-.22-1c-.31-.22-.64-.39-.74-.81a.93.93,0,0,1,.65.3A.4.4,0,0,1,26.83,18.28Zm-.27,0-.19.2L25.85,18l0-.05Zm-.55.14-.49.06C25.69,18.21,25.79,18.2,26,18.43Zm.71.77-.95-.49C26,18.5,26.55,18.69,26.72,19.2Zm-.37.2.55.11v.06l-.36.25-.23-.37Zm.24,1.07-.54.14c-.15-.25-.11-.41.21-.7Zm-4.43-.86c0,.09.11.16.16.25a.85.85,0,0,1,.11.14.6.6,0,0,1-.73-.6c0-.16.08-.18.2-.1A.48.48,0,0,1,22.16,19.61Zm0-1.05c.18.07.25.16.13.35a2.71,2.71,0,0,0-.13.3C21.87,19,21.87,18.79,22.12,18.56Zm2.61-.2-.68-.06C24.27,18.05,24.4,18.06,24.73,18.36Zm-.32-.74.41.08v.06l-.17.07ZM23,19.4l.59-.09,0,.06-.23.34Zm.22.73c-.08.1-.14.16-.27.11a.66.66,0,0,1-.39-.8,1.36,1.36,0,0,1,.69.42C23.36,20,23.33,20,23.25,20.13Zm.46-.34c.18.27.34.48.26.79l-.63-.23Zm-.5-.59c.22-.47.49-.78,1.1-.68A4.3,4.3,0,0,1,23.21,19.2Zm.14-1a1.73,1.73,0,0,1,.89-.38C24,18.06,23.77,18.38,23.35,18.24ZM23.3,18a.71.71,0,0,1,.76-.63C24,17.7,23.91,17.75,23.3,18Zm.13.47-.47.7C22.73,18.76,22.82,18.63,23.43,18.47Zm-.67.1c-.05,0-.13,0-.16,0a.16.16,0,0,1,0-.16c.09-.2.19-.4.31-.64C23.13,18.17,23.09,18.37,22.76,18.57Zm0,.7c-.3-.1-.4,0-.43.26a.92.92,0,0,1,.2-.74Zm-.23.95,0-.06.3.33-.06.06a1.24,1.24,0,0,1-.91-.4Zm.55.76a.81.81,0,0,1-.69-.12C22.85,20.68,22.9,20.69,23.09,21Zm-.1.18.79.13a.77.77,0,0,1-.8-.06Zm.65-.07a1,1,0,0,1-.59-.56,2,2,0,0,1,1.05.37A.33.33,0,0,1,23.64,21.09ZM12,13.83l.6.77c.53.7,1.08,1.39,1.61,2.09a.93.93,0,0,1,.15.39.4.4,0,0,0,.23.38c.15.08.28.18.43.27l-.06,0,.06.3a3.12,3.12,0,0,1,.05.44,2.53,2.53,0,0,1,0,.43l-3.29-4.77Zm-1,1.39.5.68c-.25.35-.49.66-.69,1s-.34.7-.52,1.07l-.54-.35A12.21,12.21,0,0,1,11,15.22Zm.91,2.3A4.45,4.45,0,0,1,10,20.06c-.24.17-.4,0-.59-.11s-.14-.19-.12-.31c0-.37.09-.74.15-1.1s.11-.41.18-.65l.77.51a6.87,6.87,0,0,1,1.26-2.18A1.21,1.21,0,0,1,11.88,17.52Zm.25-1.09c-.26-.48-.55-.93-.85-1.38a.25.25,0,0,1,0-.34c.09-.11.16-.22.26-.35l.83,1.2c.84,1.22,1.69,2.43,2.5,3.67.13.2.07.51.1.77l-.08,0c-.24-.27-.5-.54-.73-.82a4.8,4.8,0,0,0-.55-.71.87.87,0,0,1-.26-.68s-.06-.11-.1-.16a.05.05,0,0,0,0,0A2.16,2.16,0,0,1,12.13,16.43Zm.94,2.06,0,0c-.63-.25-.65-.28-.62-1.11l.71.4a.2.2,0,0,1,.08.13c0,.16,0,.32,0,.48S13.2,18.55,13.07,18.49Zm2.3,23.22a5,5,0,0,1-1.58-1.8,10.37,10.37,0,0,1-1-3.29A27.28,27.28,0,0,1,12.49,31s0,0,0-.05a.38.38,0,0,1,.33.4c.06,1.05.17,2.1.26,3.18l.21,0L13,31.14l.75-.09c.3,0,.36.07.35.35A15.25,15.25,0,0,0,14.35,35s0,0,0,0l.17,0a15.67,15.67,0,0,1-.28-3.64l.18.21a.55.55,0,0,0,.55.23c.14,0,.42.29.42.47a9.42,9.42,0,0,0,.28,2.31c.09.33.2.64.31,1l.19-.07a9.16,9.16,0,0,1-.56-3.11l.14.15c.34-.26.46-.25.79,0s.36.34.25.82a4.91,4.91,0,0,0-.05,2.09A3.15,3.15,0,0,0,19.19,38l.38.11-1.3.71A1.93,1.93,0,0,1,17,37h-.18s0,.06,0,.08A2,2,0,0,0,18,38.87c.2.1.34.2.28.48l-.41.11a2.78,2.78,0,0,0-.55.14.36.36,0,0,1-.47-.13l-.79-1-.12.06a.07.07,0,0,0,0,.05,3.7,3.7,0,0,0,1,1.26c.14.11.14.2,0,.3l-.29.13c-.47.19-.5.22-.71.64-.44-.3-.7-.65-1.39-1.87-.14,0-.18.06-.12.21a4.93,4.93,0,0,0,1.43,1.87.28.28,0,0,1,.08.22,2.51,2.51,0,0,1-.35.44S15.42,41.75,15.37,41.71Zm.43.53,2.12.95s0,.05,0,.06c-.24.36-.25.37-.66.25-.58-.15-1.16-.33-1.74-.5l-.22-.08ZM12.75,40.4a2.62,2.62,0,0,1-.8.79.23.23,0,0,1-.18,0c-.39-.26-.77-.54-1.2-.85A2.84,2.84,0,0,1,12.75,40.4Zm4.3,6.5A22.69,22.69,0,0,1,10.12,44a.33.33,0,0,1-.17-.32c0-.8,0-1.6,0-2.4V41l.21.14a19.41,19.41,0,0,0,8.31,3.39.9.9,0,0,1,.36.12c.14.09.13.2,0,.29l-.32.15-.45.18A1.39,1.39,0,0,0,17.05,46.9Zm2.73-.64-1.69-.42v-.11l1.69-.51Zm-.09-1.4c-.17.08-.36.14-.58.22.12-.33.06-.55-.22-.66a4.22,4.22,0,0,0-.85-.21,18.93,18.93,0,0,1-7.87-3.36.44.44,0,0,1-.11-.09l.25-.21c.36.26.7.53,1.06.78a17.37,17.37,0,0,0,6,2.55c.58.14,1.17.23,1.75.33a1,1,0,0,1,.62.46S19.74,44.83,19.69,44.86Zm9.71-.51c-.19.21-.31.42-.14.7a.62.62,0,0,1,0,.31c0,.26,0,.53,0,.8s0,.2-.17.22c-.65.08-1.3.21-1.95.24-1.1.07-2.2.1-3.31.09a21.76,21.76,0,0,1-3.6-.37c-.11,0-.18-.05-.17-.18,0-.45.07-.9.07-1.35a.88.88,0,0,0-.18-.46,1.62,1.62,0,0,0-1.26-.56c-.25,0-.49-.09-.77-.14a1.39,1.39,0,0,1,.27-.34c.07-.06.21,0,.31,0a5,5,0,0,0,2.83-.43,6.48,6.48,0,0,0,2.16-1.72,2.32,2.32,0,0,1,.4-.43L23,42.15h.12c-.2.48-.09.74.38,1a.6.6,0,0,1,.19.16,1.34,1.34,0,0,0,2.08.07.93.93,0,0,1,.35-.23.72.72,0,0,0,.44-.87c-.05-.33-.29-.52-.43-.77s-.34-.57-.49-.86a8.42,8.42,0,0,0,2,1.94,4.79,4.79,0,0,0,2.78.81h.17c.42,0,.42,0,.65.37-.25,0-.49.1-.73.12A1.53,1.53,0,0,0,29.4,44.35Zm1.85,1.56-1.66.4v-1l1.66.52Zm8.22-4.51c0,.78,0,1.56,0,2.33a.34.34,0,0,1-.17.32,19.38,19.38,0,0,1-4.69,2.22c-.73.24-1.46.45-2.23.68a4,4,0,0,0,0-.5,1.18,1.18,0,0,0-.58-.87,9.86,9.86,0,0,0-.92-.46l-.38-.19a.45.45,0,0,1,.4-.27,20,20,0,0,0,3.51-.87,21,21,0,0,0,4.81-2.46l.24-.16C39.46,41.27,39.47,41.34,39.47,41.4Zm-2.81-.85a2.24,2.24,0,0,1,2.69.33c-.43.18-.84.36-1.27.51a.72.72,0,0,1-.74-.16C37.11,41,36.9,40.79,36.66,40.55Zm.88,1.22a1.3,1.3,0,0,1,.4-.09l0,.06-.41.24a19.14,19.14,0,0,1-6.7,2.35l-.14,0c-.43.11-.56.3-.52.76l-.57-.24c-.1,0-.12-.13,0-.21a1.12,1.12,0,0,1,.71-.43A18.57,18.57,0,0,0,37.54,41.77ZM34,43.05l-.13.06-2.09.56a.21.21,0,0,1-.28-.1c-.07-.12-.17-.23-.27-.37l2.14-1Zm2.78-11.77c0-.17.12-.19.26-.25,0,.13,0,.23,0,.33a31.51,31.51,0,0,1-.13,4.12,12.39,12.39,0,0,1-1.24,4.57,5.06,5.06,0,0,1-1.55,1.77.25.25,0,0,1-.37,0,1.92,1.92,0,0,1-.18-.22.27.27,0,0,1,.08-.43,4.72,4.72,0,0,0,1.46-2l-.18-.09A4.75,4.75,0,0,1,33.42,41c-.05-.45-.39-.58-.73-.72a.52.52,0,0,1-.13-.06c-.28-.14-.28-.18,0-.37a3.63,3.63,0,0,0,1-1.27l-.15-.1-.08.13-.84,1a.19.19,0,0,1-.18,0c-.39-.09-.78-.2-1.18-.31a2.08,2.08,0,0,1,0-.43c0-.06.08-.13.15-.16a2.05,2.05,0,0,0,1.17-1.63.41.41,0,0,0,0-.11.4.4,0,0,0,0-.11c-.11,0-.19,0-.2.12a1.87,1.87,0,0,1-1.08,1.55.29.29,0,0,1-.32,0l-1-.52c.3-.09.54-.15.77-.23a3.15,3.15,0,0,0,2.29-3.09,5.51,5.51,0,0,0-.21-1.67.26.26,0,0,1,.08-.3c.07-.05.13-.13.2-.18.28-.2.39-.35.74,0l.22-.28a8.48,8.48,0,0,1-.6,3.21c.12.12.18.07.24-.07a8.73,8.73,0,0,0,.57-3.15.44.44,0,0,1,.46-.44.94.94,0,0,0,.41-.18,3.94,3.94,0,0,0,.3-.34A16.27,16.27,0,0,1,35,35.13c.15.08.19,0,.22-.1a16,16,0,0,0,.3-3.45c0-.44,0-.48.48-.4.18,0,.36,0,.57.06,0,.29,0,.61-.05.92-.09.74-.19,1.47-.28,2.21,0,.11-.1.26.17.25.05-.33.12-.68.15-1C36.6,32.83,36.67,32.05,36.73,31.28Zm-.34-12.22L36,18.8l.19-.25.37.26Zm.84-.89a.23.23,0,0,1-.12.15l-.5.22c-.11.05-.16,0-.16-.1s0-.36,0-.53a.16.16,0,0,1,0-.09l.75-.42C37.27,17.68,37.26,17.93,37.23,18.17Zm0-1a1.11,1.11,0,0,1-.29.22,1.39,1.39,0,0,1-.21.11.63.63,0,0,0-.48.71c0,.05-.07.12-.11.17l-.25.31-.79,1c-.1.13-.22.25-.36.41,0-.23,0-.42,0-.6a.41.41,0,0,1,.05-.19c1.1-1.56,2.19-3.12,3.29-4.67l.07-.09c.13.18.25.34.35.51s0,.12,0,.17C38.07,15.86,37.67,16.52,37.26,17.17ZM40,20.28a.39.39,0,0,1-.28-.06,3.92,3.92,0,0,1-1.83-3.11,1.11,1.11,0,0,1,.28-.78,6.91,6.91,0,0,1,1.19,2.22l.75-.49c.09.41.18.78.26,1.16a3,3,0,0,1,0,.52A.44.44,0,0,1,40,20.28Z"/><path class="cls-1" d="M24.81,51.67a1.16,1.16,0,0,0-.62,1.18,1,1,0,0,0,1.2.95l.13-.26s-.7.24-1-.29a.89.89,0,0,1,.4-1.28.94.94,0,0,1,1.06.79h.1l.12-.17s-.33-.8-.68-.95A.86.86,0,0,0,24.81,51.67Z"/><polygon class="cls-1" points="23.2 58.79 23.06 58.69 24.04 57.4 24.18 57.5 23.2 58.79"/><polygon class="cls-1" points="39.71 20.59 41.19 19.99 46.48 17.96 45.89 17.68 42.55 19.09 40.49 20.05 39.71 20.59"/><path class="cls-1" d="M45.14,18.19s-.09.3-.12.46.12,0,.12,0l1-.41.42-.2.06-.13-.18-.29-.3,0H46l-.46.22Z"/><polygon class="cls-1" points="40.23 45.13 40.55 44.43 40.5 44.14 40.44 44.02 39.71 45.04 39.93 45.19 40.23 45.13"/><path class="cls-1" d="M20.48,53.45l0,.13c-.18,1-.87,1.14-1.1,1.15,0-.24-.3-.42-.73-.71l-.32-.23a4.47,4.47,0,0,1-1.13-1.46l0,0-.68,0v.18l.57,0a4.42,4.42,0,0,0,1.16,1.47c.11.09.22.16.32.23s.35.24.46.33a1.19,1.19,0,0,1-.64.83,5.07,5.07,0,0,0,1.71-.66h0a1.5,1.5,0,0,0,.57-.92l3.33,2.44.11-.14Z"/><path class="cls-1" d="M36.92,50.58a7.07,7.07,0,0,1-1.53.82c-.65.2-.84.47-.72.8s.45.8,1.08.23l.23.13v.19l-.28.17a1.07,1.07,0,0,1-.17.8c-.26.41-.62.8-.57,1s0,.12.4.32,1.12.57,1.12.57A9,9,0,0,1,34.22,58s-2.26-.48-2.55-.15a4.87,4.87,0,0,0-.56,1.21,8.82,8.82,0,0,1-2.52-.17l.44-.22,1.86.15s.19-1.12.86-1.29a8.6,8.6,0,0,1,2.45.25,21.1,21.1,0,0,0,1.65-1.69l.31-.44s-1.5-.38-1.49-.73a4.81,4.81,0,0,1,.6-1.29,1.47,1.47,0,0,0,.16-.68.87.87,0,0,1-.89-.47.92.92,0,0,1,.46-1.3c.44-.18,1-.28,1.11-.51a1.83,1.83,0,0,0,.18-.68l.27.16-.12.41.44-.15Z"/><path class="cls-1" d="M34.74,48.84a.55.55,0,0,1,.07.32.64.64,0,0,1-.08.32.61.61,0,0,1,.37.55.83.83,0,0,1-.34.86c-.22.14-1,.45-1.18.75a1.1,1.1,0,0,0-.06.61l1.22.4c.1,0,.69.29.69.29l.08.2a7.51,7.51,0,0,1-1.38-.22c-.57-.16-.81-.33-.87-.81a.94.94,0,0,1,.45-.93l.07-.22a1.15,1.15,0,0,0,.84-.31.67.67,0,0,0,0-.87c-.11-.11-.07-.57-.14-.65a.69.69,0,0,1-.12-.16l.12-.22.17-.06Z"/><path class="cls-1" d="M30.57,57.63l.58-1.7c.44.07,2.63.31,3.73-.9l-.13-.12c-1.14,1.26-3.62.85-3.64.84H31l-.59,1.71-3.51-.1v.17Z"/><polygon class="cls-1" points="31.8 55.25 35.19 53.36 35.1 53.21 31.71 55.1 31.8 55.25"/><path class="cls-1" d="M29.85,53.45a5,5,0,0,0,1.86-1.6l-.14-.09a5,5,0,0,1-1.79,1.53Z"/><path class="cls-1" d="M32.89,52.38l.15-.09a1,1,0,0,0-.31-.29,1.6,1.6,0,0,0,.06-1,.44.44,0,0,0-.29-.24c-.56-.17-1.39.64-1.61.88-.23-.13-.66-.42-.72-.63L30,51c.1.33.78.72.86.76l.06,0,0-.05c.27-.29,1.05-1,1.48-.89a.34.34,0,0,1,.18.15,1.58,1.58,0,0,1-.09,1l0,.1.11,0C32.71,52.15,32.83,52.3,32.89,52.38Z"/><polygon class="cls-1" points="26.1 56.11 29.59 51.2 29.45 51.11 25.96 56.02 26.1 56.11"/><path class="cls-1" d="M25.09,54.75s.47-.72,1-1.44a3.15,3.15,0,0,1,.49-.56.88.88,0,0,1,.39-.21,1.27,1.27,0,0,1,.28,0l.18,0,1.31-.18,0-.19-1.37.2h-.17l-.31,0a1.1,1.1,0,0,0-.46.25,2.85,2.85,0,0,0-.53.59c-.51.72-1,1.44-1,1.44Z"/><polygon class="cls-1" points="26.52 54.65 27.7 53.23 27.57 53.13 26.39 54.54 26.52 54.65"/><path class="cls-1" d="M29.58,53.47l0,.14c.17,1,.87,1.13,1.1,1.14,0-.24.3-.42.73-.71l.32-.22a4.74,4.74,0,0,0,1.13-1.47l0-.05.68.05,0,.17-.56,0A4.53,4.53,0,0,1,31.86,54l-.32.22a4.61,4.61,0,0,0-.46.34,1.19,1.19,0,0,0,.64.82A5.13,5.13,0,0,1,30,54.69h0a1.47,1.47,0,0,1-.57-.92l-3.33,2.44L26,56.07Z"/><path class="cls-1" d="M34.71,48.84s-.09-.38-.21-.47a1.61,1.61,0,0,0-1.91-.14l-.27.37.18.54s.4-.79,1-.71a1.15,1.15,0,0,1,.81.47l.18,0Z"/><path class="cls-1" d="M32.4,49.74a1.29,1.29,0,0,0,.13,1l-.37,0H32l0-.35,0-.51.06-.23.19,0Z"/><path class="cls-1" d="M32.41,49.17s.37,1,1.19.87a1,1,0,0,0,.81-1l.14.36v.17a1.09,1.09,0,0,1-.78.77,1.71,1.71,0,0,1-1.43-.74.75.75,0,0,1,0-.53Z"/><path class="cls-1" d="M37.63,46.36a2.11,2.11,0,0,1,.56.43,1.09,1.09,0,0,1,.16.23l.56-.67V47l-.43,1.15-.56.25-.13-.19,0-1.12.07-.18-.08-.2-.22-.22Z"/><path class="cls-1" d="M25.16,54.42l-.11.09s-1.87,3.7-4.2,4.16l-.39.35a3.41,3.41,0,0,0,3-1.41,25.65,25.65,0,0,0,2-3.36Z"/><path class="cls-1" d="M26,56,24,59s-1.61.94-2.68-.17l-.48.06a2.31,2.31,0,0,0,1.22.65,3.2,3.2,0,0,0,2.09-.38,30.57,30.57,0,0,0,1.95-2.95l.24-.22Z"/><path class="cls-1" d="M26.14,56.09a7.28,7.28,0,0,0,1.64,2.1,2.66,2.66,0,0,0,1.25.47l-.44.22A3.44,3.44,0,0,1,27.2,58a9.18,9.18,0,0,1-1.26-1.61Z"/><path class="cls-1" d="M25.32,60.68H25.2a1.29,1.29,0,0,1-.88-.59.86.86,0,0,1-.07-.78,1,1,0,0,1,.89-.68,1.07,1.07,0,0,1,.78,1.8A.83.83,0,0,1,25.32,60.68Zm-.19-1.89a.81.81,0,0,0-.71.57.66.66,0,0,0,0,.63,1.1,1.1,0,0,0,.75.51.65.65,0,0,0,.57-.2.87.87,0,0,0,.21-.79.9.9,0,0,0-.86-.72Z"/><path class="cls-1" d="M27.78,59.58a3.63,3.63,0,0,1-1.57-.4h0l-1-1.61.15-.1,1,1.58a3.28,3.28,0,0,0,1.74.35,2.31,2.31,0,0,0,1.3-.51l.13.12a2.45,2.45,0,0,1-1.41.56Z"/><polygon class="cls-1" points="27.42 59.17 26.43 57.82 26.58 57.72 27.56 59.07 27.42 59.17"/><path class="cls-1" d="M27.48,60.58l-2.54.16,2.5-.38s2.68-.6,3.6-.84,4.05-1.75,4.05-1.75l2.27-1.54a3.66,3.66,0,0,0,1.43.58,4.13,4.13,0,0,0,2.43-.9A4.79,4.79,0,0,0,41.9,55l-1.17-1.85L43,50.5l.09-.08.62,0,.3.27-.56,2.71L41.19,60h-6Z"/></g></g></svg>