<svg xmlns="http://www.w3.org/2000/svg" viewBox="0 0 19.74 18.7"><defs><style>.cls-1{fill:#104b39;}</style></defs><g id="Capa_2" data-name="Capa 2"><g id="Capa_1-2" data-name="Capa 1"><path class="cls-1" d="M6.84,0A6.84,6.84,0,1,1,0,6.84,6.86,6.86,0,0,1,6.84,0ZM1.48,6.83A5.36,5.36,0,1,0,6.87,1.49,5.33,5.33,0,0,0,1.48,6.83Z"/><path class="cls-1" d="M12.45,13.64a.48.48,0,0,1,0,.12l-.07.08s-.06-.06-.06-.09a1,1,0,0,1,0-.24s0-.07.06-.1a.53.53,0,0,1,.06.1.29.29,0,0,1,0,.13Z"/><path class="cls-1" d="M2.14,6.84A4.89,4.89,0,0,1,3.13,4a.58.58,0,1,1,.93.7A3.59,3.59,0,0,0,3.35,7,3.39,3.39,0,0,0,4,8.87l.12.18a.57.57,0,0,1-.13.8.56.56,0,0,1-.81-.11,4.6,4.6,0,0,1-.9-2C2.19,7.42,2.17,7.13,2.14,6.84Z"/><path class="cls-1" d="M14.52,10.45h2.8a0,0,0,0,1,0,0v7.94A1.35,1.35,0,0,1,16,19.75h-.09a1.35,1.35,0,0,1-1.35-1.35V10.45A0,0,0,0,1,14.52,10.45Z" transform="translate(-5.96 16.76) rotate(-47.83)"/></g></g></svg>