<svg xmlns="http://www.w3.org/2000/svg" viewBox="0 0 85.66 122.21"><defs><style>.cls-1{fill:#104b39;}</style></defs><g id="Capa_2" data-name="Capa 2"><g id="Capa_1-2" data-name="Capa 1"><path class="cls-1" d="M61.23,0c-.25,2.33-.51,4.66-.78,7.12H85.66V122.21H0V7.21H25.22L24.44,0ZM7.17,14.39V115H78.52V14.41H59.77L59,21.46H26.64l-.74-7.07ZM53.25,7.24H32.42l.7,7H52.56C52.8,11.9,53,9.61,53.25,7.24Z"/><path class="cls-1" d="M61,43.18c-.7.58-1.34,1.06-1.92,1.6-1.57,1.47-1.62,2.37-.71,4.34a42.56,42.56,0,0,1,2.84,7c1.6,6.29-.45,11.59-5,16a29.24,29.24,0,0,1-12.76,6.91,2,2,0,0,1-1,0,29.7,29.7,0,0,1-11.8-6C23.75,67.17,22.21,59.88,26,51.7c.46-1,1-2,1.51-3A2.78,2.78,0,0,0,26.83,45c-.62-.61-1.27-1.19-1.94-1.82.22-.3.33-.5.48-.67,2.31-2.47,4.6-5,6.94-7.4a1.79,1.79,0,0,1,1.39-.45,43.17,43.17,0,0,0,18.35,0,1.41,1.41,0,0,1,1.12.28C55.7,37.53,58.18,40.21,61,43.18ZM31.14,59c0,3.4.91,5.43,2.48,7.18a21.53,21.53,0,0,0,8.71,5.44,1.61,1.61,0,0,0,1,0,22.29,22.29,0,0,0,8.29-5A8.94,8.94,0,0,0,54,56.9a32,32,0,0,0-2-4.44c-1.4-2.77-2.07-5.57-.92-8.61.33-.87-.52-1.7-1.6-1.54a46.74,46.74,0,0,1-13.31,0,1.27,1.27,0,0,0-1.46,1.81,8.88,8.88,0,0,1-.15,6.3c-.49,1.25-1.23,2.41-1.72,3.66C32.1,56,31.49,57.94,31.14,59Z"/><path class="cls-1" d="M71.27,86.42v7H14.4v-7Z"/><path class="cls-1" d="M14.41,100.81H56.88v7H14.41Z"/><path class="cls-1" d="M71.25,107.85h-7v-7h7Z"/><path class="cls-1" d="M39.33,55.53h7v7h-7Z"/></g></g></svg>