<svg xmlns="http://www.w3.org/2000/svg" viewBox="0 0 11.08 10.61"><defs><style>.cls-1{fill:#104b39;}</style></defs><g id="Capa_2" data-name="Capa 2"><g id="Capa_1-2" data-name="Capa 1"><path class="cls-1" d="M8.51,10.61l-.33-.14L5.43,8.94l-3.1,1.54-.55-.38,0-.36.6-3.09L0,4.18l.2-.64.35-.07,3.12-.38L5.27,0l.36,0h.31l.17.31L7.45,3.17l3.41.58.22.63-.24.26L8.53,6.79,9,10.21ZM5.43,7.82,5.7,8l2.17,1.2-.4-2.7.19-.22,1.83-1.7-2.7-.46-.15-.25-1-2.25L4.33,4,4,4.05l-2.45.3,1.92,2,0,.31L3,9Z"/></g></g></svg>