<svg xmlns="http://www.w3.org/2000/svg" viewBox="0 0 98.6 84.77"><defs><style>.cls-1{fill:#104b39;}</style></defs><g id="Capa_2" data-name="Capa 2"><g id="Capa_1-2" data-name="Capa 1"><path class="cls-1" d="M24.94,28.18c2.85,0,4.27,1.15,4.27,3.47a3,3,0,0,1-1,2.44,4,4,0,0,1-2.67.83H23.67v3h-3V28.18Zm-1.27,4.47h1.44c.82,0,1.23-.35,1.23-1s-.43-1-1.29-1H23.67Z"/><path class="cls-1" d="M38.62,29.33A5.2,5.2,0,0,1,40,33.06a5.12,5.12,0,0,1-1.35,3.7,4.73,4.73,0,0,1-3.56,1.42,4.85,4.85,0,0,1-3.63-1.41A5.13,5.13,0,0,1,30.06,33a5.12,5.12,0,0,1,1.37-3.72,4.88,4.88,0,0,1,3.65-1.41A4.65,4.65,0,0,1,38.62,29.33Zm-5,1.7a3.32,3.32,0,0,0-.51,2,3.48,3.48,0,0,0,.51,2,1.64,1.64,0,0,0,1.44.72A1.55,1.55,0,0,0,36.45,35a3.72,3.72,0,0,0,.48-2.11,3.16,3.16,0,0,0-.5-1.91A1.61,1.61,0,0,0,35,30.32,1.65,1.65,0,0,0,33.62,31Z"/><path class="cls-1" d="M48.61,37.94H41.27V28.18h3v7.21h4.33Z"/><path class="cls-1" d="M52.91,37.94h-3V28.18h3Z"/><path class="cls-1" d="M62.27,37.11a4.72,4.72,0,0,1-3.13,1.07,4.59,4.59,0,0,1-3.56-1.47A5.28,5.28,0,0,1,54.24,33a5.09,5.09,0,0,1,1.38-3.64,4.67,4.67,0,0,1,3.57-1.46A4.5,4.5,0,0,1,62.24,29a3.85,3.85,0,0,1,1.38,2.75H60.71a1.7,1.7,0,0,0-.53-1,1.53,1.53,0,0,0-1-.36,1.57,1.57,0,0,0-1.11.42,2.17,2.17,0,0,0-.61,1A4.34,4.34,0,0,0,57.26,33a3.18,3.18,0,0,0,.5,1.92,1.59,1.59,0,0,0,1.38.7c.89,0,1.42-.52,1.57-1.56h2.95A4.08,4.08,0,0,1,62.27,37.11Z"/><path class="cls-1" d="M64.89,28.15h3v9.79h-3Zm1.87-.72H64.9l1.36-2h2.86Z"/><path class="cls-1" d="M78.7,37.94h-3l-.48-1.38H72.05l-.48,1.38h-3l3.6-9.76h3ZM74,32.78c-.12-.39-.24-.88-.37-1.48-.15.59-.28,1.09-.41,1.5s-.32,1-.54,1.66h1.84Z"/><path class="cls-1" d="M0,72.23c.55-2.66,1.11-5.32,1.63-8,.67-3.43,1.5-6.84,1.91-10.3q1-9,1.64-18.12A27.7,27.7,0,0,1,28.07,10.13a58.87,58.87,0,0,1,7.87-.47,1.11,1.11,0,0,0,1.22-.88A12.79,12.79,0,0,1,58.74,4.17a17.85,17.85,0,0,1,2.67,4.51c.35.72.65,1,1.44,1a32.56,32.56,0,0,1,9.93.95c9.11,2.61,15.48,8.27,19,17.13a35,35,0,0,1,1.88,10c.51,5.75.87,11.52,1.6,17.25.53,4.09,1.56,8.12,2.36,12.18.31,1.6.66,3.2.9,4.81A11.26,11.26,0,0,1,83.56,84.1c-4.09-1.48-8.14-3.13-12.3-4.38a73.58,73.58,0,0,0-18.49-2.88A78.63,78.63,0,0,0,28.56,79.4c-4.07,1.13-8,2.64-12,4.15-2.85,1.09-5.65,1.63-8.62.65A11.11,11.11,0,0,1,.21,75.66c-.06-.24-.14-.49-.21-.73ZM86.86,49.5a7.28,7.28,0,0,0,0-.82c-.33-3.74-.67-7.48-1-11.21a23.28,23.28,0,0,0-1.67-7.87c-3.71-8-10.09-12.11-18.86-12.22-10.68-.14-21.37-.06-32.06,0a23.78,23.78,0,0,0-5.05.59A19.7,19.7,0,0,0,13.09,34.72c-.38,3.25-.64,6.51-.94,9.77-.15,1.65-.29,3.31-.43,5A113.58,113.58,0,0,1,86.86,49.5ZM49.31,50.85A111.88,111.88,0,0,0,31.5,52.36a97.12,97.12,0,0,0-20.22,5.7,1.21,1.21,0,0,0-.67.68c-1,4.74-1.95,9.48-2.84,14.24a3.36,3.36,0,0,0,3.38,4,8.4,8.4,0,0,0,3-.82,86.33,86.33,0,0,1,25.3-6.57,91.83,91.83,0,0,1,21.22.18,84.45,84.45,0,0,1,17.68,4.06c2.47.87,4.89,1.9,7.33,2.87a3.68,3.68,0,0,0,4-.54,3.48,3.48,0,0,0,1.11-3.65q-1.36-6.65-2.64-13.3a1.49,1.49,0,0,0-1.06-1.27A102.11,102.11,0,0,0,49.31,50.85ZM45.4,9.59h7.76C51.83,7.43,47.55,6.85,45.4,9.59Z"/></g></g></svg>