<svg xmlns="http://www.w3.org/2000/svg" viewBox="0 0 111.1 65.7"><defs><style>.cls-1{fill:#104b39;}</style></defs><g id="Capa_2" data-name="Capa 2"><g id="Capa_1-2" data-name="Capa 1"><path class="cls-1" d="M35.65,30.36c2.19,0,3.29.89,3.29,2.68a2.3,2.3,0,0,1-.78,1.89,3.11,3.11,0,0,1-2.06.64H34.66v2.34h-2.3V30.36Zm-1,3.45h1.11c.64,0,1-.26,1-.79s-.34-.81-1-.81H34.66Z"/><path class="cls-1" d="M46.22,31.25a4,4,0,0,1,1,2.88,4,4,0,0,1-1,2.87,3.64,3.64,0,0,1-2.75,1.09A3.72,3.72,0,0,1,40.66,37a3.92,3.92,0,0,1-1.06-2.88,4,4,0,0,1,1.06-2.88,3.78,3.78,0,0,1,2.82-1.08A3.6,3.6,0,0,1,46.22,31.25Zm-3.87,1.31A2.62,2.62,0,0,0,42,34.09a2.68,2.68,0,0,0,.39,1.56,1.28,1.28,0,0,0,1.11.56,1.22,1.22,0,0,0,1.08-.56A2.9,2.9,0,0,0,44.91,34a2.53,2.53,0,0,0-.38-1.48A1.26,1.26,0,0,0,43.45,32,1.28,1.28,0,0,0,42.35,32.56Z"/><path class="cls-1" d="M53.94,37.91H48.27V30.36h2.32v5.57h3.35Z"/><path class="cls-1" d="M57.26,37.91H55V30.36h2.31Z"/><path class="cls-1" d="M64.5,37.26a3.67,3.67,0,0,1-2.43.83A3.52,3.52,0,0,1,59.33,37a4,4,0,0,1-1-2.84,3.93,3.93,0,0,1,1.06-2.81,3.6,3.6,0,0,1,2.77-1.13,3.49,3.49,0,0,1,2.36.85,3,3,0,0,1,1.06,2.13H63.29a1.34,1.34,0,0,0-.41-.79,1.2,1.2,0,0,0-.81-.27,1.17,1.17,0,0,0-.85.32,1.6,1.6,0,0,0-.47.76,3.14,3.14,0,0,0-.13.94A2.53,2.53,0,0,0,61,35.6a1.24,1.24,0,0,0,1.06.54c.7,0,1.1-.41,1.22-1.21h2.28A3.16,3.16,0,0,1,64.5,37.26Z"/><path class="cls-1" d="M66.52,30.34h2.33v7.57H66.52ZM68,29.78H66.53l1-1.58h2.21Z"/><path class="cls-1" d="M77.2,37.91H74.85l-.37-1.07H72.05l-.37,1.07H69.34l2.79-7.55h2.29Zm-3.63-4c-.09-.3-.19-.69-.29-1.15-.11.46-.22.84-.32,1.16s-.24.77-.41,1.28H74Z"/><path class="cls-1" d="M110.77,38.5a17.75,17.75,0,0,0-8.53-13.94C97,21.25,91.1,20.36,85.06,20.11c-1.26-.05-1.77-.38-2-1.67C80.66,7.18,71.81,0,60.32,0H50.14c-3.49,0-7,0-10.47,0-8.88.1-15.51,4.05-19.89,11.76-1.39,2.43-2.61,5-4,7.37a7.71,7.71,0,0,1-2.24,2.41c-3.75,2.52-7.55,5-11.41,7.33A3.88,3.88,0,0,0,0,32.61c0,2.85,0,5.71,0,8.56,0,3.15,0,6.3,0,9.44C.07,53.34.77,54,3.46,54c2.17,0,4.34.09,6.49,0,1.42-.08,2,.34,2.38,1.8A12.92,12.92,0,0,0,28.1,65.24a12.64,12.64,0,0,0,9.6-9.59c.22-.81.19-1.69,1.54-1.68q16.31.08,32.61,0c1,0,1.36.31,1.56,1.3A13.05,13.05,0,0,0,99,55.42c.24-1.13.67-1.46,1.74-1.44,2.61.05,5.22,0,7.82,0a2.3,2.3,0,0,0,2.59-2.53C111.05,47.14,111.17,42.79,110.77,38.5Zm-13.1-11c2.27.49,5.29,3,6.45,5.47C98.71,33.63,96.87,32,97.67,27.48ZM51.44,6.36c0-1.24.3-1.79,1.65-1.73,3.82.16,7.71-.16,11.46.43,7.31,1.16,12.92,7.31,14,14.93-.62,0-1.14.08-1.67.08-7.86,0-15.73,0-23.6,0-1.37,0-1.92-.31-1.88-1.79C51.52,14.33,51.5,10.34,51.44,6.36ZM29.57,7.52a16.45,16.45,0,0,1,8.86-2.84c2.35,0,4.72,0,7.07,0,.93,0,1.33.31,1.33,1.28,0,4.33,0,8.66,0,13,0,.79-.26,1.18-1.1,1.18L21.09,20c-.09,0-.18-.08-.46-.21C23.13,15.29,25,10.47,29.57,7.52ZM25,61.1a8.65,8.65,0,0,1-8.57-8.51A8.74,8.74,0,0,1,24.92,44,8.57,8.57,0,1,1,25,61.1Zm61,0a8.42,8.42,0,0,1-8.25-8.61,8.47,8.47,0,1,1,16.92.43A8.46,8.46,0,0,1,86,61.1ZM106.4,48.56c0,.28-.71.77-1.11.79-1.77.09-3.54,0-5.31,0-1,0-1.22-.6-1.5-1.32a12.75,12.75,0,0,0-9.43-8.28,13,13,0,0,0-15,8,2.09,2.09,0,0,1-2.33,1.63q-16.15-.06-32.3,0A1.91,1.91,0,0,1,37.23,48,13.08,13.08,0,0,0,12.72,48a1.72,1.72,0,0,1-1.92,1.37c-1.62-.06-3.24,0-4.86,0-.91,0-1.36-.28-1.35-1.27,0-4.81,0-9.63,0-14.45a2.19,2.19,0,0,1,.89-1.5q5.6-3.7,11.29-7.24a4.26,4.26,0,0,1,2.11-.43q16.07,0,32.14,0c10.57,0,21.14-.06,31.71,0,2.93,0,5.85.56,8.77.84,1,.09,1.34.59,1.32,1.56A20.38,20.38,0,0,0,93,30.76a8.12,8.12,0,0,0,8.22,7c1.23,0,2.46,0,3.69,0,.84,0,1.39.26,1.42,1.1C106.37,42.08,106.43,45.32,106.4,48.56Z"/><path class="cls-1" d="M24.94,46.93a5.36,5.36,0,0,0-5.6,5.65A5.71,5.71,0,0,0,25,58.35a5.94,5.94,0,0,0,5.8-5.87A5.67,5.67,0,0,0,24.94,46.93Z"/><path class="cls-1" d="M86.15,46.93a5.53,5.53,0,0,0-5.7,5.64,5.75,5.75,0,1,0,11.49-.08A5.55,5.55,0,0,0,86.15,46.93Z"/></g></g></svg>