<svg xmlns="http://www.w3.org/2000/svg" viewBox="0 0 66.45 46.94"><defs><style>.cls-1{fill:#f8f8f8;}</style></defs><g id="Capa_2" data-name="Capa 2"><g id="Capa_2-2" data-name="Capa 2"><path class="cls-1" d="M14.84,36.76a39.52,39.52,0,0,0,8.74.66,39.41,39.41,0,0,0,8.73-.66c2.17-.55,3.27-1.59,3.27-3.08,0-5-2.54-8.52-7.35-10.24a7.22,7.22,0,0,0,.85-.81,8.56,8.56,0,0,0,2.05-5.74,8.6,8.6,0,0,0-2.05-5.75,7.45,7.45,0,0,0-11,0A8.65,8.65,0,0,0,16,16.89a8.61,8.61,0,0,0,2.05,5.74,6.48,6.48,0,0,0,.85.81c-4.81,1.72-7.35,5.26-7.35,10.24C11.57,35.17,12.67,36.21,14.84,36.76ZM23.58,10.4a5.5,5.5,0,0,1,4.24,1.86,6.94,6.94,0,0,1,1.62,4.63,6.93,6.93,0,0,1-1.62,4.62,5.5,5.5,0,0,1-4.24,1.86,5.51,5.51,0,0,1-4.25-1.86,7,7,0,0,1-1.62-4.62,7,7,0,0,1,1.62-4.63A5.51,5.51,0,0,1,23.58,10.4Zm0,14.67a7.46,7.46,0,0,0,3.48-.85.89.89,0,0,0,.07.36.85.85,0,0,0,.49.44,9.51,9.51,0,0,1,4.71,3.31,8.93,8.93,0,0,1,1.56,5.35c0,.25,0,.93-2,1.44a37.71,37.71,0,0,1-8.31.61,37.76,37.76,0,0,1-8.32-.61c-2-.51-2-1.19-2-1.44a8.94,8.94,0,0,1,1.57-5.35A9.42,9.42,0,0,1,19.54,25a.86.86,0,0,0,.48-.44.89.89,0,0,0,.07-.36A7.47,7.47,0,0,0,23.58,25.07Z"/><path class="cls-1" d="M23.47,0A23.47,23.47,0,1,0,46.94,23.47,23.5,23.5,0,0,0,23.47,0ZM2,23.47A21.47,21.47,0,1,1,23.47,44.94,21.49,21.49,0,0,1,2,23.47Z"/><polygon class="cls-1" points="60.63 30.95 66.45 20.87 54.81 20.87 60.63 30.95"/></g></g></svg>